<svg width="48" height="48" viewBox="0 0 48 48" fill="none" xmlns="http://www.w3.org/2000/svg">
<path d="M4.17969 33.1172H11.4053V42.6872H4.17969V33.1172Z" fill="#C3CDD4"/>
<path d="M14.5977 26.9844H21.8233V42.68H14.5977V26.9844Z" fill="#9AACB7"/>
<path d="M25.0039 20.8594H32.2295V42.6875H25.0039V20.8594Z" fill="#728B9A"/>
<path d="M35.4219 17.6064H42.6475V42.6871H35.4219V17.6064Z" fill="#35586E"/>
<path d="M2.81984 46.0898H43.4511C43.788 46.0898 44.0561 45.8216 44.0561 45.4848V44.8179C44.0561 44.481 43.788 44.2129 43.4511 44.2129H2.81984C2.48297 44.2129 2.21484 44.481 2.21484 44.8179V45.4848C2.21484 45.8216 2.48297 46.0898 2.81984 46.0898Z" fill="#35586E"/>
<path d="M39.0316 2L41.1216 6.22813L45.7897 6.90875L42.4141 10.2019L43.2116 14.8563L39.0316 12.6562L34.8584 14.8563L35.6559 10.2019L32.2734 6.90875L36.9484 6.22813L39.0316 2Z" fill="#35586E"/>
</svg>
