<svg width="48" height="48" viewBox="0 0 48 48" fill="none" xmlns="http://www.w3.org/2000/svg">
<rect width="48" height="48" rx="4" fill="white"/>
<path fill-rule="evenodd" clip-rule="evenodd" d="M38.3992 6H9.19922C8.09465 6 7.19922 6.89543 7.19922 8V43.2C7.19922 44.3046 8.09465 45.2 9.19922 45.2H38.3992C39.5038 45.2 40.3992 44.3046 40.3992 43.2V8C40.3992 6.89543 39.5038 6 38.3992 6ZM9.19922 4C6.99008 4 5.19922 5.79086 5.19922 8V43.2C5.19922 45.4091 6.99008 47.2 9.19922 47.2H38.3992C40.6084 47.2 42.3992 45.4091 42.3992 43.2V8C42.3992 5.79086 40.6084 4 38.3992 4H9.19922Z" fill="#35586E"/>
<path d="M9.19922 6H38.3992C39.5038 6 40.3992 6.89543 40.3992 8V43.2C40.3992 44.3046 39.5038 45.2 38.3992 45.2H9.19922C8.09465 45.2 7.19922 44.3046 7.19922 43.2V8C7.19922 6.89543 8.09465 6 9.19922 6Z" fill="white"/>
<path d="M15.7747 1.70974C15.9083 1.17554 16.3882 0.800781 16.9389 0.800781H30.665C31.2157 0.800781 31.6956 1.17554 31.8292 1.70974L32.8292 5.70974C33.0185 6.46712 32.4457 7.20078 31.665 7.20078H15.9389C15.1582 7.20078 14.5854 6.46711 14.7747 5.70974L15.7747 1.70974Z" fill="#35586E"/>
<path fill-rule="evenodd" clip-rule="evenodd" d="M30.665 2.00078H16.9389L15.9389 6.00078L31.665 6.00078L30.665 2.00078ZM16.9389 0.800781C16.3882 0.800781 15.9083 1.17554 15.7747 1.70974L14.7747 5.70974C14.5854 6.46711 15.1582 7.20078 15.9389 7.20078H31.665C32.4457 7.20078 33.0185 6.46712 32.8292 5.70974L31.8292 1.70974C31.6956 1.17554 31.2157 0.800781 30.665 0.800781H16.9389Z" fill="#35586E"/>
<path fill-rule="evenodd" clip-rule="evenodd" d="M14.4008 19.2002V23.6002H34.0008V19.2002H35.6008V23.6002C35.6008 24.4839 34.8844 25.2002 34.0008 25.2002H14.4008C13.5171 25.2002 12.8008 24.4839 12.8008 23.6002V19.2002H14.4008Z" fill="#35586E"/>
<path fill-rule="evenodd" clip-rule="evenodd" d="M14.4008 32.7998V28.3998H34.0008V32.7998H35.6008V28.3998C35.6008 27.5161 34.8844 26.7998 34.0008 26.7998H14.4008C13.5171 26.7998 12.8008 27.5161 12.8008 28.3998V32.7998H14.4008Z" fill="#35586E"/>
<path fill-rule="evenodd" clip-rule="evenodd" d="M19.3828 25.6006L24.0016 17.6006L28.6204 25.6006L24.8016 25.6006L24.8016 26.4006L28.6204 26.4006L24.0016 34.4006L19.3828 26.4006L23.2016 26.4006L23.2016 25.6006L19.3828 25.6006Z" fill="#35586E"/>
<path d="M17.6016 24.0004C17.6016 23.1167 18.3179 22.4004 19.2016 22.4004H28.4016C29.2852 22.4004 30.0016 23.1167 30.0016 24.0004V28.4004C30.0016 29.284 29.2852 30.0004 28.4016 30.0004H19.2016C18.3179 30.0004 17.6016 29.284 17.6016 28.4004V24.0004Z" fill="white"/>
<path d="M18.8008 25.6002C18.8008 25.3793 18.9799 25.2002 19.2008 25.2002H21.2008C21.4217 25.2002 21.6008 25.3793 21.6008 25.6002V27.2002C21.6008 27.4211 21.4217 27.6002 21.2008 27.6002H19.2008C18.9799 27.6002 18.8008 27.4211 18.8008 27.2002V25.6002Z" fill="#35586E"/>
<path d="M22.4023 25.6002C22.4023 25.3793 22.5814 25.2002 22.8023 25.2002H24.8023C25.0233 25.2002 25.2023 25.3793 25.2023 25.6002V27.2002C25.2023 27.4211 25.0233 27.6002 24.8023 27.6002H22.8023C22.5814 27.6002 22.4023 27.4211 22.4023 27.2002V25.6002Z" fill="#35586E"/>
<path d="M26 25.6002C26 25.3793 26.1791 25.2002 26.4 25.2002H28.4C28.6209 25.2002 28.8 25.3793 28.8 25.6002V27.2002C28.8 27.4211 28.6209 27.6002 28.4 27.6002H26.4C26.1791 27.6002 26 27.4211 26 27.2002V25.6002Z" fill="#35586E"/>
<path d="M16.8023 16.7996C16.8023 18.5669 15.3697 19.9996 13.6023 19.9996C11.835 19.9996 10.4023 18.5669 10.4023 16.7996C10.4023 15.0323 11.835 13.5996 13.6023 13.5996C15.3697 13.5996 16.8023 15.0323 16.8023 16.7996Z" fill="#35586E"/>
<path fill-rule="evenodd" clip-rule="evenodd" d="M13.6023 18.7996C14.7069 18.7996 15.6023 17.9042 15.6023 16.7996C15.6023 15.695 14.7069 14.7996 13.6023 14.7996C12.4978 14.7996 11.6023 15.695 11.6023 16.7996C11.6023 17.9042 12.4978 18.7996 13.6023 18.7996ZM13.6023 19.9996C15.3697 19.9996 16.8023 18.5669 16.8023 16.7996C16.8023 15.0323 15.3697 13.5996 13.6023 13.5996C11.835 13.5996 10.4023 15.0323 10.4023 16.7996C10.4023 18.5669 11.835 19.9996 13.6023 19.9996Z" fill="#35586E"/>
<path d="M16.8023 35.2C16.8023 36.9673 15.3697 38.4 13.6023 38.4C11.835 38.4 10.4023 36.9673 10.4023 35.2C10.4023 33.4327 11.835 32 13.6023 32C15.3697 32 16.8023 33.4327 16.8023 35.2Z" fill="#35586E"/>
<path fill-rule="evenodd" clip-rule="evenodd" d="M13.6023 37.2C14.7069 37.2 15.6023 36.3046 15.6023 35.2C15.6023 34.0954 14.7069 33.2 13.6023 33.2C12.4978 33.2 11.6023 34.0954 11.6023 35.2C11.6023 36.3046 12.4978 37.2 13.6023 37.2ZM13.6023 38.4C15.3697 38.4 16.8023 36.9673 16.8023 35.2C16.8023 33.4327 15.3697 32 13.6023 32C11.835 32 10.4023 33.4327 10.4023 35.2C10.4023 36.9673 11.835 38.4 13.6023 38.4Z" fill="#35586E"/>
<path d="M27.1969 13.2C27.1969 14.9673 25.7642 16.4 23.9969 16.4C22.2296 16.4 20.7969 14.9673 20.7969 13.2C20.7969 11.4327 22.2296 10 23.9969 10C25.7642 10 27.1969 11.4327 27.1969 13.2Z" fill="#35586E"/>
<path fill-rule="evenodd" clip-rule="evenodd" d="M23.9969 15.2C25.1014 15.2 25.9969 14.3046 25.9969 13.2C25.9969 12.0954 25.1014 11.2 23.9969 11.2C22.8923 11.2 21.9969 12.0954 21.9969 13.2C21.9969 14.3046 22.8923 15.2 23.9969 15.2ZM23.9969 16.4C25.7642 16.4 27.1969 14.9673 27.1969 13.2C27.1969 11.4327 25.7642 10 23.9969 10C22.2296 10 20.7969 11.4327 20.7969 13.2C20.7969 14.9673 22.2296 16.4 23.9969 16.4Z" fill="#35586E"/>
<path d="M37.5992 16.7996C37.5992 18.5669 36.1665 19.9996 34.3992 19.9996C32.6319 19.9996 31.1992 18.5669 31.1992 16.7996C31.1992 15.0323 32.6319 13.5996 34.3992 13.5996C36.1665 13.5996 37.5992 15.0323 37.5992 16.7996Z" fill="#35586E"/>
<path fill-rule="evenodd" clip-rule="evenodd" d="M34.3992 18.7996C35.5038 18.7996 36.3992 17.9042 36.3992 16.7996C36.3992 15.695 35.5038 14.7996 34.3992 14.7996C33.2946 14.7996 32.3992 15.695 32.3992 16.7996C32.3992 17.9042 33.2946 18.7996 34.3992 18.7996ZM34.3992 19.9996C36.1665 19.9996 37.5992 18.5669 37.5992 16.7996C37.5992 15.0323 36.1665 13.5996 34.3992 13.5996C32.6319 13.5996 31.1992 15.0323 31.1992 16.7996C31.1992 18.5669 32.6319 19.9996 34.3992 19.9996Z" fill="#35586E"/>
<path d="M37.5992 35.2C37.5992 36.9673 36.1665 38.4 34.3992 38.4C32.6319 38.4 31.1992 36.9673 31.1992 35.2C31.1992 33.4327 32.6319 32 34.3992 32C36.1665 32 37.5992 33.4327 37.5992 35.2Z" fill="#35586E"/>
<path fill-rule="evenodd" clip-rule="evenodd" d="M34.3992 37.2C35.5038 37.2 36.3992 36.3046 36.3992 35.2C36.3992 34.0954 35.5038 33.2 34.3992 33.2C33.2946 33.2 32.3992 34.0954 32.3992 35.2C32.3992 36.3046 33.2946 37.2 34.3992 37.2ZM34.3992 38.4C36.1665 38.4 37.5992 36.9673 37.5992 35.2C37.5992 33.4327 36.1665 32 34.3992 32C32.6319 32 31.1992 33.4327 31.1992 35.2C31.1992 36.9673 32.6319 38.4 34.3992 38.4Z" fill="#35586E"/>
<path d="M27.1969 38.8006C27.1969 40.5679 25.7642 42.0006 23.9969 42.0006C22.2296 42.0006 20.7969 40.5679 20.7969 38.8006C20.7969 37.0333 22.2296 35.6006 23.9969 35.6006C25.7642 35.6006 27.1969 37.0333 27.1969 38.8006Z" fill="#35586E"/>
<path fill-rule="evenodd" clip-rule="evenodd" d="M23.9969 40.8006C25.1014 40.8006 25.9969 39.9052 25.9969 38.8006C25.9969 37.696 25.1014 36.8006 23.9969 36.8006C22.8923 36.8006 21.9969 37.696 21.9969 38.8006C21.9969 39.9052 22.8923 40.8006 23.9969 40.8006ZM23.9969 42.0006C25.7642 42.0006 27.1969 40.5679 27.1969 38.8006C27.1969 37.0333 25.7642 35.6006 23.9969 35.6006C22.2296 35.6006 20.7969 37.0333 20.7969 38.8006C20.7969 40.5679 22.2296 42.0006 23.9969 42.0006Z" fill="#35586E"/>
</svg>
