<svg width="48" height="48" viewBox="0 0 48 48" fill="none" xmlns="http://www.w3.org/2000/svg">
<g clip-path="url(#clip0_3519_4692)">
<path d="M6.02441 28.2246L4.46255 32.0425C2.73737 36.2596 6.75169 41.8926 13.4288 44.6242C20.1059 47.3557 26.9173 46.1514 28.6425 41.9343L30.2043 38.1164L6.02441 28.2246Z" fill="#91C1B5"/>
<path d="M19.5313 46.0567L21.6582 40.8575L20.3856 40.3369L18.1055 45.9106C18.5876 45.98 19.0629 46.0287 19.5313 46.0567Z" fill="#A5E1D3"/>
<path d="M12.7969 44.3534C13.0048 44.4465 13.2155 44.5368 13.4289 44.6242C13.6424 44.7115 13.8559 44.7948 14.0695 44.874L16.5727 38.755L15.3001 38.2344L12.7969 44.3534Z" fill="#A5E1D3"/>
<path d="M8.07422 41.3717C8.42762 41.6794 8.80076 41.9778 9.19364 42.2668L11.6634 36.2296L10.3908 35.709L8.07422 41.3717Z" fill="#A5E1D3"/>
<path d="M6.00584 39.1718L8.18906 33.835L6.91645 33.3145L5.09375 37.7699C5.3632 38.2588 5.66804 38.7274 6.00584 39.1718Z" fill="#A5E1D3"/>
<path d="M30.2326 38.1242C31.9594 33.905 27.9438 28.2682 21.2634 25.534C14.5831 22.7998 7.76767 24.0036 6.04081 28.2228C4.31396 32.442 8.32957 38.0788 15.0099 40.813C21.6903 43.5472 28.5057 42.3434 30.2326 38.1242Z" fill="#A5E1D3"/>
<path d="M23.3816 30.9223C23.2428 30.5887 23.0392 30.286 22.7826 30.0317C22.5261 29.7774 22.2216 29.5764 21.8868 29.4405L21.2357 29.1742L21.7308 27.9641L20.4582 27.4434L19.9631 28.6536L18.7052 28.139L19.2258 26.8663L17.9532 26.3457L17.4326 27.6184L16.16 27.0977L15.6393 28.3704L16.912 28.891L14.3089 35.2541L13.0363 34.7335L12.5156 36.0061L13.7883 36.5267L13.2677 37.7994L14.5403 38.32L15.0609 37.0474L16.3335 37.568L15.8129 38.8406L17.0855 39.3612L17.6061 38.0886L18.2425 38.3489C18.7459 38.5549 19.299 38.6069 19.832 38.4984C20.365 38.39 20.8538 38.1259 21.2367 37.7397C21.6196 37.3534 21.8794 36.8622 21.9832 36.3283C22.087 35.7944 22.0301 35.2418 21.8197 34.7402C21.797 34.686 21.7721 34.6331 21.7463 34.5808C22.1014 34.4583 22.4275 34.2642 22.7046 34.0105C22.9816 33.7568 23.2037 33.449 23.357 33.106C23.5102 32.7631 23.5915 32.3923 23.5958 32.0167C23.6 31.6411 23.5271 31.2686 23.3816 30.9223ZM20.5563 36.3243C20.4179 36.6615 20.1513 36.9301 19.8152 37.071C19.479 37.212 19.1006 37.2139 18.7631 37.0763L15.5815 35.7747L16.6227 33.2295L19.8043 34.531C20.1418 34.6691 20.4107 34.9356 20.5517 35.2719C20.6927 35.6082 20.6944 35.9868 20.5563 36.3243ZM22.1182 32.5064C21.9797 32.8436 21.7132 33.1122 21.377 33.2531C21.0409 33.3941 20.6625 33.396 20.3249 33.2584L17.1434 31.9569L18.1846 29.4116L21.3662 30.7132C21.7037 30.8512 21.9725 31.1178 22.1136 31.4541C22.2546 31.7904 22.2563 32.1689 22.1182 32.5064Z" fill="white"/>
<path d="M41.899 34.7075L38.7624 37.3866C35.2979 40.3459 28.691 38.298 24.0054 32.8125C19.3199 27.3271 18.33 20.4812 21.7945 17.5219L24.9311 14.8428" fill="#304755"/>
<path d="M27.8018 28.5801L23.5 32.1935C23.6642 32.4013 23.8334 32.6075 24.0076 32.8121C24.1327 32.9586 24.2593 33.1025 24.3874 33.2438L28.6861 29.6329L27.8018 28.5801Z" fill="#35586E"/>
<path d="M27.4805 36.0312C27.8758 36.3162 28.2746 36.5798 28.6768 36.822L32.5816 33.5421L31.6972 32.4893L27.4805 36.0312Z" fill="#35586E"/>
<path d="M33.0178 38.5629L37.1211 35.1163L36.2367 34.0635L31.4062 38.121C31.9321 38.3068 32.4707 38.4545 33.0178 38.5629Z" fill="#35586E"/>
<path d="M41.8389 34.7732C45.3245 31.8389 44.3838 24.9863 39.7379 19.4674C35.0919 13.9485 28.5 11.8533 25.0144 14.7876C21.5288 17.7219 22.4694 24.5745 27.1154 30.0934C31.7613 35.6123 38.3533 37.7075 41.8389 34.7732Z" fill="#35586E"/>
<path d="M22.5469 45.9402C23.0993 45.86 23.6452 45.7395 24.18 45.5796L26.1641 40.7296L24.8915 40.209L22.5469 45.9402Z" fill="#A5E1D3"/>
<path d="M28.4876 11.8437L25.9877 8.5625L5.20703 24.3954L7.70696 27.6765C10.4683 31.3008 17.3587 30.6945 23.0971 26.3224C28.8356 21.9503 31.249 15.4679 28.4876 11.8437Z" fill="#3E6882"/>
<path d="M29.37 17.5387L25.9335 13.0283L24.8398 13.8616L28.8533 19.1293C29.0641 18.6124 29.2368 18.0808 29.37 17.5387Z" fill="#4E7D9A"/>
<path d="M27.4216 21.7917L23.3593 16.46L22.2656 17.2932L26.5731 22.9468C26.8773 22.5663 27.1601 22.1813 27.4216 21.7917Z" fill="#4E7D9A"/>
<path d="M19.8359 20.9102L18.7422 21.7434L22.5421 26.7309C22.7278 26.5988 22.9123 26.463 23.0959 26.3233C23.2793 26.1835 23.4593 26.0416 23.6358 25.8976L19.8359 20.9102Z" fill="#4E7D9A"/>
<path d="M14.996 23.6299L13.9023 24.4632L17.5809 29.2912C18.0252 29.1425 18.4715 28.972 18.9198 28.7798L14.996 23.6299Z" fill="#4E7D9A"/>
<path d="M10.0937 24.001L9 24.8343L12.9651 30.0384C13.5231 30.0538 14.0815 30.0285 14.6358 29.9625L10.0937 24.001Z" fill="#4E7D9A"/>
<path d="M20.5907 23.0337C26.326 18.6618 28.7371 12.1813 25.9759 8.55903C23.2148 4.93673 16.327 5.54434 10.5917 9.91616C4.85641 14.288 2.44538 20.7685 5.20653 24.3908C7.96768 28.0131 14.8554 27.4055 20.5907 23.0337Z" fill="#4E7D9A"/>
<path d="M22.7066 11.0625L12.6808 12.651L8.48828 21.8955L18.514 20.3071L22.7066 11.0625Z" fill="#F2F2F2"/>
<path d="M12.6797 12.651L13.4089 18.1456L22.7054 11.0625L12.6797 12.651Z" fill="white"/>
<path d="M13.41 18.1465L8.48828 21.8964L18.514 20.3079L13.41 18.1465Z" fill="#CDCDCD"/>
<path d="M13.4102 18.1456L18.5142 20.3071L22.7067 11.0625L13.4102 18.1456Z" fill="#EFEFEF"/>
<path d="M39.3248 24.2879C39.1014 24.022 38.8146 23.8168 38.4907 23.6913C38.1669 23.5659 37.8167 23.5242 37.4725 23.5702C37.1283 23.6161 36.8013 23.7482 36.5217 23.9543C36.2422 24.1603 36.0192 24.4336 35.8734 24.7487L34.0616 24.2196L33.8532 22.3436C34.3221 22.2191 34.7322 21.9331 35.0111 21.5361C35.2901 21.139 35.4201 20.6563 35.3784 20.1729C35.3366 19.6895 35.1257 19.2362 34.7828 18.8929C34.4398 18.5496 33.9868 18.3382 33.5034 18.2959C33.02 18.2536 32.5372 18.3832 32.1399 18.6617C31.7425 18.9402 31.4561 19.35 31.331 19.8188C31.2059 20.2876 31.2502 20.7856 31.456 21.225C31.6617 21.6645 32.0159 22.0173 32.4561 22.2214L32.705 24.4613L31.8436 25.1848C31.4244 24.9379 30.9314 24.8471 30.4517 24.9285C29.9721 25.0099 29.5366 25.2583 29.2224 25.6297C28.9081 26.0011 28.7352 26.4717 28.7344 26.9582C28.7335 27.4447 28.9047 27.9159 29.2176 28.2885C29.5305 28.661 29.9651 28.9109 30.4445 28.9941C30.9238 29.0772 31.4172 28.9882 31.8373 28.7428C32.2574 28.4973 32.5772 28.1113 32.7402 27.6529C32.9032 27.1945 32.8989 26.6932 32.728 26.2376L33.5893 25.5141L35.7526 26.1459C35.8322 26.4444 35.9778 26.7212 36.1788 26.9558C36.3797 27.1905 36.6307 27.377 36.9134 27.5017C37.196 27.6263 37.5031 27.6858 37.8118 27.6759C38.1206 27.6659 38.4232 27.5868 38.6972 27.4442C38.9713 27.3017 39.2098 27.0994 39.3952 26.8523C39.5807 26.6052 39.7082 26.3196 39.7684 26.0166C39.8287 25.7137 39.8201 25.401 39.7433 25.1018C39.6665 24.8026 39.5235 24.5244 39.3248 24.2879Z" fill="white"/>
</g>
<defs>
<clipPath id="clip0_3519_4692">
<rect width="48" height="48" fill="white"/>
</clipPath>
</defs>
</svg>
