<svg width="220" height="220" viewBox="0 0 220 220" fill="none" xmlns="http://www.w3.org/2000/svg">
<path d="M197.401 183.12C195.156 180.637 191.997 179.218 188.934 177.866L168.148 178.077C167.053 178.973 167.743 180.733 168.528 181.91C171.433 186.262 174.793 190.442 179.185 193.285C183.578 196.128 189.161 197.492 194.15 195.911C196.119 195.287 198.021 194.148 199.056 192.36C200.733 189.463 199.647 185.602 197.401 183.12Z" fill="#F5F5F5"/>
<path d="M157.129 198.513H10.1836L13.5009 189.804H154.167L157.129 198.513Z" fill="#F5F5F5"/>
<path d="M116.618 23.6084H92.2129V29.8487H116.618V23.6084Z" fill="#EBEBEB"/>
<path d="M106.298 36.4212C106.296 36.4188 106.293 36.3807 106.29 36.3076C106.288 36.2241 106.285 36.1189 106.282 35.9877C106.278 35.6942 106.272 35.2847 106.264 34.7596C106.254 33.6825 106.24 32.1337 106.222 30.181L106.298 30.254C100.725 30.2649 91.863 30.2817 81.894 30.301C81.949 30.2476 81.7687 30.421 82.0168 30.181V30.1826V30.1858V30.1922V30.2046V30.2295V30.2797V30.3801V30.5808V30.9811C82.0168 31.2472 82.0168 31.5126 82.0168 31.7772C82.0168 32.3063 82.0164 32.831 82.0164 33.3521C82.016 34.3935 82.0152 35.418 82.0144 36.4212L81.8928 36.304C88.8421 36.3253 94.923 36.3438 99.2844 36.3574C101.457 36.3715 103.2 36.3831 104.418 36.3907C105.01 36.3976 105.474 36.4024 105.806 36.406C105.955 36.4092 106.075 36.4116 106.169 36.4136C106.252 36.416 106.295 36.4184 106.298 36.4212C106.301 36.4237 106.262 36.4265 106.185 36.4289C106.095 36.4309 105.98 36.4333 105.837 36.4365C105.511 36.4401 105.056 36.4453 104.475 36.4522C103.264 36.4602 101.531 36.4714 99.3699 36.4855C94.9872 36.4987 88.8766 36.5176 81.8936 36.5389L81.7719 36.5393V36.4212C81.7711 35.418 81.7707 34.3935 81.7699 33.3521C81.7699 32.8314 81.7695 32.3063 81.7695 31.7772C81.7695 31.5126 81.7695 31.2472 81.7695 30.9811V30.5808V30.3801V30.2797V30.2295V30.2042V30.1918V30.1854V30.1822V30.1806C82.0184 29.9401 81.8394 30.1139 81.8956 30.0601C91.8647 30.0794 100.727 30.0962 106.299 30.1071H106.375L106.375 30.1801C106.357 32.1513 106.343 33.7146 106.333 34.8022C106.325 35.32 106.319 35.7243 106.314 36.0138C106.311 36.1398 106.308 36.241 106.306 36.3209C106.303 36.3903 106.3 36.4237 106.298 36.4212Z" fill="#E0E0E0"/>
<path d="M217.569 83.6514H193.164V89.8917H217.569V83.6514Z" fill="#EBEBEB"/>
<path d="M207.249 96.4641C207.247 96.4617 207.244 96.4235 207.241 96.3505C207.239 96.267 207.237 96.1618 207.233 96.0305C207.229 95.7366 207.223 95.3272 207.215 94.8025C207.205 93.7249 207.191 92.1765 207.173 90.2238L207.249 90.2969C201.676 90.3077 192.814 90.3246 182.845 90.3438C182.9 90.2904 182.72 90.4639 182.968 90.2238V90.2254V90.2286V90.235V90.2475V90.2728V90.323V90.4233V90.6241V91.0243C182.968 91.2905 182.968 91.5558 182.968 91.8204C182.968 92.3495 182.968 92.8742 182.968 93.3953C182.967 94.4367 182.966 95.4612 182.966 96.4645L182.844 96.3473C189.793 96.3685 195.874 96.387 200.236 96.4007C202.408 96.4147 204.151 96.4264 205.369 96.434C205.961 96.4404 206.425 96.4456 206.757 96.4492C206.907 96.4524 207.026 96.4549 207.121 96.4569C207.203 96.4589 207.247 96.4613 207.249 96.4641C207.252 96.4665 207.213 96.4693 207.136 96.4717C207.046 96.4737 206.932 96.4761 206.788 96.4794C206.463 96.483 206.007 96.4882 205.426 96.495C204.215 96.503 202.482 96.5143 200.321 96.5283C195.938 96.5416 189.828 96.5604 182.845 96.5817L182.723 96.5821V96.4641C182.722 95.4608 182.722 94.4363 182.721 93.3949C182.721 92.8742 182.721 92.3491 182.721 91.82C182.721 91.5554 182.721 91.2901 182.721 91.0239V90.6237V90.4229V90.3226V90.2724V90.2471V90.2346V90.2282V90.225V90.2234C182.97 89.9829 182.791 90.1568 182.847 90.103C192.816 90.1222 201.678 90.1391 207.25 90.1499H207.327L207.326 90.223C207.308 92.1942 207.294 93.7575 207.284 94.845C207.276 95.3629 207.27 95.7672 207.266 96.0566C207.262 96.1827 207.26 96.2838 207.258 96.3637C207.254 96.4332 207.252 96.4665 207.249 96.4641Z" fill="#E0E0E0"/>
<path d="M140.14 144.135H114.281V150.475H140.14V144.135Z" fill="#EBEBEB"/>
<path d="M29.47 154.198C29.4676 154.195 29.4648 154.154 29.462 154.074C29.46 153.983 29.4572 153.869 29.4536 153.725C29.4487 153.405 29.4423 152.959 29.4343 152.387C29.4243 151.213 29.409 149.526 29.3905 147.398L29.4696 147.478C23.6392 147.489 14.3663 147.508 3.93516 147.529C3.99257 147.471 3.80388 147.66 4.06362 147.398V147.4V147.403V147.41V147.424V147.451V147.505V147.615V147.833V148.269C4.06362 148.56 4.06362 148.849 4.06362 149.137C4.06322 149.713 4.06322 150.285 4.06282 150.852C4.06202 151.987 4.06162 153.103 4.06082 154.197L3.93356 154.069C11.2052 154.092 17.5679 154.113 22.1313 154.127C24.4044 154.143 26.2286 154.155 27.5029 154.164C28.1227 154.171 28.6081 154.177 28.9553 154.181C29.1115 154.184 29.2368 154.187 29.3351 154.189C29.4218 154.192 29.4672 154.195 29.47 154.198C29.4728 154.201 29.4327 154.203 29.352 154.206C29.2576 154.208 29.1376 154.211 28.9879 154.214C28.647 154.218 28.1709 154.224 27.5627 154.231C26.2957 154.24 24.4815 154.252 22.2209 154.268C17.635 154.282 11.2413 154.303 3.93436 154.326L3.80709 154.326V154.198C3.80629 153.105 3.80589 151.988 3.80509 150.853C3.80509 150.286 3.80469 149.713 3.80469 149.137C3.80469 148.85 3.80469 148.56 3.80469 148.27V147.834V147.616V147.506V147.452V147.424V147.411V147.404V147.401V147.399C4.06483 147.137 3.87775 147.326 3.93637 147.268C14.3675 147.289 23.6404 147.307 29.4708 147.319H29.5507L29.5499 147.399C29.531 149.546 29.5166 151.25 29.5061 152.435C29.4977 152.999 29.4917 153.439 29.4869 153.755C29.4837 153.893 29.4809 154.003 29.4784 154.09C29.4752 154.164 29.4728 154.2 29.47 154.198Z" fill="#E0E0E0"/>
<path d="M32.9322 147.398C32.929 147.395 32.9258 147.351 32.9221 147.269C32.9193 147.172 32.9161 147.053 32.9121 146.909C32.9065 146.574 32.8989 146.119 32.8888 145.545C32.8768 144.353 32.8595 142.669 32.8382 140.599L32.9318 140.693C28.9569 140.703 23.5497 140.715 17.59 140.73C17.4732 140.847 17.747 140.57 17.7189 140.599V140.601V140.605V140.611V140.625V140.653V140.709V140.821V141.043V141.488C17.7189 141.783 17.7189 142.078 17.7185 142.37C17.7181 142.954 17.7177 143.532 17.7172 144.1C17.7156 145.237 17.714 146.34 17.7124 147.397L17.5888 147.272C22.0181 147.296 25.8312 147.317 28.5643 147.332C29.912 147.346 30.9923 147.358 31.7615 147.366C32.1208 147.373 32.4067 147.378 32.6239 147.382C32.8214 147.388 32.927 147.393 32.9322 147.398C32.9374 147.404 32.8418 147.409 32.6536 147.414C32.4428 147.418 32.1654 147.423 31.8173 147.429C31.0554 147.438 29.9847 147.449 28.6486 147.464C25.895 147.479 22.0526 147.499 17.5896 147.523L17.4659 147.524L17.4655 147.398C17.4639 146.342 17.4623 145.239 17.4607 144.102C17.4603 143.533 17.4599 142.956 17.4595 142.371C17.4595 142.079 17.4595 141.785 17.4591 141.489V141.045V140.822V140.711V140.655V140.627V140.613V140.606V140.603V140.601C17.4306 140.629 17.706 140.352 17.5904 140.469C23.5501 140.484 28.9573 140.497 32.9322 140.506H33.0269L33.0257 140.6C33.0044 142.695 32.9876 144.398 32.9755 145.604C32.9659 146.168 32.9579 146.616 32.9522 146.946C32.945 147.249 32.9386 147.405 32.9322 147.398Z" fill="#E0E0E0"/>
<path d="M194.337 44.5276C194.335 44.5248 194.332 44.4834 194.329 44.4039C194.327 44.3128 194.324 44.1984 194.321 44.0551C194.316 43.7351 194.31 43.2891 194.301 42.717C194.291 41.5431 194.276 39.8554 194.258 37.7281L194.337 37.8076C188.506 37.8192 179.233 37.8381 168.802 37.8589C168.86 37.8007 168.671 37.9898 168.931 37.7281V37.7297V37.7329V37.7397V37.7534V37.7807V37.8353V37.9445V38.1628V38.5988C168.931 38.8891 168.931 39.1781 168.931 39.466C168.93 40.0425 168.93 40.6146 168.93 41.1818C168.929 42.3168 168.929 43.4328 168.928 44.5264L168.801 44.3983C176.072 44.4216 182.435 44.4421 186.999 44.4565C189.272 44.4722 191.096 44.4846 192.37 44.4931C192.99 44.5003 193.475 44.5059 193.823 44.5099C193.979 44.5131 194.104 44.516 194.202 44.518C194.289 44.522 194.334 44.5248 194.337 44.5276C194.34 44.5304 194.3 44.5332 194.219 44.536C194.125 44.538 194.005 44.5408 193.855 44.5441C193.514 44.5481 193.038 44.5537 192.43 44.5609C191.163 44.5693 189.349 44.5818 187.088 44.5974C182.502 44.6119 176.109 44.6324 168.802 44.6557L168.674 44.6561V44.5276C168.673 43.4344 168.673 42.318 168.672 41.183C168.672 40.6158 168.672 40.0433 168.672 39.4672C168.672 39.1793 168.672 38.8899 168.672 38.6V38.1641V37.9457V37.8365V37.7819V37.7546V37.7409V37.7341V37.7309V37.7293C168.932 37.4671 168.745 37.6566 168.804 37.598C179.235 37.6189 188.508 37.6373 194.338 37.6494H194.418L194.417 37.7289C194.398 39.8767 194.384 41.5801 194.373 42.7652C194.365 43.3296 194.359 43.7696 194.354 44.0856C194.351 44.2229 194.348 44.3329 194.346 44.4204C194.342 44.4939 194.34 44.5304 194.337 44.5276Z" fill="#E0E0E0"/>
<path d="M169.127 45.0152L168.97 44.8566L168.472 44.8582V44.3544L168.316 44.1978L168.472 44.1982L168.469 38.0607L168.32 38.0611L168.469 37.9106V37.658L168.528 37.5874C168.559 37.5553 168.589 37.5256 168.617 37.4991L168.659 37.4557L168.659 37.4561L168.736 37.4039C168.791 37.373 168.842 37.3682 168.895 37.3971H168.977L169.131 37.2421V37.3971L194.054 37.4469L194.052 37.2373L194.261 37.4473L194.619 37.4485L194.615 37.8038L194.818 38.0073L194.614 38.0077L194.545 44.4246C194.544 44.4335 194.544 44.4423 194.544 44.4507L194.571 44.478L194.523 44.6009C194.521 44.6045 194.52 44.6077 194.518 44.6113C194.511 44.6286 194.502 44.6442 194.491 44.6583C194.47 44.6836 194.445 44.7004 194.416 44.7113C194.414 44.7121 194.412 44.7129 194.41 44.7137L194.277 44.7663L194.25 44.735C194.241 44.735 194.233 44.7354 194.225 44.7358L192.431 44.7611L187.087 44.7976L169.127 44.855L169.127 45.0152ZM169.128 44.2006L186.999 44.2576L194.125 44.3175L194.1 42.7208L194.058 38.0097L169.131 38.0599L169.128 44.2006Z" fill="#121212"/>
<path d="M197.799 37.7281C197.796 37.7249 197.793 37.6811 197.79 37.5988C197.787 37.5013 197.784 37.3828 197.78 37.2383C197.774 36.9039 197.766 36.449 197.756 35.875C197.744 34.6826 197.727 32.9989 197.706 30.9286L197.799 31.0225C193.825 31.0321 188.417 31.045 182.458 31.0594C182.341 31.1763 182.615 30.9001 182.586 30.929V30.9306V30.9342V30.941V30.9551V30.9828V31.0386V31.1502V31.3734V31.8178C182.586 32.1133 182.586 32.4071 182.586 32.6998C182.586 33.2839 182.585 33.8616 182.585 34.4301C182.583 35.5674 182.582 36.6702 182.58 37.7269L182.457 37.6024C186.886 37.6261 190.699 37.647 193.432 37.6614C194.78 37.6759 195.86 37.6875 196.63 37.696C196.989 37.7024 197.275 37.7076 197.492 37.7116C197.689 37.7181 197.794 37.7229 197.799 37.7281C197.805 37.7333 197.709 37.7381 197.521 37.7433C197.31 37.7474 197.033 37.7526 196.685 37.759C195.923 37.7674 194.852 37.7791 193.516 37.7935C190.762 37.8084 186.92 37.8289 182.457 37.8525L182.333 37.8533L182.333 37.7281C182.331 36.6714 182.33 35.5686 182.328 34.4313C182.328 33.8624 182.327 33.2851 182.327 32.701C182.327 32.4087 182.327 32.1149 182.326 31.819V31.3746V31.1514V31.0398V30.984V30.9563V30.9422V30.9354V30.9318V30.9302C182.298 30.9579 182.573 30.6817 182.458 30.7985C188.417 30.8129 193.825 30.8258 197.799 30.8354H197.894L197.893 30.9294C197.872 33.0238 197.855 34.7268 197.843 35.9328C197.833 36.4976 197.825 36.9456 197.819 37.2748C197.812 37.5787 197.806 37.7345 197.799 37.7281Z" fill="#E0E0E0"/>
<path d="M182.778 38.2152L182.618 38.0534L182.13 38.0558L182.13 37.562L181.971 37.4011L182.13 37.4019L182.124 30.9986L181.976 30.9982L182.184 30.7878L182.183 30.787L182.236 30.7352C182.265 30.7039 182.299 30.6706 182.335 30.634L182.477 30.4927L182.482 30.4971L182.524 30.4558V30.5353L182.594 30.5979L197.5 30.6336L197.498 30.4365L197.694 30.634L198.094 30.6348L198.091 31.0339L198.278 31.2226L198.089 31.223L198.018 37.2782C198.014 37.4464 198.011 37.5665 198.006 37.6528L198.033 37.6797L197.992 37.7824C197.979 37.8507 197.957 37.8756 197.918 37.8952C197.902 37.9057 197.883 37.9137 197.859 37.9201L197.753 37.9619L197.726 37.937C197.672 37.9402 197.606 37.9422 197.524 37.9446L193.516 37.9948L182.778 38.0522V38.2152ZM182.78 37.4051L197.494 37.5127C197.526 37.5135 197.557 37.5143 197.585 37.5151L197.554 35.8791L197.506 31.225L182.785 31.2603L182.78 37.4051Z" fill="#121212"/>
<path d="M33.931 40.6178C33.9285 40.615 33.9257 40.5737 33.9229 40.4942C33.9209 40.4031 33.9181 40.2886 33.9145 40.1453C33.9097 39.8254 33.9033 39.3793 33.8952 38.8073C33.8852 37.6334 33.8699 35.9457 33.8515 33.8183L33.9306 33.8978C28.1002 33.9094 18.8272 33.9283 8.3961 33.9492C8.45351 33.891 8.26482 34.0801 8.52456 33.8183V33.8199V33.8231V33.83V33.8436V33.8709V33.9255V34.0347V34.2531V34.6891C8.52456 34.9793 8.52456 35.2684 8.52456 35.5562C8.52416 36.1327 8.52416 36.7048 8.52376 37.2721C8.52296 38.407 8.52256 39.5231 8.52176 40.6166L8.39449 40.4886C15.6661 40.5119 22.0289 40.5323 26.5923 40.5468C28.8653 40.5624 30.6896 40.5749 31.9634 40.5833C32.5833 40.5905 33.0686 40.5962 33.4159 40.6002C33.5721 40.6034 33.6973 40.6062 33.7957 40.6082C33.8828 40.6122 33.9281 40.615 33.931 40.6178C33.9338 40.6207 33.8936 40.6235 33.8129 40.6263C33.7186 40.6283 33.5985 40.6311 33.4488 40.6343C33.108 40.6383 32.6318 40.6439 32.0236 40.6512C30.7566 40.6596 28.9424 40.672 26.6818 40.6877C22.0959 40.7021 15.7023 40.7226 8.3953 40.7459L8.26803 40.7463V40.6178C8.26723 39.5247 8.26683 38.4082 8.26602 37.2733C8.26602 36.706 8.26562 36.1339 8.26562 35.5574C8.26562 35.2696 8.26562 34.9801 8.26562 34.6903V34.2543V34.0359V33.9263V33.8717V33.8444V33.8308V33.8239V33.8207V33.8191C8.52577 33.557 8.33869 33.7465 8.39731 33.6878C18.8284 33.7087 28.1014 33.7272 33.9318 33.7392H34.0116L34.0108 33.8187C33.992 35.9665 33.9775 37.6699 33.9671 38.855C33.9587 39.4195 33.9526 39.8595 33.9478 40.1754C33.9446 40.3127 33.9418 40.4227 33.9394 40.5102C33.9362 40.5841 33.9334 40.6207 33.931 40.6178Z" fill="#E0E0E0"/>
<path d="M210.892 141.483C210.889 141.48 210.887 141.439 210.884 141.359C210.882 141.268 210.879 141.154 210.875 141.011C210.871 140.691 210.864 140.245 210.856 139.672C210.846 138.499 210.831 136.811 210.812 134.684L210.891 134.763C205.061 134.775 195.788 134.794 185.357 134.814C185.414 134.756 185.226 134.945 185.486 134.684V134.685V134.688V134.695V134.709V134.736V134.791V134.9V135.119V135.555C185.486 135.845 185.486 136.134 185.486 136.422C185.485 136.998 185.485 137.57 185.485 138.138C185.484 139.273 185.483 140.389 185.483 141.482L185.355 141.354C192.627 141.377 198.989 141.398 203.553 141.412C205.826 141.428 207.65 141.44 208.924 141.449C209.544 141.456 210.03 141.462 210.377 141.466C210.533 141.469 210.658 141.472 210.757 141.474C210.844 141.478 210.889 141.481 210.892 141.483C210.895 141.486 210.855 141.489 210.774 141.492C210.68 141.494 210.559 141.496 210.41 141.5C210.069 141.504 209.593 141.509 208.985 141.516C207.718 141.525 205.903 141.537 203.643 141.553C199.057 141.567 192.663 141.588 185.356 141.611L185.229 141.612V141.483C185.228 140.39 185.228 139.273 185.227 138.139C185.227 137.571 185.227 136.999 185.227 136.423C185.227 136.135 185.227 135.845 185.227 135.556V135.12V134.901V134.792V134.737V134.71V134.696V134.689V134.686V134.684C185.487 134.422 185.3 134.612 185.358 134.553C195.789 134.574 205.062 134.592 210.893 134.604H210.973L210.972 134.684C210.953 136.832 210.938 138.535 210.928 139.72C210.92 140.285 210.914 140.725 210.909 141.041C210.906 141.178 210.903 141.288 210.9 141.375C210.897 141.449 210.895 141.486 210.892 141.483Z" fill="#E0E0E0"/>
<path d="M214.354 134.684C214.351 134.681 214.348 134.637 214.344 134.554C214.342 134.457 214.338 134.338 214.334 134.194C214.329 133.86 214.321 133.405 214.311 132.831C214.299 131.638 214.282 129.955 214.261 127.884L214.354 127.978C210.379 127.988 204.972 128.001 199.012 128.015C198.895 128.132 199.169 127.855 199.141 127.885V127.886V127.89V127.897V127.911V127.938V127.994V128.106V128.329V128.773C199.141 129.069 199.141 129.363 199.141 129.655C199.14 130.24 199.14 130.817 199.14 131.385C199.138 132.523 199.136 133.625 199.135 134.682L199.011 134.558C203.44 134.581 207.253 134.602 209.987 134.617C211.334 134.632 212.415 134.643 213.184 134.652C213.543 134.658 213.829 134.663 214.046 134.667C214.244 134.673 214.349 134.679 214.354 134.684C214.359 134.689 214.264 134.694 214.075 134.699C213.865 134.703 213.587 134.708 213.239 134.715C212.477 134.723 211.407 134.735 210.07 134.749C207.317 134.764 203.474 134.785 199.011 134.808L198.888 134.809L198.887 134.684C198.886 133.627 198.884 132.524 198.883 131.387C198.882 130.818 198.882 130.241 198.881 129.657C198.881 129.364 198.881 129.071 198.881 128.775V128.33V128.107V127.996V127.94V127.912V127.898V127.891V127.888V127.886C198.852 127.914 199.128 127.638 199.012 127.755C204.972 127.769 210.38 127.782 214.354 127.791H214.449L214.448 127.885C214.426 129.98 214.409 131.683 214.397 132.889C214.388 133.454 214.38 133.902 214.374 134.231C214.367 134.534 214.36 134.69 214.354 134.684Z" fill="#E0E0E0"/>
<path d="M167.92 179.797C167.185 178.812 167.059 177.475 167.654 176.4C168.483 174.903 170.423 173.09 174.957 172.513C183.116 171.473 186.236 172.433 192.154 176.592C198.073 180.751 204.952 189.709 193.594 191.629C182.64 193.481 175.852 190.422 167.92 179.797Z" fill="#455A64"/>
<g opacity="0.3">
<path d="M167.326 177.332C167.326 177.332 171.886 178.418 175.81 182.131C179.734 185.845 182.405 191.409 182.405 191.409C182.405 191.409 175.239 191.837 170.816 187.771C166.393 183.704 167.326 177.332 167.326 177.332Z" fill="black"/>
</g>
<path d="M174.33 172.723C175.703 172.791 176.939 173.524 178.204 174.063C178.52 174.197 178.877 174.321 179.198 174.201C179.667 174.024 179.72 173.677 179.506 173.225C179.291 172.773 178.603 172.35 178.135 172.174C176.486 171.555 174.84 171.478 173.869 172.126C173.676 172.254 173.24 172.665 173.282 172.893L174.33 172.723Z" fill="#333333"/>
<path d="M3.64062 48.1699V135.361H150.403V48.3903L3.64062 48.1699Z" fill="#333333"/>
<path d="M83.4256 131.208C83.8724 132.138 84.1229 133.18 84.1229 134.281C84.1229 138.203 80.9433 141.383 77.0211 141.383C73.0988 141.383 69.9193 138.203 69.9193 134.281C69.9193 133.18 70.1698 132.138 70.6166 131.208H66.2969V158.352H87.7453V131.208H83.4256Z" fill="#333333"/>
<path d="M150.403 130.524H3.64062V135.999H150.403V130.524Z" fill="#333333"/>
<path d="M149.071 49.709H4.97266V130.523H149.071V49.709Z" fill="#35586E"/>
<path d="M105.54 156.606H48.502V160.927H105.54V156.606Z" fill="#333333"/>
<g opacity="0.1">
<path d="M101.028 49.709L23.3242 130.523H47.3825L125.756 49.709H101.028Z" fill="white"/>
</g>
<g opacity="0.1">
<path d="M5.65625 50.2964L5.96578 103.227L57.5385 50.0479L5.65625 50.2964Z" fill="white"/>
</g>
<g opacity="0.1">
<path d="M131.396 49.709L53.6914 130.523H63.1582L141.531 49.709H131.396Z" fill="white"/>
</g>
<g opacity="0.1">
<path d="M60.9076 49.709L5.65625 107.172V117.133L71.0428 49.709H60.9076Z" fill="white"/>
</g>
<g opacity="0.1">
<path d="M149.072 76.0918C149.072 76.6579 94.9082 130.255 94.9082 130.255H117.554L148.793 99.016L149.072 76.0918Z" fill="white"/>
</g>
<path d="M7.84266 127.866C7.78485 127.866 7.73828 111.264 7.73828 90.7875C7.73828 70.3046 7.78525 53.7051 7.84266 53.7051C7.90047 53.7051 7.94704 70.3042 7.94704 90.7875C7.94744 111.264 7.90047 127.866 7.84266 127.866Z" fill="white"/>
<path d="M88.7236 136.027C88.7236 136.085 83.6086 136.132 77.3009 136.132C70.9907 136.132 65.877 136.085 65.877 136.027C65.877 135.969 70.9907 135.923 77.3009 135.923C83.6086 135.923 88.7236 135.969 88.7236 136.027Z" fill="#455A64"/>
<path d="M105.264 156.586C105.264 156.644 92.5248 156.69 76.8132 156.69C61.0961 156.69 48.3594 156.644 48.3594 156.586C48.3594 156.528 61.0965 156.481 76.8132 156.481C92.5248 156.481 105.264 156.528 105.264 156.586Z" fill="#455A64"/>
<path d="M200.328 159.401H159.216C156.378 159.401 154.078 157.101 154.078 154.264V54.8474C154.078 52.0099 156.378 49.71 159.216 49.71H200.328C203.165 49.71 205.465 52.0099 205.465 54.8474V154.264C205.465 157.101 203.165 159.401 200.328 159.401Z" fill="#333333"/>
<path d="M201.85 57.3633H157.207V67.7992H201.85V57.3633Z" fill="#455A64"/>
<path d="M195.705 160.868H194.746C194.273 160.868 193.891 160.485 193.891 160.013V159.88C193.891 159.407 194.274 159.024 194.746 159.024H195.705C196.177 159.024 196.56 159.407 196.56 159.88V160.013C196.56 160.485 196.177 160.868 195.705 160.868Z" fill="#333333"/>
<path d="M164.89 160.868H163.931C163.459 160.868 163.076 160.485 163.076 160.013V159.88C163.076 159.407 163.459 159.024 163.931 159.024H164.89C165.363 159.024 165.745 159.407 165.745 159.88V160.013C165.745 160.485 165.362 160.868 164.89 160.868Z" fill="#333333"/>
<path d="M200.611 54.7164C200.61 54.7096 200.691 54.7144 200.842 54.6787C200.987 54.6401 201.215 54.5526 201.401 54.3153C201.491 54.1981 201.571 54.0464 201.601 53.8657C201.622 53.6883 201.633 53.4743 201.581 53.2683C201.486 52.8452 201.019 52.4554 200.439 52.5268C198.125 52.5349 194.79 52.5461 190.672 52.5602C182.418 52.5682 171.027 52.579 158.447 52.5907C158.09 52.5867 157.748 52.8071 157.602 53.129C157.523 53.2936 157.51 53.4546 157.515 53.6561C157.513 53.8364 157.555 54.0094 157.647 54.1592C157.829 54.4643 158.172 54.6401 158.539 54.6124C158.925 54.6124 159.309 54.6124 159.692 54.6128C161.225 54.6132 162.735 54.614 164.218 54.6144C167.186 54.6164 170.048 54.6184 172.774 54.6205C178.226 54.6289 183.136 54.6365 187.262 54.6429C191.38 54.657 194.715 54.6682 197.029 54.6763C198.176 54.6847 199.069 54.6915 199.684 54.6959C199.982 54.7003 200.211 54.704 200.375 54.7064C200.531 54.7092 200.611 54.7164 200.611 54.7164C200.611 54.7164 200.531 54.7236 200.375 54.7272C200.212 54.7296 199.983 54.7333 199.685 54.7377C199.07 54.7421 198.176 54.7489 197.03 54.7574C194.716 54.7654 191.381 54.7766 187.263 54.7907C183.136 54.7971 178.226 54.8047 172.775 54.8132C170.048 54.8152 167.186 54.8172 164.219 54.8192C162.735 54.8196 161.225 54.8204 159.693 54.8208C159.31 54.8208 158.926 54.8208 158.54 54.8212C158.133 54.8553 157.681 54.6397 157.469 54.2668C157.356 54.0857 157.304 53.8649 157.306 53.6565C157.299 53.4707 157.316 53.2302 157.413 53.0411C157.591 52.6469 158.011 52.3767 158.447 52.3819C171.028 52.394 182.418 52.4048 190.672 52.4124C194.79 52.4265 198.125 52.4377 200.439 52.4457C200.725 52.4289 201.025 52.4887 201.235 52.6529C201.45 52.8087 201.587 53.0315 201.641 53.2531C201.693 53.4787 201.677 53.685 201.653 53.8757C201.617 54.0652 201.531 54.2222 201.434 54.3422C201.235 54.5847 200.996 54.6678 200.846 54.7003C200.691 54.7292 200.611 54.7164 200.611 54.7164Z" fill="#455A64"/>
<path d="M181.513 76.6484C181.513 77.6099 180.734 78.3895 179.772 78.3895C178.811 78.3895 178.031 77.6099 178.031 76.6484C178.031 75.6869 178.811 74.9072 179.772 74.9072C180.734 74.9072 181.513 75.6869 181.513 76.6484Z" fill="#A5E1D3"/>
<path d="M163.071 159.181C163.28 159.181 163.469 159.265 163.608 159.401H163.997C163.809 159.083 163.467 158.867 163.071 158.867H163.069C162.928 158.972 162.787 159.078 162.648 159.181H163.071Z" fill="#333333"/>
<path d="M162.248 158.868C161.853 158.868 161.51 159.084 161.322 159.402H161.712C161.85 159.266 162.039 159.182 162.248 159.182H162.448C162.584 159.079 162.726 158.973 162.865 158.868H162.248Z" fill="#333333"/>
<path d="M179.721 115.008C165.533 125.623 154.051 134.261 154.078 134.297C154.105 134.333 165.631 125.754 179.819 115.138C194.012 104.519 205.492 95.8833 205.465 95.8468C205.438 95.8111 193.914 104.388 179.721 115.008Z" fill="#455A64"/>
<path d="M179.721 117.847C165.533 128.463 154.051 137.1 154.078 137.136C154.105 137.172 165.631 128.593 179.819 117.977C194.012 107.358 205.492 98.7222 205.465 98.6857C205.438 98.6499 193.914 107.227 179.721 117.847Z" fill="#455A64"/>
<path d="M179.721 120.685C165.533 131.301 154.051 139.938 154.078 139.974C154.105 140.01 165.631 131.431 179.819 120.815C194.012 110.196 205.492 101.56 205.465 101.524C205.438 101.488 193.914 110.065 179.721 120.685Z" fill="#455A64"/>
<path d="M179.721 123.523C165.533 134.14 154.051 142.777 154.078 142.813C154.105 142.849 165.631 134.27 179.819 123.654C194.012 113.034 205.492 104.399 205.465 104.362C205.438 104.327 193.914 112.904 179.721 123.523Z" fill="#455A64"/>
<path d="M179.721 126.361C165.533 136.977 154.051 145.614 154.078 145.65C154.105 145.686 165.631 137.107 179.819 126.492C194.012 115.872 205.492 107.237 205.465 107.2C205.438 107.165 193.914 115.741 179.721 126.361Z" fill="#455A64"/>
<path d="M179.721 129.2C165.533 139.816 154.051 148.453 154.078 148.489C154.105 148.525 165.631 139.946 179.819 129.33C194.012 118.711 205.492 110.076 205.465 110.039C205.438 110.003 193.914 118.58 179.721 129.2Z" fill="#455A64"/>
<path d="M179.721 132.038C165.533 142.654 154.051 151.291 154.078 151.327C154.105 151.363 165.631 142.784 179.819 132.168C194.012 121.549 205.492 112.914 205.465 112.877C205.438 112.841 193.914 121.418 179.721 132.038Z" fill="#455A64"/>
<path d="M179.721 134.876C165.533 145.492 154.051 154.129 154.078 154.165C154.105 154.201 165.631 145.623 179.819 135.006C194.012 124.387 205.492 115.752 205.465 115.715C205.438 115.68 193.914 124.257 179.721 134.876Z" fill="#455A64"/>
<path d="M179.721 137.714C166.78 147.398 156.094 155.431 154.336 156.796C154.339 156.804 154.342 156.811 154.344 156.819C156.131 155.531 166.862 147.54 179.819 137.845C194.012 127.226 205.492 118.59 205.465 118.554C205.437 118.518 193.914 127.095 179.721 137.714Z" fill="#455A64"/>
<path d="M179.722 140.552C168.706 148.795 159.324 155.843 155.691 158.599C155.707 158.611 155.723 158.623 155.739 158.635C159.418 155.921 168.817 148.916 179.82 140.683C194.013 130.064 205.493 121.428 205.466 121.392C205.439 121.356 193.915 129.933 179.722 140.552Z" fill="#455A64"/>
<path d="M179.722 143.391C170.818 150.053 162.981 155.935 158.385 159.402H158.537C163.173 155.96 170.979 150.137 179.819 143.522C194.012 132.903 205.492 124.267 205.465 124.231C205.438 124.195 193.915 132.772 179.722 143.391Z" fill="#455A64"/>
<path d="M179.722 146.229C173.264 151.061 167.371 155.48 162.864 158.868C162.726 158.972 162.583 159.079 162.447 159.181C162.347 159.256 162.253 159.328 162.154 159.402H162.353C162.452 159.329 162.55 159.256 162.649 159.181C162.787 159.078 162.929 158.972 163.07 158.868C167.574 155.513 173.424 151.145 179.819 146.36C194.012 135.74 205.492 127.105 205.465 127.068C205.438 127.033 193.915 135.61 179.722 146.229Z" fill="#455A64"/>
<path d="M179.721 149.068C174.642 152.868 169.914 156.412 165.932 159.402H166.162C170.122 156.448 174.803 152.952 179.819 149.199C194.012 138.579 205.492 129.944 205.465 129.907C205.438 129.871 193.914 138.448 179.721 149.068Z" fill="#455A64"/>
<path d="M179.722 151.907C176.17 154.564 172.789 157.097 169.715 159.402H169.966C173.002 157.136 176.33 154.649 179.82 152.038C194.012 141.418 205.492 132.783 205.465 132.746C205.438 132.71 193.914 141.287 179.722 151.907Z" fill="#455A64"/>
<path d="M179.722 154.745C177.576 156.35 175.494 157.91 173.502 159.402H173.767C175.709 157.951 177.735 156.436 179.82 154.875C194.013 144.256 205.492 135.621 205.465 135.584C205.439 135.548 193.915 144.125 179.722 154.745Z" fill="#455A64"/>
<path d="M179.721 157.583C178.901 158.196 178.092 158.802 177.291 159.401H177.562C178.307 158.845 179.058 158.283 179.819 157.713C194.012 147.094 205.492 138.459 205.465 138.422C205.438 138.386 193.914 146.963 179.721 157.583Z" fill="#455A64"/>
<path d="M181.086 159.402H181.358C194.833 149.317 205.493 141.296 205.467 141.261C205.44 141.226 194.646 149.259 181.086 159.402Z" fill="#455A64"/>
<path d="M184.881 159.401H185.148C196.777 150.69 205.489 144.13 205.466 144.099C205.442 144.067 196.605 150.638 184.881 159.401Z" fill="#455A64"/>
<path d="M188.68 159.402H188.935C198.617 152.143 205.486 146.966 205.466 146.938C205.444 146.91 198.462 152.096 188.68 159.402Z" fill="#455A64"/>
<path d="M192.482 159.402H192.718C200.356 153.669 205.483 149.8 205.466 149.776C205.447 149.752 200.221 153.629 192.482 159.402Z" fill="#455A64"/>
<path d="M196.289 159.402H196.497C201.997 155.268 205.479 152.634 205.464 152.614C205.45 152.594 201.885 155.234 196.289 159.402Z" fill="#455A64"/>
<path d="M205.463 155.455V155.454C205.426 155.459 203.431 156.93 200.105 159.401H200.271C203.513 156.958 205.443 155.493 205.463 155.455Z" fill="#455A64"/>
<path d="M161.826 59.3486H159.281V60.9581H161.826V59.3486Z" fill="#333333"/>
<path d="M167.121 59.3486H162.91V61.0328H167.121V59.3486Z" fill="#333333"/>
<path d="M172.679 59.3486H168.469V61.0328H172.679V59.3486Z" fill="#333333"/>
<path d="M199.742 59.3486H195.531V61.0328H199.742V59.3486Z" fill="#333333"/>
<path d="M176.367 60.1913C176.367 60.6615 175.986 61.0428 175.516 61.0428C175.045 61.0428 174.664 60.6615 174.664 60.1913C174.664 59.7212 175.045 59.3398 175.516 59.3398C175.986 59.3398 176.367 59.7208 176.367 60.1913Z" fill="#333333"/>
<path d="M179.265 60.1913C179.265 60.6615 178.884 61.0428 178.414 61.0428C177.944 61.0428 177.562 60.6615 177.562 60.1913C177.562 59.7212 177.944 59.3398 178.414 59.3398C178.884 59.3398 179.265 59.7208 179.265 60.1913Z" fill="#333333"/>
<path d="M180.936 78.7304C180.941 78.7416 180.862 78.7994 180.701 78.8729C180.542 78.9463 180.298 79.0315 179.983 79.0792C179.669 79.1234 179.281 79.1262 178.869 79.0142C178.457 78.9058 178.033 78.6649 177.696 78.3036C177.36 77.9411 177.151 77.4935 177.101 77.0647C177.049 76.6359 177.137 76.2477 177.267 75.9555C177.401 75.662 177.573 75.4609 177.707 75.3444C177.841 75.2272 177.932 75.1867 177.938 75.1955C177.968 75.224 177.622 75.4452 177.404 76.0121C177.3 76.2911 177.234 76.6516 177.292 77.039C177.346 77.4252 177.541 77.8291 177.849 78.1615C178.159 78.4931 178.544 78.7191 178.922 78.8291C179.301 78.9431 179.665 78.9564 179.966 78.9327C180.572 78.8761 180.922 78.6946 180.936 78.7304Z" fill="white"/>
<path d="M154.683 193.529H13.6144C13.1222 193.529 12.7211 193.133 12.7147 192.641L12.6914 190.875L155.777 190.613V192.435C155.777 193.039 155.288 193.529 154.683 193.529Z" fill="#333333"/>
<g opacity="0.3">
<path d="M154.683 193.529H13.6144C13.1222 193.529 12.7211 193.133 12.7147 192.641L12.6914 190.875L155.777 190.613V192.435C155.777 193.039 155.288 193.529 154.683 193.529Z" fill="black"/>
</g>
<path d="M148.495 169.74H18.9314C18.4304 169.74 17.9932 170.079 17.8687 170.565L12.7264 190.613C12.5482 191.307 13.0729 191.983 13.7899 191.983L154.68 191.892C155.418 191.892 155.946 191.176 155.727 190.47L149.543 170.513C149.401 170.053 148.975 169.74 148.495 169.74Z" fill="#333333"/>
<path d="M112.216 174.034C112.279 174.743 112.342 175.452 112.405 176.161C114.326 176.161 116.245 176.161 118.166 176.161C118.162 176.114 118.157 176.068 118.153 176.021C118.09 175.315 118.027 174.609 117.965 173.903C116.045 173.903 114.125 173.903 112.205 173.903C112.209 173.947 112.212 173.991 112.216 174.034Z" fill="#455A64"/>
<path d="M81.2394 179.837C78.1285 179.837 75.0176 179.837 71.9062 179.837L71.9833 182.515C75.2058 182.515 78.428 182.515 81.6501 182.515L81.2394 179.837Z" fill="#455A64"/>
<path d="M107.122 176.776C104.08 176.776 101.038 176.776 97.9961 176.776L98.2799 179.221C101.296 179.221 104.313 179.221 107.329 179.221L107.122 176.776Z" fill="#455A64"/>
<path d="M91.7164 179.837C88.4309 179.837 85.1449 179.837 81.8594 179.837L82.2705 182.515C85.5881 182.515 88.9054 182.515 92.2231 182.515L91.7164 179.837Z" fill="#455A64"/>
<path d="M116.669 176.776C113.691 176.776 110.714 176.776 107.736 176.776L107.943 179.221C110.956 179.221 113.968 179.221 116.98 179.221L116.669 176.776Z" fill="#455A64"/>
<path d="M145.748 176.776C142.679 176.776 139.611 176.776 136.543 176.776L136.797 179.221C139.906 179.221 143.014 179.221 146.122 179.221L145.748 176.776Z" fill="#455A64"/>
<path d="M131.344 174.034C131.407 174.743 131.47 175.452 131.533 176.161C133.453 176.161 135.373 176.161 137.293 176.161C137.289 176.114 137.284 176.068 137.28 176.021C137.218 175.315 137.155 174.609 137.092 173.903C135.172 173.903 133.252 173.903 131.332 173.903C131.336 173.947 131.34 173.991 131.344 174.034Z" fill="#455A64"/>
<path d="M134.684 179.837H129.909C129.812 179.837 129.738 179.924 129.754 180.019L130.135 182.383C130.147 182.459 130.213 182.515 130.29 182.515H135.065C135.162 182.515 135.236 182.428 135.22 182.332L134.839 179.969C134.827 179.893 134.761 179.837 134.684 179.837Z" fill="#455A64"/>
<path d="M135.929 176.776C132.948 176.776 129.967 176.776 126.986 176.776L127.24 179.221C130.221 179.221 133.202 179.221 136.183 179.221L135.929 176.776Z" fill="#455A64"/>
<path d="M149.483 176.776C148.444 176.776 147.406 176.776 146.367 176.776L146.742 179.221C147.893 179.221 149.045 179.221 150.196 179.221L149.483 176.776Z" fill="#455A64"/>
<path d="M126.37 176.776H117.283L117.594 179.221C120.604 179.221 123.615 179.221 126.624 179.221L126.37 176.776Z" fill="#455A64"/>
<path d="M87.904 176.776C84.9697 176.776 82.0358 176.776 79.1016 176.776L79.3284 179.221C82.2936 179.221 85.2587 179.221 88.2239 179.221L87.904 176.776Z" fill="#455A64"/>
<path d="M78.4854 176.776C75.6383 176.776 72.7915 176.776 69.9443 176.776L69.8066 179.221C72.7754 179.221 75.7438 179.221 78.7122 179.221L78.4854 176.776Z" fill="#455A64"/>
<path d="M71.2906 179.837C68.4531 179.837 65.6156 179.837 62.7781 179.837L62.6504 182.515C65.5562 182.515 68.4619 182.515 71.3677 182.515L71.2906 179.837Z" fill="#455A64"/>
<path d="M124.969 174.034C125.032 174.743 125.095 175.452 125.158 176.161C127.078 176.161 128.998 176.161 130.918 176.161C130.914 176.114 130.909 176.068 130.905 176.021C130.843 175.315 130.78 174.609 130.717 173.903C128.797 173.903 126.877 173.903 124.957 173.903C124.961 173.947 124.965 173.991 124.969 174.034Z" fill="#455A64"/>
<path d="M97.3789 176.776C94.4258 176.776 91.4727 176.776 88.5195 176.776L88.8395 179.221H97.6628L97.3789 176.776Z" fill="#455A64"/>
<path d="M62.5239 176.776C61.7872 176.776 61.0501 176.776 60.3134 176.776L60.0039 179.221C63.0666 179.221 66.1294 179.221 69.1921 179.221L69.3298 176.776C67.0612 176.776 64.7925 176.776 62.5239 176.776Z" fill="#455A64"/>
<path d="M43.1295 179.837L42.6895 182.514C45.9007 182.514 49.112 182.514 52.3233 182.514L52.6862 179.837C49.5006 179.837 46.315 179.837 43.1295 179.837Z" fill="#455A64"/>
<path d="M50.9866 176.776C50.9878 176.804 50.9898 176.833 50.9854 176.861C50.9677 176.97 50.9501 177.078 50.9324 177.186C50.8212 177.864 50.7104 178.543 50.5996 179.221C53.5291 179.221 56.4589 179.221 59.3888 179.221L59.6983 176.776C56.7941 176.776 53.8904 176.776 50.9866 176.776Z" fill="#455A64"/>
<path d="M53.2516 179.837L52.8887 182.514C55.9209 182.514 58.9531 182.514 61.9853 182.514L62.113 179.837C59.1591 179.837 56.2051 179.837 53.2516 179.837Z" fill="#455A64"/>
<path d="M41.5262 176.776L41.3066 179.221C44.1976 179.221 47.0885 179.221 49.9794 179.221L50.3792 176.776C47.4281 176.776 44.477 176.776 41.5262 176.776Z" fill="#455A64"/>
<path d="M96.6794 183.13H85.4116C85.2157 183.13 85.0627 183.3 85.084 183.495L85.361 186.065C85.3791 186.232 85.5204 186.359 85.689 186.359H96.9568C97.1527 186.359 97.3056 186.189 97.2848 185.994L97.0078 183.424C96.9893 183.257 96.848 183.13 96.6794 183.13Z" fill="#455A64"/>
<path d="M133.989 171.089C134.028 171.822 134.067 172.555 134.105 173.288C136.887 173.288 139.669 173.288 142.451 173.288C142.451 173.27 142.449 173.253 142.449 173.235C142.406 172.418 142.362 171.601 142.319 170.784L133.973 170.776C133.978 170.88 133.984 170.984 133.989 171.089Z" fill="#455A64"/>
<path d="M28.6891 171.271C28.5727 171.944 28.4563 172.616 28.3398 173.289C31.4194 173.289 34.4994 173.289 37.579 173.289C37.6389 173.289 37.6983 173.289 37.7581 173.289C37.7597 173.268 37.7613 173.247 37.7633 173.226C37.8324 172.376 37.901 171.527 37.9701 170.677L28.6979 170.667C28.7457 170.74 28.7654 170.831 28.7493 170.923C28.7293 171.04 28.7092 171.155 28.6891 171.271Z" fill="#455A64"/>
<path d="M150.374 179.837C147.317 179.837 144.26 179.837 141.203 179.837L141.638 182.515H151.157L150.374 179.837Z" fill="#455A64"/>
<path d="M139.264 183.13H133.532C133.383 183.13 133.267 183.26 133.285 183.408L133.611 186.14C133.626 186.265 133.732 186.359 133.858 186.359H139.59C139.738 186.359 139.854 186.229 139.836 186.081L139.51 183.349C139.495 183.224 139.389 183.13 139.264 183.13Z" fill="#455A64"/>
<path d="M132.481 183.13H124.671C124.522 183.13 124.406 183.26 124.424 183.408L124.75 186.14C124.764 186.265 124.87 186.359 124.997 186.359H132.807C132.955 186.359 133.071 186.229 133.053 186.081L132.727 183.349C132.713 183.224 132.607 183.13 132.481 183.13Z" fill="#455A64"/>
<path d="M126.421 186.975H119.289C119.175 186.975 119.086 187.071 119.094 187.184L119.303 189.929C119.311 190.031 119.396 190.109 119.498 190.109H126.663C126.777 190.109 126.867 190.011 126.857 189.897L126.614 187.152C126.606 187.052 126.521 186.975 126.421 186.975Z" fill="#455A64"/>
<path d="M145.724 186.974H137.896C137.683 186.974 137.518 187.158 137.539 187.369L137.783 189.786C137.802 189.969 137.956 190.109 138.14 190.109H145.914C146.123 190.109 146.288 189.93 146.271 189.722L146.081 187.304C146.066 187.118 145.911 186.974 145.724 186.974Z" fill="#455A64"/>
<path d="M111.018 179.837H102.983C102.83 179.837 102.713 179.974 102.738 180.125L103.092 182.306C103.111 182.426 103.215 182.515 103.337 182.515H111.372C111.525 182.515 111.642 182.377 111.618 182.226L111.263 180.046C111.244 179.925 111.14 179.837 111.018 179.837Z" fill="#455A64"/>
<path d="M103.86 187.347C103.835 187.134 103.654 186.975 103.44 186.975H70.7065H56.8172C56.5743 186.975 56.3816 187.179 56.3952 187.421L56.5229 189.71C56.5353 189.934 56.7208 190.11 56.9452 190.11H103.714C103.967 190.11 104.164 189.888 104.134 189.637L103.86 187.347Z" fill="#455A64"/>
<path d="M114.988 183.13H106.809C106.661 183.13 106.546 183.258 106.562 183.405L106.856 186.137C106.87 186.263 106.976 186.359 107.103 186.359H115.314C115.463 186.359 115.579 186.229 115.561 186.081L115.235 183.349C115.22 183.224 115.114 183.13 114.988 183.13Z" fill="#455A64"/>
<path d="M40.8886 176.776C39.5292 176.776 33.2849 176.776 32.0934 176.776C31.9705 176.776 31.8694 176.861 31.8485 176.982C31.7409 177.603 31.6205 178.3 31.5117 178.927C31.4848 179.083 31.602 179.221 31.7594 179.221C33.3367 179.221 40.6228 179.221 40.6228 179.221L40.8886 176.776Z" fill="#455A64"/>
<path d="M53.4137 174.034C53.3499 174.743 53.2865 175.452 53.2227 176.161C55.195 176.161 57.1674 176.161 59.1398 176.161C59.1438 176.114 59.1482 176.068 59.1522 176.021C59.2156 175.315 59.2791 174.609 59.3425 173.903C57.3701 173.903 55.3978 173.903 53.4254 173.903C53.4214 173.947 53.4174 173.991 53.4137 174.034Z" fill="#455A64"/>
<path d="M46.8825 174.034C46.8187 174.743 46.7552 175.452 46.6914 176.161C48.6638 176.161 50.6362 176.161 52.6085 176.161C52.6125 176.114 52.617 176.068 52.621 176.021C52.6844 175.315 52.7478 174.609 52.8113 173.903C50.8389 173.903 48.8665 173.903 46.8941 173.903C46.8905 173.947 46.8865 173.991 46.8825 174.034Z" fill="#455A64"/>
<path d="M37.5805 176.161C40.4124 176.161 43.2439 176.161 46.0754 176.161C46.0794 176.114 46.0838 176.068 46.0878 176.021C46.1513 175.315 46.2147 174.609 46.2781 173.903C43.1519 173.903 40.0258 173.903 36.9 173.903C36.8972 173.933 36.8948 173.963 36.892 173.992C36.8269 174.715 36.7623 175.438 36.6973 176.161C36.9915 176.161 37.2858 176.161 37.5805 176.161Z" fill="#455A64"/>
<path d="M73.0114 174.034C72.9476 174.743 72.8841 175.452 72.8203 176.161C74.8995 176.161 76.979 176.161 79.0582 176.161C79.0562 176.114 79.0542 176.068 79.0526 176.021C79.0241 175.315 78.9952 174.609 78.9667 173.903C76.9855 173.903 75.0043 173.903 73.0231 173.903C73.019 173.947 73.015 173.991 73.0114 174.034Z" fill="#455A64"/>
<path d="M79.5873 174.034C79.6162 174.743 79.6447 175.452 79.6736 176.161C81.7166 176.161 83.7596 176.161 85.8031 176.161C85.7974 176.116 85.7914 176.07 85.7858 176.025C85.6963 175.318 85.6067 174.61 85.5168 173.903C83.5384 173.903 81.5604 173.903 79.582 173.903C79.584 173.947 79.5856 173.991 79.5873 174.034Z" fill="#455A64"/>
<path d="M47.741 183.571L47.3729 185.741C47.3179 186.064 47.5672 186.359 47.8948 186.359H55.7449C56.0295 186.359 56.2632 186.133 56.274 185.849L56.3559 183.679C56.3672 183.379 56.1271 183.129 55.8268 183.129H48.2629C48.0048 183.13 47.7844 183.316 47.741 183.571Z" fill="#455A64"/>
<path d="M92.6909 173.953C92.8278 174.689 92.9643 175.425 93.1012 176.161C93.4468 176.161 93.7925 176.161 94.1381 176.161C95.6898 176.161 97.2414 176.161 98.7931 176.161C98.7886 176.114 98.7842 176.068 98.7794 176.021C98.7116 175.315 98.6441 174.609 98.5763 173.903C96.6115 173.903 94.6464 173.903 92.6816 173.903C92.6849 173.92 92.6881 173.936 92.6909 173.953Z" fill="#455A64"/>
<path d="M36.6536 183.404L36.2176 185.975C36.1835 186.176 36.3385 186.36 36.5428 186.36H46.3689C46.5299 186.36 46.6672 186.244 46.6941 186.085L47.1301 183.515C47.1642 183.314 47.0093 183.13 46.8049 183.13H36.9788C36.8178 183.13 36.6805 183.246 36.6536 183.404Z" fill="#455A64"/>
<path d="M118.58 173.904C118.584 173.947 118.588 173.991 118.592 174.034C118.655 174.743 118.718 175.452 118.781 176.161C120.701 176.161 122.621 176.161 124.541 176.161C124.537 176.114 124.533 176.068 124.529 176.021C124.466 175.315 124.403 174.609 124.34 173.903C122.587 173.903 120.835 173.903 119.082 173.903C118.914 173.904 118.747 173.904 118.58 173.904Z" fill="#455A64"/>
<path d="M31.1279 176.776H18.0511C17.9716 176.776 17.9026 176.831 17.8849 176.909L17.4048 179.013C17.3803 179.119 17.4614 179.221 17.571 179.221H30.9155C30.9163 179.203 30.9135 179.186 30.9167 179.168C30.9368 179.052 30.9569 178.937 30.9769 178.821C31.0833 178.206 31.1897 177.591 31.2965 176.975C31.3138 176.872 31.2335 176.776 31.1279 176.776Z" fill="#455A64"/>
<path d="M120.392 179.871C120.39 179.86 120.392 179.849 120.391 179.837H111.848L112.282 182.515C115.129 182.515 117.975 182.515 120.821 182.515C120.678 181.633 120.535 180.752 120.392 179.871Z" fill="#455A64"/>
<path d="M24.7238 187.186L24.2043 189.798C24.1722 189.96 24.2959 190.11 24.4609 190.11H33.0846C33.2103 190.11 33.3183 190.021 33.3415 189.897L33.8345 187.286C33.8651 187.125 33.7414 186.976 33.5776 186.976H24.9799C24.8555 186.975 24.7479 187.064 24.7238 187.186Z" fill="#455A64"/>
<path d="M34.4884 187.253L33.9802 189.688C33.9348 189.905 34.1006 190.109 34.3226 190.109H42.9375C43.1126 190.109 43.2611 189.98 43.284 189.806L43.6096 187.371C43.6377 187.161 43.4747 186.974 43.2631 186.974H34.8305C34.6651 186.974 34.5221 187.091 34.4884 187.253Z" fill="#455A64"/>
<path d="M44.2439 187.243L43.9244 189.766C43.9011 189.948 44.0436 190.11 44.2279 190.11H48.9298C49.0876 190.11 49.2192 189.991 49.2345 189.834L49.477 187.311C49.4942 187.131 49.3529 186.976 49.1723 186.976H44.547C44.3937 186.975 44.2636 187.09 44.2439 187.243Z" fill="#455A64"/>
<path d="M24.4652 183.353L23.7831 185.986C23.7342 186.175 23.8767 186.359 24.0718 186.359H35.2785C35.4239 186.359 35.5479 186.254 35.572 186.111C35.7149 185.269 35.8591 184.427 36.0566 183.585C36.108 183.262 35.9502 183.13 35.7005 183.13H24.7535C24.6182 183.13 24.4994 183.222 24.4652 183.353Z" fill="#455A64"/>
<path d="M55.3313 186.975H50.6823C50.4358 186.975 50.2299 187.162 50.2054 187.407L49.9906 189.583C49.9629 189.865 50.1841 190.109 50.4676 190.109H55.361C55.6283 190.109 55.8439 189.891 55.8399 189.623L55.8102 187.447C55.807 187.185 55.5934 186.975 55.3313 186.975Z" fill="#455A64"/>
<path d="M105.695 183.13H97.8695C97.7217 183.13 97.6065 183.258 97.6226 183.405L97.9169 186.137C97.9305 186.263 98.0369 186.359 98.1638 186.359H105.989C106.137 186.359 106.252 186.231 106.236 186.084L105.942 183.352C105.928 183.225 105.822 183.13 105.695 183.13Z" fill="#455A64"/>
<path d="M27.4965 173.903C27.4857 173.965 27.4752 174.026 27.4644 174.088C27.3447 174.779 27.2251 175.47 27.1055 176.161C30.0975 176.161 33.0892 176.161 36.0813 176.161C36.0869 176.101 36.0921 176.04 36.0978 175.98C36.16 175.288 36.2222 174.596 36.284 173.904C33.355 173.903 30.4259 173.903 27.4965 173.903Z" fill="#455A64"/>
<path d="M16.4116 183.354L15.8062 186.005C15.7649 186.186 15.9026 186.359 16.088 186.359H22.8273C22.959 186.359 23.0742 186.27 23.1072 186.142L23.7937 183.491C23.841 183.308 23.7029 183.129 23.5138 183.129H16.6934C16.5585 183.129 16.4417 183.222 16.4116 183.354Z" fill="#455A64"/>
<path d="M47.8878 171.035C47.8119 171.786 47.736 172.537 47.6602 173.288C50.5133 173.288 53.3661 173.288 56.2193 173.288C56.2253 173.228 56.2313 173.168 56.2373 173.109C56.3184 172.304 56.3999 171.499 56.481 170.695L47.9231 170.687C47.9111 170.803 47.8994 170.919 47.8878 171.035Z" fill="#455A64"/>
<path d="M18.1749 176.161H26.4008C26.4365 176.131 26.4602 176.111 26.4959 176.081C26.6152 175.393 26.734 174.705 26.8532 174.017C26.8633 173.958 26.8179 173.903 26.7581 173.903H18.6462C18.6012 173.903 18.5619 173.935 18.5518 173.978L18.0805 176.043C18.0669 176.103 18.113 176.161 18.1749 176.161Z" fill="#455A64"/>
<path d="M17.1517 180.116L16.7045 182.075C16.6531 182.3 16.8241 182.515 17.0546 182.515H32.129C32.304 182.515 32.4534 182.389 32.4831 182.216L32.8203 180.257C32.858 180.038 32.689 179.837 32.4662 179.837H17.5018C17.334 179.837 17.1887 179.953 17.1517 180.116Z" fill="#455A64"/>
<path d="M38.5565 171.027C38.4955 171.78 38.4341 172.534 38.373 173.288C41.2632 173.288 44.1533 173.288 47.0434 173.288C47.0494 173.228 47.0554 173.168 47.0614 173.108C47.1429 172.301 47.2244 171.493 47.3059 170.686L38.585 170.677C38.5754 170.794 38.5661 170.91 38.5565 171.027Z" fill="#455A64"/>
<path d="M105.828 173.904C105.832 173.947 105.836 173.991 105.84 174.034C105.903 174.743 105.966 175.452 106.029 176.161C107.949 176.161 109.869 176.161 111.789 176.161C111.785 176.114 111.781 176.068 111.777 176.021C111.714 175.315 111.651 174.609 111.588 173.903C109.668 173.904 107.748 173.904 105.828 173.904Z" fill="#455A64"/>
<path d="M15.639 187.17L15.0376 189.804C15.0019 189.961 15.1207 190.11 15.2817 190.11H23.4197C23.5393 190.11 23.6425 190.025 23.6654 189.908L24.1777 187.273C24.2078 187.119 24.0893 186.976 23.932 186.976H15.8831C15.7663 186.975 15.6647 187.056 15.639 187.17Z" fill="#455A64"/>
<path d="M19.277 170.811L18.7667 173.046C18.7386 173.17 18.8326 173.288 18.9594 173.288H27.7189C27.7261 173.247 27.7329 173.206 27.7401 173.166C27.8791 172.363 28.018 171.561 28.1569 170.759C28.1629 170.724 28.1802 170.694 28.1998 170.666L19.4701 170.657C19.3777 170.657 19.2975 170.721 19.277 170.811Z" fill="#455A64"/>
<path d="M123.711 183.13C123.521 183.13 123.33 183.13 123.14 183.13H116.106C115.957 183.13 115.842 183.26 115.859 183.408L116.185 186.14C116.2 186.265 116.306 186.359 116.432 186.359H123.816C123.965 186.359 124.081 186.229 124.063 186.081L123.711 183.13Z" fill="#455A64"/>
<path d="M152.311 186.974L146.883 186.948C146.767 186.948 146.675 187.046 146.684 187.161L146.891 189.879C146.899 189.981 146.984 190.061 147.088 190.062L153.108 190.107C153.241 190.109 153.337 189.981 153.3 189.854L152.501 187.117C152.476 187.032 152.399 186.974 152.311 186.974Z" fill="#455A64"/>
<path d="M118.111 186.975H112.662C112.429 186.975 112.249 187.176 112.274 187.406L112.527 189.761C112.549 189.959 112.716 190.109 112.915 190.109H118.355C118.586 190.109 118.767 189.909 118.743 189.679L118.499 187.324C118.478 187.126 118.311 186.975 118.111 186.975Z" fill="#455A64"/>
<path d="M136.666 186.974H127.528C127.388 186.974 127.278 187.096 127.292 187.235L127.561 189.896C127.573 190.017 127.675 190.109 127.797 190.109H136.888C137.027 190.109 137.136 189.991 137.124 189.852L136.902 187.191C136.892 187.069 136.789 186.974 136.666 186.974Z" fill="#455A64"/>
<path d="M146.301 183.13H140.378C140.229 183.13 140.113 183.26 140.131 183.408L140.457 186.14C140.472 186.265 140.578 186.359 140.704 186.359H146.627C146.776 186.359 146.891 186.229 146.874 186.081L146.548 183.349C146.533 183.224 146.427 183.13 146.301 183.13Z" fill="#455A64"/>
<path d="M151.151 183.13H147.413C147.264 183.13 147.148 183.26 147.166 183.408L147.496 186.14C147.511 186.265 147.617 186.359 147.742 186.359H151.948C152.114 186.359 152.233 186.2 152.186 186.041L151.389 183.309C151.358 183.203 151.261 183.13 151.151 183.13Z" fill="#455A64"/>
<path d="M142.95 171.088C142.988 171.822 143.027 172.555 143.066 173.288C144.865 173.288 146.663 173.288 148.462 173.288L147.733 170.789L142.934 170.784C142.939 170.886 142.944 170.987 142.95 171.088Z" fill="#455A64"/>
<path d="M111.17 186.975H104.969C104.68 186.975 104.453 187.222 104.478 187.51L104.668 189.661C104.69 189.915 104.903 190.11 105.157 190.11H111.401C111.694 190.11 111.922 189.856 111.89 189.565L111.659 187.414C111.632 187.164 111.421 186.975 111.17 186.975Z" fill="#455A64"/>
<path d="M66.3201 183.447L66.2229 186.017C66.2157 186.204 66.3654 186.359 66.5525 186.359H74.6154C74.7925 186.359 74.9382 186.219 74.945 186.042L75.0422 183.472C75.049 183.285 74.8997 183.13 74.7126 183.13H66.6497C66.4722 183.13 66.3265 183.27 66.3201 183.447Z" fill="#455A64"/>
<path d="M33.5036 179.837L33.0508 182.515H42.0688L42.5088 179.837C39.5071 179.837 36.5053 179.837 33.5036 179.837Z" fill="#455A64"/>
<path d="M56.9802 183.447L56.883 186.017C56.8762 186.204 57.0256 186.359 57.2126 186.359H65.2756C65.4526 186.359 65.5983 186.219 65.6052 186.042L65.7023 183.472C65.7095 183.285 65.5598 183.13 65.3727 183.13H57.3098C57.1324 183.13 56.987 183.27 56.9802 183.447Z" fill="#455A64"/>
<path d="M84.43 183.13C81.5098 183.13 78.5895 183.13 75.6689 183.13L75.5469 186.359C78.6237 186.359 81.7008 186.359 84.7776 186.359L84.43 183.13Z" fill="#455A64"/>
<path d="M101.857 179.837H92.6391C92.4833 179.837 92.3661 179.979 92.395 180.132L92.8077 182.312C92.8298 182.43 92.9326 182.515 93.0518 182.515H98.1949H102.211C102.364 182.515 102.481 182.377 102.456 182.226L102.102 180.046C102.082 179.925 101.979 179.837 101.857 179.837Z" fill="#455A64"/>
<path d="M66.4782 174.034C66.4144 174.743 66.3509 175.452 66.2871 176.161C68.2595 176.161 70.2318 176.161 72.2042 176.161C72.2082 176.114 72.2127 176.068 72.2167 176.021C72.2801 175.315 72.3435 174.609 72.407 173.903C70.4346 173.903 68.4622 173.903 66.4898 173.903C66.4862 173.947 66.4822 173.991 66.4782 174.034Z" fill="#455A64"/>
<path d="M99.2042 174.034C99.2721 174.743 99.3403 175.452 99.4082 176.161C101.41 176.161 103.412 176.161 105.414 176.161C105.41 176.114 105.406 176.068 105.402 176.021C105.339 175.315 105.276 174.609 105.213 173.903C103.206 173.903 101.199 173.903 99.1914 173.903C99.1958 173.947 99.1998 173.991 99.2042 174.034Z" fill="#455A64"/>
<path d="M86.1489 174.03C86.2388 174.741 86.3287 175.451 86.4191 176.162C88.4384 176.162 90.4581 176.162 92.4775 176.162C92.4739 176.142 92.4703 176.122 92.4666 176.102C92.3306 175.37 92.1945 174.637 92.058 173.904C90.0828 173.904 88.108 173.904 86.1328 173.904C86.1384 173.946 86.1437 173.988 86.1489 174.03Z" fill="#455A64"/>
<path d="M59.9586 173.904C59.9546 173.947 59.9506 173.991 59.9469 174.034C59.8831 174.743 59.8197 175.452 59.7559 176.161C61.7282 176.161 63.7006 176.161 65.673 176.161C65.677 176.114 65.6814 176.068 65.6854 176.021C65.7488 175.315 65.8123 174.609 65.8757 173.903C64.7584 173.903 63.6412 173.903 62.5235 173.903C61.6688 173.904 60.8137 173.904 59.9586 173.904Z" fill="#455A64"/>
<path d="M128.893 179.837H121.299C121.146 179.837 121.03 179.974 121.054 180.125L121.408 182.306C121.428 182.426 121.531 182.515 121.653 182.515H129.247C129.4 182.515 129.517 182.377 129.493 182.226L129.139 180.046C129.119 179.925 129.015 179.837 128.893 179.837Z" fill="#455A64"/>
<path d="M66.2354 171.035C66.1596 171.786 66.0837 172.537 66.0078 173.288C68.9951 173.288 71.9823 173.288 74.9692 173.288C74.9692 173.23 74.9692 173.172 74.9692 173.114C74.9692 172.315 74.9692 171.515 74.9692 170.715L66.2684 170.706C66.2575 170.816 66.2463 170.925 66.2354 171.035Z" fill="#455A64"/>
<path d="M106.067 171.089C106.105 171.822 106.144 172.555 106.183 173.288C109.311 173.288 112.439 173.288 115.567 173.288C115.566 173.271 115.565 173.253 115.564 173.235C115.52 172.409 115.477 171.583 115.433 170.757L106.049 170.747C106.055 170.861 106.061 170.975 106.067 171.089Z" fill="#455A64"/>
<path d="M84.7922 170.728C84.7986 170.848 84.8051 170.968 84.8111 171.089C84.8496 171.822 84.8886 172.555 84.9271 173.288C87.9975 173.288 91.0678 173.288 94.1382 173.288C94.3915 173.288 94.6448 173.288 94.8982 173.288C94.7496 172.438 94.6011 171.589 94.4526 170.739C94.4522 170.737 94.4526 170.736 94.4526 170.735L84.791 170.725C84.7914 170.726 84.7922 170.727 84.7922 170.728Z" fill="#455A64"/>
<path d="M95.1108 170.946C95.2472 171.726 95.3837 172.507 95.5202 173.287C98.8692 173.287 102.218 173.287 105.567 173.287C105.566 173.27 105.565 173.252 105.564 173.234C105.52 172.404 105.476 171.575 105.433 170.745L95.0742 170.734C95.0863 170.805 95.0987 170.875 95.1108 170.946Z" fill="#455A64"/>
<path d="M75.5859 170.715C75.5859 170.82 75.5859 170.924 75.5859 171.029C75.5859 171.782 75.5859 172.535 75.5859 173.288C78.4945 173.288 81.4035 173.288 84.3121 173.288C84.3113 173.27 84.3101 173.252 84.3092 173.235C84.2651 172.399 84.2209 171.564 84.1768 170.728C84.1768 170.726 84.1776 170.725 84.1776 170.724L75.5859 170.715Z" fill="#455A64"/>
<path d="M57.0616 171.034C56.9857 171.785 56.9099 172.536 56.834 173.288C59.6872 173.288 62.5399 173.288 65.3931 173.288C65.3991 173.228 65.4051 173.168 65.4112 173.108C65.4923 172.307 65.573 171.505 65.6541 170.704L57.0961 170.695C57.0845 170.809 57.0732 170.921 57.0616 171.034Z" fill="#455A64"/>
<path d="M140.373 179.837H135.727C135.574 179.837 135.457 179.974 135.482 180.125L135.836 182.306C135.856 182.426 135.959 182.514 136.081 182.514H140.727C140.88 182.514 140.997 182.377 140.972 182.226L140.618 180.045C140.598 179.925 140.495 179.837 140.373 179.837Z" fill="#455A64"/>
<path d="M144.094 174.034C144.157 174.743 144.22 175.452 144.283 176.161C145.956 176.161 147.629 176.161 149.302 176.161L148.643 173.903C147.123 173.903 145.602 173.903 144.082 173.903C144.086 173.947 144.09 173.991 144.094 174.034Z" fill="#455A64"/>
<path d="M137.707 173.904C137.711 173.947 137.715 173.991 137.719 174.034C137.782 174.743 137.845 175.452 137.908 176.161C139.828 176.161 141.748 176.161 143.668 176.161C143.664 176.114 143.659 176.068 143.655 176.021C143.593 175.315 143.53 174.609 143.467 173.903C141.547 173.904 139.627 173.904 137.707 173.904Z" fill="#455A64"/>
<path d="M125.029 171.089C125.067 171.822 125.106 172.555 125.145 173.288C127.927 173.288 130.709 173.288 133.491 173.288C133.49 173.27 133.489 173.253 133.488 173.235C133.445 172.415 133.401 171.595 133.358 170.775L125.012 170.767C125.017 170.874 125.023 170.981 125.029 171.089Z" fill="#455A64"/>
<path d="M116.065 171.089C116.103 171.822 116.142 172.555 116.181 173.288C118.963 173.288 121.745 173.288 124.527 173.288C124.526 173.27 124.525 173.253 124.524 173.235C124.481 172.412 124.437 171.589 124.394 170.766L116.047 170.757C116.053 170.868 116.059 170.978 116.065 171.089Z" fill="#455A64"/>
<path d="M146.693 170.539C146.693 170.597 118.189 170.643 83.0362 170.643C47.8707 170.643 19.373 170.596 19.373 170.539C19.373 170.482 47.8707 170.435 83.0362 170.435C118.19 170.435 146.693 170.481 146.693 170.539Z" fill="white"/>
<path d="M128.089 83.4855C135.086 83.4855 140.758 77.8134 140.758 70.8165C140.758 63.8196 135.086 58.1475 128.089 58.1475C121.092 58.1475 115.42 63.8196 115.42 70.8165C115.42 77.8134 121.092 83.4855 128.089 83.4855Z" fill="#35586E"/>
<g opacity="0.4">
<path d="M128.089 83.4855C135.086 83.4855 140.758 77.8134 140.758 70.8165C140.758 63.8196 135.086 58.1475 128.089 58.1475C121.092 58.1475 115.42 63.8196 115.42 70.8165C115.42 77.8134 121.092 83.4855 128.089 83.4855Z" fill="#121212"/>
</g>
<path d="M139.718 70.2531C140.039 63.2638 134.633 57.3376 127.644 57.0165C120.655 56.6953 114.729 62.1008 114.408 69.09C114.087 76.0792 119.492 82.0055 126.481 82.3266C133.47 82.6478 139.397 77.2423 139.718 70.2531Z" fill="#35586E"/>
<g opacity="0.2">
<path d="M129.755 78.5557C134.849 76.9808 137.733 71.6775 136.197 66.7104C134.661 61.7434 129.287 58.9935 124.194 60.5684C119.1 62.1433 116.216 67.4466 117.751 72.4137C119.287 77.3807 124.661 80.1306 129.755 78.5557Z" fill="white"/>
</g>
<path d="M129.739 78.5142C124.736 80.0613 119.434 77.3331 117.758 72.407C117.783 72.4953 117.805 72.5837 117.833 72.6718C119.407 77.7631 124.81 80.6142 129.902 79.0398C134.993 77.4655 137.844 72.0621 136.27 66.9708C136.242 66.8826 136.211 66.7968 136.182 66.71C137.579 71.7225 134.742 76.9671 129.739 78.5142Z" fill="#FAFAFA"/>
<g opacity="0.3">
<path d="M124.202 60.6035C129.205 59.0564 134.507 61.7846 136.183 66.7108C136.159 66.6224 136.136 66.5341 136.109 66.4459C134.534 61.3546 129.131 58.5035 124.04 60.0777C118.948 61.652 116.097 67.0554 117.671 72.1468C117.699 72.2349 117.73 72.3207 117.759 72.4076C116.362 67.395 119.199 62.1506 124.202 60.6035Z" fill="#121212"/>
</g>
<path d="M132.588 70.6977C132.188 69.4031 131.31 68.7549 130.296 68.6944C130.823 68.0796 131.026 67.1908 130.709 66.1665C130.315 64.893 129.327 64.2096 127.891 64.3225L127.406 62.7511L125.954 63.1999L126.406 64.6603L125.582 64.9149L125.131 63.4545L123.68 63.9031L124.131 65.3635L122.809 65.7723L121.889 66.0569L122.337 67.508L123.258 67.2233L125.44 74.2797L124.423 74.5943L124.871 76.0454L125.889 75.7307L127.211 75.322L127.736 77.0209L129.187 76.5723L128.662 74.8734L129.486 74.6188L130.011 76.3177L131.462 75.8691L130.919 74.1149C132.485 73.3787 133.044 72.1724 132.588 70.6977ZM125.098 66.6545L127.062 66.0471C128.152 65.7101 128.911 65.9743 129.197 66.8989C129.479 67.8094 129.002 68.4556 127.911 68.7928L125.682 69.4821L124.833 66.7364L125.098 66.6545ZM129.559 73.0059L127.182 73.7406L127.015 73.7923L126.126 70.9187L128.67 70.1321C129.857 69.7651 130.636 70.0075 130.944 71.0032C131.252 71.9994 130.746 72.6389 129.559 73.0059Z" fill="#35586E"/>
<g opacity="0.3">
<path d="M132.588 70.6977C132.188 69.4031 131.31 68.7549 130.296 68.6944C130.823 68.0796 131.026 67.1908 130.709 66.1665C130.315 64.893 129.327 64.2096 127.891 64.3225L127.406 62.7511L125.954 63.1999L126.406 64.6603L125.582 64.9149L125.131 63.4545L123.68 63.9031L124.131 65.3635L122.809 65.7723L121.889 66.0569L122.337 67.508L123.258 67.2233L125.44 74.2797L124.423 74.5943L124.871 76.0454L125.889 75.7307L127.211 75.322L127.736 77.0209L129.187 76.5723L128.662 74.8734L129.486 74.6188L130.011 76.3177L131.462 75.8691L130.919 74.1149C132.485 73.3787 133.044 72.1724 132.588 70.6977ZM125.098 66.6545L127.062 66.0471C128.152 65.7101 128.911 65.9743 129.197 66.8989C129.479 67.8094 129.002 68.4556 127.911 68.7928L125.682 69.4821L124.833 66.7364L125.098 66.6545ZM129.559 73.0059L127.182 73.7406L127.015 73.7923L126.126 70.9187L128.67 70.1321C129.857 69.7651 130.636 70.0075 130.944 71.0032C131.252 71.9994 130.746 72.6389 129.559 73.0059Z" fill="#121212"/>
</g>
<path d="M131.883 70.9164C131.483 69.6218 130.605 68.9735 129.591 68.913C130.118 68.2982 130.321 67.4094 130.004 66.3852C129.61 65.1116 128.621 64.4283 127.186 64.5411L126.7 62.9697L125.249 63.4185L125.701 64.8789L124.877 65.1336L124.426 63.6731L122.975 64.1217L123.426 65.5821L122.104 65.9909L121.184 66.2755L121.632 67.7266L122.553 67.442L124.735 74.4983L123.717 74.8129L124.166 76.264L125.184 75.9494L126.505 75.5406L127.031 77.2395L128.482 76.7909L127.957 75.092L128.78 74.8374L129.305 76.5363L130.757 76.0877L130.214 74.3335C131.78 73.5973 132.339 72.3911 131.883 70.9164ZM124.393 66.8731L126.357 66.2657C127.447 65.9285 128.206 66.1929 128.492 67.1175C128.773 68.0281 128.297 68.6742 127.206 69.0114L124.977 69.7005L124.128 66.9549L124.393 66.8731ZM128.854 73.2245L126.477 73.9592L126.31 74.011L125.421 71.1373L127.965 70.3507C129.152 69.9837 129.931 70.2262 130.239 71.2219C130.547 72.218 130.041 72.8575 128.854 73.2245Z" fill="#35586E"/>
<path d="M137.183 62.0208C137.157 62.0412 136.824 61.5916 136.116 60.882C135.407 60.1805 134.293 59.22 132.685 58.4363C131.883 58.0471 130.962 57.7033 129.942 57.4681C128.92 57.2415 127.8 57.1117 126.624 57.1628C126.037 57.1864 125.435 57.2458 124.831 57.3627C124.227 57.4764 123.615 57.6273 123.013 57.8421C122.411 58.0548 121.808 58.306 121.227 58.62C120.646 58.9332 120.08 59.2934 119.536 59.6992C118.998 60.1124 118.497 60.5597 118.038 61.0342C117.578 61.5083 117.173 62.0201 116.804 62.5421C116.434 63.0637 116.123 63.6117 115.849 64.1625C115.573 64.7124 115.353 65.2753 115.17 65.8341C114.802 66.9522 114.623 68.0656 114.564 69.1105C114.513 70.1571 114.594 71.136 114.752 72.0135C115.07 73.7739 115.692 75.1068 116.175 75.9793C116.665 76.8534 117.008 77.2956 116.981 77.315C116.972 77.322 116.882 77.2155 116.718 77.0061C116.635 76.9022 116.535 76.771 116.428 76.6084C116.318 76.4474 116.189 76.2637 116.063 76.0442C115.541 75.1831 114.875 73.8452 114.52 72.0572C114.345 71.166 114.249 70.168 114.288 69.098C114.336 68.0297 114.509 66.8883 114.878 65.7402C115.061 65.1665 115.283 64.588 115.564 64.0226C115.841 63.4563 116.158 62.8928 116.536 62.3561C116.912 61.8189 117.327 61.2927 117.799 60.8052C118.269 60.3172 118.783 59.8576 119.335 59.4337C119.893 59.0175 120.474 58.6479 121.072 58.3277C121.669 58.0065 122.288 57.7499 122.907 57.5339C123.526 57.3156 124.154 57.1632 124.774 57.0499C125.394 56.9335 126.011 56.8764 126.613 56.8564C127.818 56.8128 128.963 56.9558 130.004 57.1994C131.045 57.4515 131.979 57.8155 132.79 58.2258C134.415 59.0518 135.522 60.0558 136.209 60.792C136.386 60.9729 136.527 61.1479 136.653 61.2967C136.78 61.4438 136.879 61.5754 136.957 61.6838C137.114 61.8984 137.192 62.014 137.183 62.0208Z" fill="#FAFAFA"/>
<path d="M124.425 63.6726C124.442 63.7271 123.885 63.9521 123.014 64.2525L123.105 64.0807C123.249 64.4969 123.413 64.9938 123.583 65.533L123.633 65.6901L123.474 65.7397C123.349 65.7787 123.217 65.82 123.084 65.8617C122.397 66.074 121.757 66.2611 121.223 66.4069L121.314 66.2347C121.557 67.1195 121.686 67.7094 121.631 67.7265C121.577 67.7433 121.351 67.1832 121.051 66.316L121.008 66.1902L121.142 66.1438C121.665 65.9633 122.299 65.7561 122.985 65.5439C123.119 65.5028 123.251 65.4626 123.376 65.4242L123.267 65.6307C123.104 65.0896 122.958 64.5869 122.842 64.1622L122.805 64.0253L122.933 63.9902C123.821 63.7466 124.408 63.6181 124.425 63.6726Z" fill="#FAFAFA"/>
<path d="M127.014 62.9005C127.041 62.9882 126.67 63.1809 126.186 63.3308C125.701 63.4807 125.286 63.5309 125.259 63.4432C125.232 63.3555 125.603 63.1628 126.088 63.0129C126.572 62.8633 126.987 62.8128 127.014 62.9005Z" fill="#FAFAFA"/>
<path d="M124.63 74.4163C124.542 74.4436 123.992 72.9167 123.401 71.0067C122.81 69.0959 122.403 67.5254 122.49 67.4984C122.578 67.4714 123.128 68.9976 123.719 70.9085C124.309 72.8186 124.717 74.3893 124.63 74.4163Z" fill="#FAFAFA"/>
<path d="M127.947 68.7969C127.974 68.8846 127.369 69.1497 126.596 69.3885C125.823 69.6276 125.174 69.7502 125.147 69.6625C125.12 69.5748 125.725 69.31 126.498 69.0709C127.271 68.8318 127.92 68.7092 127.947 68.7969Z" fill="#FAFAFA"/>
<path d="M129.332 73.0879C129.359 73.1756 128.754 73.4407 127.981 73.6795C127.208 73.9186 126.559 74.0413 126.532 73.9535C126.505 73.8658 127.11 73.601 127.883 73.3619C128.656 73.1228 129.305 73.0002 129.332 73.0879Z" fill="#FAFAFA"/>
<path d="M128.061 83.4867C128.038 83.5069 127.793 83.2666 127.515 82.95C127.236 82.6332 127.03 82.3603 127.053 82.3401C127.076 82.3198 127.32 82.5602 127.598 82.8768C127.877 83.1933 128.084 83.4665 128.061 83.4867Z" fill="#333333"/>
<path d="M125.882 83.2594C125.859 83.2796 125.624 83.0499 125.357 82.7465C125.09 82.4429 124.893 82.1806 124.916 82.1604C124.939 82.1402 125.174 82.3699 125.441 82.6733C125.707 82.9766 125.905 83.2391 125.882 83.2594Z" fill="#333333"/>
<path d="M123.826 82.7467C123.803 82.7669 123.568 82.5372 123.301 82.2338C123.034 81.9302 122.836 81.6679 122.859 81.6477C122.882 81.6275 123.117 81.857 123.384 82.1606C123.651 82.464 123.849 82.7265 123.826 82.7467Z" fill="#333333"/>
<path d="M130.272 83.307C130.249 83.3272 130.004 83.0869 129.726 82.7703C129.447 82.4535 129.24 82.1806 129.263 82.1604C129.286 82.1401 129.531 82.3805 129.809 82.6971C130.087 83.0136 130.294 83.2868 130.272 83.307Z" fill="#333333"/>
<path d="M132.25 82.7845C132.227 82.8048 131.983 82.5644 131.704 82.2478C131.426 81.9311 131.219 81.6581 131.242 81.6379C131.265 81.6177 131.509 81.858 131.788 82.1746C132.066 82.4912 132.273 82.7643 132.25 82.7845Z" fill="#333333"/>
<path d="M134.129 81.9515C134.106 81.9718 133.862 81.7314 133.583 81.4148C133.305 81.0981 133.098 80.8251 133.121 80.8049C133.144 80.7847 133.388 81.025 133.667 81.3416C133.945 81.6582 134.152 81.9313 134.129 81.9515Z" fill="#333333"/>
<path d="M135.791 80.9222C135.768 80.9425 135.524 80.7021 135.245 80.3855C134.967 80.0688 134.76 79.7958 134.783 79.7756C134.806 79.7554 135.05 79.9957 135.329 80.3123C135.607 80.6291 135.814 80.902 135.791 80.9222Z" fill="#333333"/>
<path d="M137.305 79.5599C137.282 79.5802 137.037 79.3398 136.759 79.0232C136.481 78.7065 136.274 78.4335 136.297 78.4133C136.32 78.3931 136.564 78.6334 136.843 78.95C137.121 79.2666 137.328 79.5397 137.305 79.5599Z" fill="#333333"/>
<path d="M138.545 78.015C138.522 78.0352 138.278 77.7949 137.999 77.4783C137.721 77.1615 137.514 76.8886 137.537 76.8684C137.56 76.8482 137.804 77.0885 138.083 77.4051C138.361 77.7219 138.568 77.995 138.545 78.015Z" fill="#333333"/>
<path d="M139.459 76.4808C139.436 76.5011 139.192 76.2607 138.913 75.9441C138.635 75.6273 138.428 75.3544 138.451 75.3342C138.474 75.314 138.718 75.5543 138.997 75.8709C139.275 76.1875 139.482 76.4606 139.459 76.4808Z" fill="#333333"/>
<path d="M140.223 74.7543C140.2 74.7745 139.955 74.5341 139.677 74.2176C139.399 73.9008 139.192 73.6279 139.215 73.6076C139.238 73.5874 139.482 73.8278 139.76 74.1443C140.039 74.4609 140.246 74.734 140.223 74.7543Z" fill="#333333"/>
<path d="M140.744 72.8773C140.721 72.8975 140.477 72.6572 140.199 72.3406C139.92 72.0238 139.713 71.7509 139.736 71.7307C139.759 71.7105 140.004 71.9508 140.282 72.2674C140.56 72.584 140.767 72.8571 140.744 72.8773Z" fill="#333333"/>
<path d="M140.912 70.85C140.889 70.8702 140.645 70.6298 140.366 70.3133C140.088 69.9967 139.881 69.7236 139.904 69.7033C139.927 69.6831 140.171 69.9235 140.45 70.24C140.728 70.5566 140.935 70.8298 140.912 70.85Z" fill="#333333"/>
<path d="M140.75 68.7708C140.728 68.791 140.435 68.4953 140.096 68.1106C139.758 67.7257 139.502 67.3972 139.525 67.377C139.548 67.3567 139.841 67.6522 140.179 68.0373C140.518 68.4223 140.773 68.7505 140.75 68.7708Z" fill="#333333"/>
<path d="M139.885 65.969C139.862 65.9892 139.569 65.6935 139.231 65.3088C138.892 64.9239 138.637 64.5954 138.66 64.5752C138.683 64.555 138.976 64.8505 139.314 65.2356C139.653 65.6203 139.908 65.9488 139.885 65.969Z" fill="#333333"/>
<g opacity="0.2">
<path d="M118.218 67.2655C121.957 66.1055 125.399 65.038 128.088 64.2039C128.748 64.6597 129.36 65.0819 129.901 65.4551L129.912 65.4632L129.926 65.4589C131.196 65.0572 132.213 64.7362 132.915 64.5141C133.261 64.4028 133.529 64.3165 133.715 64.2567C133.803 64.2273 133.872 64.2048 133.921 64.1882C133.937 64.1826 133.95 64.1782 133.96 64.1741C133.966 64.1858 133.97 64.1975 133.978 64.2086C134.031 64.2859 134.145 64.334 134.252 64.2997C134.359 64.2678 134.426 64.1637 134.426 64.0702C134.429 63.9749 134.374 63.8978 134.316 63.8631C134.258 63.8265 134.2 63.8254 134.165 63.8326C134.129 63.8403 134.113 63.8535 134.115 63.8586C134.116 63.8729 134.198 63.8475 134.28 63.9135C134.319 63.945 134.351 64.0023 134.345 64.0662C134.341 64.1292 134.295 64.195 134.226 64.2158C134.156 64.238 134.082 64.2095 134.043 64.1596C134.002 64.11 133.996 64.0451 134.01 63.997C134.041 63.8959 134.122 63.8712 134.115 63.8586C134.114 63.8535 134.093 63.8514 134.06 63.8652C134.027 63.8788 133.98 63.9125 133.952 63.9757C133.928 64.0272 133.926 64.1013 133.958 64.1696C133.947 64.1724 133.935 64.1756 133.919 64.1801C133.868 64.1948 133.799 64.215 133.71 64.241C133.523 64.2974 133.253 64.3787 132.905 64.4837C132.203 64.6989 131.189 65.0101 129.922 65.3991C129.382 65.0223 128.772 64.5969 128.113 64.1375L128.099 64.1279L128.083 64.1328C125.39 64.9629 121.941 66.0263 118.192 67.1817C116.906 67.5798 115.656 67.9668 114.461 68.337C114.458 68.3675 114.454 68.3979 114.451 68.4283C115.657 68.056 116.919 67.6664 118.218 67.2655Z" fill="white"/>
<path d="M133.542 61.6416C134.24 62.1115 134.889 62.5492 135.466 62.9371L135.481 62.9471L135.498 62.9417C136.249 62.7037 136.894 62.4996 137.399 62.3397C137.389 62.3263 137.38 62.3126 137.371 62.2992C136.87 62.4504 136.233 62.6424 135.493 62.8657C134.917 62.4738 134.269 62.0325 133.573 61.5586L133.556 61.5469L133.536 61.553C133.135 61.6767 132.719 61.8051 132.293 61.9365C130.503 62.4953 128.883 63.0009 127.7 63.3703C127.12 63.5557 126.647 63.7069 126.311 63.8144C126.153 63.8668 126.028 63.9083 125.934 63.9394C125.848 63.969 125.804 63.9858 125.805 63.9888C125.806 63.9917 125.852 63.9804 125.939 63.9564C126.034 63.9291 126.161 63.8927 126.321 63.8472C126.659 63.7461 127.135 63.6041 127.718 63.4297C128.903 63.0667 130.526 62.5696 132.32 62.0203C132.738 61.8907 133.147 61.764 133.542 61.6416Z" fill="white"/>
<path d="M124.526 69.35C124.919 69.426 125.274 69.4945 125.597 69.5569L125.604 69.5582L125.61 69.5563C126.305 69.3455 126.856 69.1782 127.24 69.0617C127.424 69.004 127.568 68.9591 127.671 68.9269C127.682 68.9235 127.69 68.9206 127.7 68.9174C127.722 68.981 127.791 69.0166 127.856 68.9964C127.922 68.9757 127.96 68.9048 127.939 68.8382C127.918 68.7713 127.848 68.7341 127.781 68.7547C127.717 68.7745 127.681 68.8405 127.697 68.9048C127.687 68.9074 127.678 68.9097 127.667 68.9125C127.563 68.9414 127.418 68.9819 127.232 69.0338C126.848 69.1443 126.296 69.3029 125.602 69.5024C125.279 69.437 124.924 69.3651 124.531 69.2855L124.523 69.284L124.515 69.2863C122.718 69.8388 120.27 70.5913 117.579 71.4189C116.737 71.6794 115.92 71.9326 115.15 72.171C114.97 72.125 114.793 72.0797 114.617 72.0348C114.623 72.0648 114.628 72.0946 114.634 72.1246C114.801 72.1682 114.97 72.2121 115.14 72.2566L115.152 72.2596L115.164 72.2559C115.937 72.0173 116.759 71.7637 117.604 71.5025C120.289 70.6676 122.731 69.9082 124.526 69.35Z" fill="white"/>
<path d="M125.301 68.5304C124.962 68.4981 124.632 68.4665 124.31 68.4359L124.302 68.435L124.294 68.4376C124.095 68.5004 123.9 68.5617 123.709 68.622C123.598 68.2468 123.492 67.8888 123.392 67.55L123.381 67.5128L123.344 67.5247C122.245 67.8809 121.328 68.1781 120.677 68.3888C120.362 68.4936 120.112 68.5768 119.933 68.6364C119.903 68.6469 119.877 68.6558 119.852 68.6647C119.827 68.6047 119.762 68.5713 119.699 68.5909C119.632 68.6115 119.594 68.6824 119.615 68.7491C119.636 68.8157 119.707 68.8532 119.773 68.8325C119.837 68.8127 119.873 68.7465 119.858 68.682C119.884 68.6745 119.91 68.6671 119.94 68.6584C120.12 68.6036 120.373 68.527 120.691 68.4306C121.336 68.2294 122.244 67.9464 123.33 67.6079C123.429 67.9488 123.533 68.3079 123.643 68.6848L123.654 68.7248L123.694 68.7124C123.895 68.6498 124.101 68.586 124.311 68.5206C124.632 68.5521 124.963 68.5845 125.301 68.6177L125.31 68.6185L125.318 68.616C125.688 68.5017 126.067 68.3846 126.454 68.2651C128.434 67.6482 130.234 67.0872 131.57 66.671C131.975 66.7953 132.338 66.9071 132.648 67.0023L132.655 67.0046L132.662 67.0023C133.069 66.8716 133.392 66.7674 133.621 66.6938C133.726 66.6584 133.81 66.6303 133.874 66.6091C133.878 66.6074 133.882 66.6061 133.886 66.6046C133.887 66.6054 133.887 66.6065 133.888 66.6074C133.94 66.6846 134.055 66.7325 134.161 66.6985C134.268 66.6665 134.335 66.5624 134.335 66.4688C134.338 66.3734 134.284 66.2965 134.226 66.2616C134.167 66.225 134.109 66.2237 134.074 66.2312C134.039 66.2388 134.023 66.252 134.024 66.2571C134.026 66.2714 134.107 66.2461 134.189 66.3121C134.229 66.3436 134.26 66.4008 134.254 66.4647C134.25 66.5277 134.205 66.5935 134.135 66.6144C134.066 66.6365 133.991 66.608 133.952 66.5582C133.911 66.5086 133.905 66.4436 133.919 66.3955C133.95 66.2944 134.032 66.2695 134.024 66.2569C134.023 66.2518 134.002 66.2499 133.968 66.2637C133.935 66.2774 133.888 66.311 133.861 66.3742C133.834 66.4321 133.833 66.5188 133.88 66.5931C133.876 66.5942 133.873 66.5948 133.869 66.5959C133.805 66.6142 133.72 66.6382 133.613 66.6685C133.384 66.7366 133.061 66.8324 132.655 66.9527C132.346 66.8532 131.983 66.7368 131.579 66.6067L131.57 66.6037L131.56 66.6067C130.222 67.0174 128.415 67.5715 126.428 68.1813C126.045 68.3001 125.668 68.4167 125.301 68.5304Z" fill="white"/>
<path d="M121.755 79.0178C121.697 78.9812 121.639 78.9799 121.604 78.9874C121.568 78.9951 121.552 79.0083 121.554 79.0134C121.555 79.0276 121.636 79.0023 121.719 79.0683C121.758 79.0998 121.789 79.1571 121.784 79.2209C121.78 79.284 121.734 79.3497 121.664 79.3706C121.595 79.3927 121.52 79.3642 121.481 79.3144C121.441 79.2648 121.434 79.1999 121.449 79.1517C121.479 79.0506 121.561 79.0257 121.554 79.0132C121.552 79.008 121.532 79.0061 121.498 79.02C121.465 79.0336 121.418 79.0672 121.39 79.1305C121.362 79.1918 121.361 79.2861 121.417 79.3634C121.469 79.4406 121.584 79.4885 121.69 79.4545C121.797 79.4225 121.864 79.3184 121.864 79.2248C121.864 79.2214 121.863 79.2182 121.863 79.2148C121.873 79.2124 121.885 79.2097 121.9 79.2058C121.949 79.1926 122.009 79.1762 122.082 79.156C122.25 79.107 122.48 79.04 122.766 78.9565C123.36 78.7771 124.186 78.5273 125.158 78.2335L125.18 78.2269L125.185 78.2046C125.308 77.6977 125.441 77.1495 125.581 76.5734L125.584 76.5619L125.58 76.5504C125.512 76.329 125.442 76.1031 125.371 75.8741C125.065 74.8892 124.776 73.9642 124.53 73.1718L124.524 73.1544L124.507 73.1478C124.011 72.9513 123.563 72.7737 123.183 72.6232L123.173 72.6191L123.163 72.6223C122.696 72.7724 122.319 72.894 122.048 72.9813C121.924 73.023 121.825 73.0562 121.749 73.082C121.734 73.0873 121.721 73.092 121.709 73.0964C121.69 73.0394 121.652 72.9938 121.612 72.9696C121.554 72.9329 121.496 72.9319 121.461 72.9391C121.425 72.9468 121.409 72.96 121.411 72.9651C121.412 72.9794 121.493 72.954 121.576 73.02C121.615 73.0515 121.647 73.1088 121.641 73.1727C121.637 73.2357 121.591 73.3015 121.522 73.3223C121.452 73.3445 121.377 73.3159 121.338 73.2661C121.298 73.2165 121.291 73.1516 121.306 73.1035C121.337 73.0023 121.418 72.9774 121.411 72.9649C121.41 72.9598 121.389 72.9579 121.355 72.9717C121.322 72.9853 121.275 73.019 121.248 73.0822C121.219 73.1435 121.218 73.2378 121.274 73.3149C121.327 73.3922 121.441 73.4403 121.547 73.406C121.655 73.3741 121.722 73.27 121.721 73.1765C121.722 73.1526 121.719 73.1299 121.714 73.1086C121.726 73.1056 121.738 73.1022 121.754 73.0981C121.831 73.0762 121.932 73.0479 122.057 73.0126C122.328 72.9323 122.705 72.8205 123.17 72.6828C123.542 72.8352 123.979 73.0143 124.461 73.212C124.704 74.0015 124.986 74.9214 125.287 75.9002C125.357 76.1255 125.426 76.3473 125.493 76.5651C125.359 77.1293 125.231 77.6666 125.112 78.1644C124.153 78.4675 123.338 78.7253 122.751 78.911C122.468 79.0034 122.241 79.0777 122.074 79.1319C122.002 79.1569 121.943 79.1773 121.896 79.1937C121.882 79.1988 121.871 79.2028 121.862 79.2067C121.858 79.12 121.809 79.0502 121.755 79.0178Z" fill="white"/>
<path d="M134.037 72.7653C134.101 72.7455 134.137 72.6797 134.122 72.6156C134.123 72.6152 134.124 72.615 134.125 72.6145C134.214 72.5892 134.332 72.5554 134.481 72.513C134.798 72.4185 135.242 72.2858 135.791 72.1221L135.8 72.1196L135.806 72.1121C136.138 71.6991 136.528 71.2133 136.964 70.671C137.798 70.4147 138.738 70.1254 139.733 69.8195C139.734 69.7888 139.735 69.7582 139.735 69.7273C138.726 70.0409 137.773 70.3372 136.929 70.5993L136.918 70.6029L136.91 70.6123C136.479 71.1596 136.093 71.6497 135.764 72.067C135.223 72.2403 134.784 72.3808 134.471 72.4811C134.324 72.5298 134.208 72.5688 134.12 72.5979C134.119 72.5984 134.118 72.5988 134.116 72.5992C134.092 72.5377 134.026 72.5036 133.962 72.5232C133.896 72.5439 133.858 72.6148 133.879 72.6814C133.9 72.7487 133.971 72.7859 134.037 72.7653Z" fill="white"/>
<path d="M129.244 82.1023C129.233 82.0595 129.219 82.0048 129.2 81.9394C129.146 81.7502 129.073 81.5004 128.986 81.1988C128.801 80.5746 128.54 79.7138 128.247 78.765C128.154 78.468 128.065 78.1802 127.98 77.9064L127.975 77.8894L127.959 77.8813C127.296 77.5383 126.719 77.2394 126.29 77.0173C126.215 76.7913 126.153 76.606 126.106 76.4636C126.073 76.3689 126.05 76.3074 126.038 76.2805C126.054 76.2818 126.07 76.2807 126.086 76.2756C126.153 76.255 126.19 76.1841 126.169 76.1175C126.149 76.0508 126.078 76.0133 126.011 76.034C125.944 76.0546 125.907 76.1255 125.928 76.1922C125.942 76.2397 125.983 76.2712 126.029 76.2786C126.033 76.3054 126.05 76.3712 126.077 76.4723C126.119 76.619 126.174 76.8102 126.241 77.0446L126.244 77.0552L126.254 77.0608C126.677 77.2881 127.249 77.5954 127.904 77.9477C127.986 78.2168 128.073 78.4991 128.163 78.7905C128.456 79.7394 128.726 80.5971 128.926 81.2166C129.025 81.5151 129.106 81.7619 129.167 81.949C129.189 82.0133 129.208 82.0667 129.223 82.1082C129.194 82.12 129.171 82.14 129.158 82.1659C129.223 82.1549 129.288 82.1432 129.353 82.1312C129.324 82.1057 129.285 82.0938 129.244 82.1023Z" fill="white"/>
<path d="M119.715 64.9891C119.735 65.0557 119.806 65.0932 119.873 65.0725C119.94 65.0519 119.977 64.981 119.956 64.9143C119.936 64.8477 119.865 64.8102 119.798 64.8309C119.731 64.8515 119.694 64.9222 119.715 64.9891Z" fill="white"/>
<path d="M131.881 74.2256C131.98 74.1941 132.06 74.1688 132.123 74.1486C132.14 74.143 132.154 74.1384 132.165 74.1341C132.166 74.1424 132.165 74.1507 132.168 74.1592C132.188 74.2261 132.259 74.2633 132.326 74.2427C132.393 74.222 132.43 74.1511 132.409 74.0845C132.389 74.0176 132.318 73.9804 132.251 74.001C132.197 74.0179 132.164 74.0689 132.164 74.1234C132.152 74.1262 132.137 74.1294 132.119 74.1339C132.055 74.1503 131.973 74.1711 131.873 74.1969C131.649 74.2578 131.341 74.3414 130.96 74.4449C130.185 74.6631 129.119 74.9631 127.904 75.305C127.79 74.9676 127.673 74.6193 127.553 74.2623C127.52 74.1635 127.487 74.0658 127.456 73.9734C127.759 73.4616 128.05 72.9713 128.316 72.5227L128.326 72.507L128.32 72.4897C128.198 72.0995 128.082 71.7314 127.978 71.3991L127.974 71.3846L127.961 71.3778C127.809 71.2992 127.664 71.2234 127.527 71.1521L127.514 71.1455L127.501 71.1498C126.929 71.3331 126.46 71.4834 126.124 71.5911C125.968 71.643 125.843 71.6848 125.748 71.7165C125.731 71.7224 125.717 71.7276 125.703 71.7325C125.685 71.6726 125.646 71.6254 125.604 71.6002C125.546 71.5636 125.488 71.5624 125.453 71.5698C125.417 71.5775 125.401 71.5907 125.403 71.5956C125.404 71.6098 125.486 71.5845 125.568 71.6507C125.598 71.6748 125.623 71.7141 125.631 71.7597C125.623 71.7629 125.619 71.7655 125.619 71.7663C125.619 71.7672 125.624 71.7667 125.631 71.7655C125.633 71.7778 125.634 71.7904 125.633 71.8033C125.629 71.8664 125.583 71.9321 125.514 71.953C125.444 71.9751 125.369 71.9466 125.331 71.8968C125.29 71.8472 125.283 71.7823 125.298 71.7342C125.329 71.633 125.41 71.6081 125.403 71.5956C125.402 71.5905 125.381 71.5885 125.348 71.6024C125.315 71.616 125.268 71.6496 125.24 71.7129C125.212 71.7742 125.21 71.8685 125.266 71.9456C125.319 72.0228 125.433 72.0707 125.54 72.0367C125.647 72.0047 125.714 71.9006 125.714 71.8072C125.715 71.7861 125.711 71.7663 125.707 71.7471C125.721 71.7433 125.736 71.7395 125.754 71.7346C125.85 71.7073 125.977 71.6711 126.134 71.6262C126.47 71.5262 126.938 71.3867 127.507 71.2168C127.636 71.2858 127.772 71.3584 127.913 71.434C128.012 71.7584 128.121 72.1165 128.237 72.4957C127.968 72.9442 127.676 73.4339 127.37 73.9453L127.36 73.9625L127.366 73.9817C127.399 74.0794 127.435 74.1841 127.47 74.2897C127.595 74.6599 127.718 75.0214 127.836 75.3706L127.849 75.4095L127.888 75.398C129.117 75.0399 130.194 74.7259 130.976 74.4979C131.353 74.3845 131.659 74.2925 131.881 74.2256Z" fill="white"/>
<path d="M129.948 74.2148C129.714 73.4183 129.468 72.5808 129.218 71.7301C129.184 71.6126 129.149 71.4953 129.115 71.3786L129.11 71.3614L129.094 71.3526C128.62 71.0889 128.151 70.8279 127.689 70.5707L127.672 70.5615L127.655 70.5671C125.052 71.3737 122.606 72.1318 120.427 72.8069L120.418 72.8099L120.411 72.8169C118.94 74.314 117.638 75.6386 116.551 76.7454C116.562 76.7618 116.573 76.7786 116.584 76.795C117.675 75.692 118.982 74.371 120.459 72.8782C122.631 72.2082 125.069 71.4561 127.663 70.656C128.114 70.9075 128.573 71.1627 129.036 71.4205C129.068 71.5317 129.101 71.643 129.134 71.7548C129.388 72.6202 129.639 73.4724 129.877 74.2812L129.889 74.3231L129.931 74.3108C133.57 73.2254 136.89 72.2351 139.612 71.4231C139.615 71.3999 139.619 71.3769 139.622 71.3537C136.903 72.1576 133.585 73.1388 129.948 74.2148Z" fill="white"/>
<path d="M128.829 69.6708C128.907 69.9101 129.016 70.2463 129.154 70.6682L129.157 70.6786L129.168 70.6835C129.797 70.9922 130.631 71.4016 131.601 71.8779L131.615 71.8847L131.631 71.88C132.46 71.6247 133.385 71.3399 134.36 71.0399C136.199 70.4662 137.863 69.9467 139.078 69.5678C139.314 69.4922 139.533 69.4224 139.733 69.3585C139.732 69.3415 139.731 69.3246 139.731 69.3076C139.526 69.3687 139.303 69.4358 139.059 69.5084C137.843 69.8809 136.176 70.3917 134.334 70.9558C133.366 71.2566 132.447 71.5423 131.622 71.7987C130.658 71.3375 129.828 70.9409 129.2 70.6405C129.055 70.2271 128.939 69.8969 128.856 69.6614C128.816 69.5529 128.785 69.4664 128.761 69.4004C128.738 69.3415 128.725 69.3114 128.723 69.3121C128.721 69.3129 128.729 69.3447 128.747 69.4051C128.767 69.4726 128.795 69.5605 128.829 69.6708Z" fill="white"/>
<path d="M130.533 65.9719L130.522 65.9751L130.514 65.9836C130.3 66.2119 130.093 66.4316 129.895 66.6419C128.994 66.9274 128.226 67.1707 127.671 67.3464C127.406 67.4332 127.193 67.5033 127.035 67.5548C126.974 67.5759 126.925 67.5933 126.882 67.608C126.862 67.5563 126.828 67.5146 126.79 67.492C126.732 67.4554 126.674 67.4541 126.639 67.4615C126.603 67.4692 126.587 67.4824 126.589 67.4873C126.59 67.5016 126.671 67.4762 126.754 67.5422C126.78 67.5635 126.802 67.5969 126.813 67.6359C126.812 67.6365 126.811 67.6374 126.811 67.6374C126.811 67.6374 126.812 67.6376 126.813 67.6376C126.818 67.6557 126.821 67.6749 126.819 67.6949C126.815 67.7579 126.769 67.8237 126.699 67.8445C126.63 67.8667 126.555 67.8382 126.516 67.7883C126.476 67.7387 126.469 67.6738 126.484 67.6257C126.515 67.5246 126.596 67.4997 126.589 67.4871C126.587 67.482 126.567 67.4801 126.533 67.4939C126.5 67.5075 126.453 67.5412 126.425 67.6044C126.397 67.6657 126.396 67.76 126.452 67.8371C126.505 67.9144 126.619 67.9625 126.725 67.9282C126.832 67.8963 126.899 67.7922 126.899 67.6987C126.9 67.6708 126.895 67.6453 126.888 67.621C126.931 67.6093 126.981 67.5957 127.043 67.5791C127.202 67.5329 127.417 67.4701 127.685 67.3924C128.244 67.2235 129.019 66.9898 129.929 66.7151L129.939 66.7122L129.946 66.7043C130.145 66.4957 130.352 66.277 130.568 66.0503C130.949 65.9402 131.347 65.8253 131.757 65.7071C133.187 65.2877 134.481 64.9083 135.431 64.6299C135.892 64.4902 136.269 64.3763 136.541 64.2937C136.658 64.2565 136.753 64.2262 136.829 64.2022C136.855 64.2605 136.919 64.2929 136.981 64.2737C137.048 64.253 137.085 64.1822 137.064 64.1155C137.044 64.0487 136.973 64.0114 136.906 64.0321C136.841 64.0523 136.805 64.12 136.822 64.1851C136.746 64.2051 136.65 64.2303 136.532 64.2609C136.257 64.3369 135.878 64.4419 135.413 64.5703C134.462 64.8423 133.165 65.213 131.732 65.6228C131.32 65.7433 130.918 65.8602 130.533 65.9719Z" fill="white"/>
<path d="M126.917 79.6689C126.812 79.3319 126.711 79.0041 126.613 78.6905L126.607 78.6703L126.587 78.663C126.281 78.5496 125.989 78.4412 125.715 78.3396L125.702 78.335L125.689 78.339C124.983 78.564 124.385 78.7548 123.95 78.8936C123.747 78.9609 123.584 79.0154 123.459 79.0569C123.438 79.0641 123.42 79.0705 123.403 79.0767C123.378 79.0164 123.313 78.9828 123.249 79.0024C123.182 79.023 123.145 79.0939 123.166 79.1606C123.187 79.2274 123.257 79.2647 123.324 79.244C123.387 79.2244 123.422 79.1597 123.409 79.0961C123.426 79.0914 123.444 79.0865 123.466 79.0807C123.592 79.0445 123.759 78.9971 123.963 78.9385C124.398 78.808 124.995 78.6292 125.7 78.4182C125.963 78.518 126.244 78.6245 126.538 78.7356C126.633 79.0437 126.732 79.3647 126.833 79.6949C127.144 80.6866 127.43 81.5965 127.659 82.3286C127.682 82.3275 127.704 82.3258 127.726 82.3248C127.502 81.588 127.222 80.6698 126.917 79.6689Z" fill="white"/>
<path d="M128.539 81.4983L128.547 81.4822L128.542 81.4649C128.138 80.165 127.758 78.9419 127.425 77.8702L127.42 77.8547L127.406 77.8472C126.95 77.6084 126.526 77.3865 126.136 77.1826C125.846 76.2663 125.609 75.5171 125.442 74.9894C125.359 74.7333 125.293 74.5314 125.246 74.3867C125.225 74.3241 125.208 74.274 125.194 74.2342C125.203 74.2334 125.212 74.2342 125.221 74.2317C125.287 74.211 125.325 74.1401 125.304 74.0735C125.283 74.0069 125.212 73.9694 125.146 73.9901C125.079 74.0107 125.042 74.0816 125.062 74.1482C125.079 74.2027 125.13 74.2357 125.184 74.2355C125.195 74.2766 125.21 74.3281 125.228 74.3928C125.27 74.5389 125.33 74.7426 125.406 75.0009C125.567 75.5335 125.796 76.2901 126.075 77.2164L126.08 77.2298L126.092 77.2367C126.48 77.4427 126.902 77.6673 127.356 77.909C127.683 78.9732 128.056 80.1856 128.453 81.4741C128.423 81.5303 128.393 81.5869 128.363 81.644C128.244 81.8709 128.126 82.0949 128.014 82.3065C128.049 82.3039 128.083 82.3005 128.118 82.2975C128.222 82.1004 128.33 81.8943 128.441 81.6848C128.474 81.6218 128.507 81.5597 128.539 81.4983Z" fill="white"/>
<path d="M138.788 73.6759C137.228 74.1549 135.083 74.8134 132.714 75.5409C132.26 75.6812 131.815 75.8189 131.383 75.9528L131.354 75.9618L131.352 75.9916C131.316 76.5806 131.281 77.1482 131.248 77.6868L131.248 77.6945L131.25 77.7015C131.675 79.0568 132.049 80.25 132.343 81.1891C132.36 81.1815 132.376 81.1734 132.393 81.1655C132.107 80.2271 131.744 79.0363 131.331 77.6845C131.365 77.1574 131.4 76.6023 131.437 76.0267C131.861 75.8958 132.296 75.7614 132.74 75.6245C135.106 74.8875 137.248 74.2203 138.807 73.7351C138.905 73.7038 139.001 73.6734 139.095 73.6438C139.102 73.6216 139.109 73.5993 139.116 73.5771C139.01 73.6091 138.901 73.6419 138.788 73.6759Z" fill="white"/>
<path d="M129.96 70.3002L129.966 70.3191L129.984 70.3272C130.149 70.4 130.317 70.4739 130.487 70.5488C130.977 70.7639 131.453 70.9725 131.897 71.1675L131.912 71.1739L131.927 71.1692C133.166 70.7794 134.243 70.4409 135.021 70.1963C135.397 70.0745 135.701 69.9761 135.92 69.9053C136.001 69.8778 136.069 69.8548 136.125 69.8359C136.149 69.8972 136.215 69.9314 136.279 69.9116C136.346 69.891 136.383 69.8201 136.362 69.7535C136.342 69.6866 136.271 69.6494 136.204 69.67C136.14 69.6898 136.105 69.7556 136.12 69.8197C136.063 69.8356 135.994 69.8546 135.912 69.8776C135.691 69.9427 135.385 70.033 135.005 70.1448C134.228 70.3809 133.154 70.7076 131.917 71.0836C131.477 70.8895 131.008 70.6823 130.523 70.4686C130.359 70.3966 130.197 70.3255 130.038 70.2553C129.746 69.3209 129.475 68.4521 129.242 67.7035L129.231 67.668L129.196 67.6793C128.391 67.9347 127.72 68.1478 127.24 68.3003C127.012 68.3752 126.83 68.435 126.696 68.4791C126.669 68.4885 126.645 68.497 126.623 68.5046C126.609 68.4902 126.594 68.4778 126.579 68.4687C126.521 68.432 126.463 68.4308 126.428 68.4382C126.392 68.4459 126.376 68.4591 126.378 68.464C126.379 68.4782 126.46 68.4529 126.543 68.5189C126.546 68.5217 126.549 68.5257 126.553 68.5289C126.522 68.5404 126.506 68.5474 126.506 68.5493C126.507 68.5513 126.524 68.5479 126.557 68.5396C126.559 68.5391 126.561 68.5387 126.562 68.5383C126.591 68.5713 126.613 68.6187 126.608 68.6715C126.604 68.7346 126.558 68.8003 126.489 68.8212C126.419 68.8433 126.344 68.8148 126.305 68.765C126.265 68.7154 126.258 68.6505 126.273 68.6024C126.304 68.5012 126.385 68.4763 126.378 68.4638C126.376 68.4587 126.356 68.4567 126.322 68.4706C126.289 68.4842 126.242 68.5178 126.214 68.5811C126.186 68.6424 126.185 68.7367 126.241 68.8138C126.294 68.891 126.408 68.9389 126.514 68.9049C126.621 68.8729 126.688 68.7688 126.688 68.6754C126.69 68.6124 126.666 68.5589 126.634 68.5187C126.655 68.5129 126.677 68.507 126.703 68.5002C126.838 68.4608 127.022 68.4076 127.253 68.3407C127.728 68.1979 128.389 67.9986 129.182 67.7604C129.411 68.5076 129.675 69.3715 129.96 70.3002Z" fill="white"/>
<path d="M139.108 66.6337C138.666 66.4004 138.204 66.1566 137.734 65.9079L137.718 65.8994L137.7 65.9047C137.668 65.9147 137.633 65.9254 137.598 65.9362C135.771 66.5036 134.064 67.0337 132.624 67.4808C132.307 67.3786 132.007 67.2815 131.721 67.1891L131.71 67.1857L131.7 67.1889C131.33 67.3047 130.99 67.4116 130.674 67.5106L130.662 67.5144L130.656 67.5255C130.339 68.1358 130.075 68.6432 129.871 69.0362L129.867 69.0436L129.87 69.0513C129.977 69.3843 130.06 69.6421 130.118 69.8224C130.146 69.9052 130.167 69.9703 130.184 70.0195C130.199 70.0636 130.208 70.0857 130.21 70.0851C130.211 70.0845 130.206 70.0615 130.194 70.0163C130.18 69.9665 130.161 69.9003 130.137 69.8162C130.084 69.6359 130.008 69.3789 129.909 69.0475C130.117 68.6606 130.383 68.1627 130.703 67.5649C131.014 67.4703 131.348 67.3684 131.71 67.2581C131.996 67.3524 132.295 67.4512 132.612 67.5555L132.624 67.5591L132.635 67.5555C134.078 67.1112 135.791 66.5839 137.624 66.0197C137.653 66.0108 137.681 66.002 137.709 65.9935C138.18 66.2417 138.642 66.4853 139.083 66.718L139.099 66.7263L139.116 66.721C139.199 66.695 139.281 66.6692 139.364 66.6435C139.357 66.6158 139.351 66.5881 139.344 66.5604C139.266 66.5854 139.187 66.6094 139.108 66.6337Z" fill="white"/>
<path d="M120.8 59.5222L120.816 59.5307L120.821 59.5335C121.321 59.7971 121.808 60.0536 122.273 60.2982C122.644 61.484 122.976 62.5468 123.242 63.3977L123.248 63.4147L123.265 63.4192C123.768 63.5499 124.193 63.6606 124.534 63.7492L124.541 63.7509L124.547 63.749C124.842 63.653 125.074 63.5776 125.24 63.5238C125.313 63.4986 125.372 63.4784 125.418 63.4627C125.458 63.4482 125.478 63.4401 125.478 63.4382C125.477 63.4363 125.456 63.4407 125.415 63.4516C125.367 63.4646 125.308 63.4812 125.233 63.502C125.067 63.5508 124.835 63.6189 124.54 63.7056C124.205 63.613 123.789 63.4978 123.298 63.3624C123.037 62.5083 122.712 61.4438 122.349 60.2563L122.344 60.2395L122.328 60.2312C121.863 59.9853 121.375 59.727 120.873 59.462C120.797 59.2189 120.722 58.9789 120.648 58.7422C120.623 58.7567 120.599 58.7718 120.574 58.7865C120.647 59.0228 120.72 59.2625 120.794 59.5052L120.8 59.5222Z" fill="white"/>
<path d="M123.043 60.0215L123.035 60.0366L123.04 60.0526C123.306 60.889 123.532 61.6039 123.697 62.1227C123.778 62.3674 123.843 62.5651 123.892 62.7131C123.938 62.8498 123.965 62.9228 123.97 62.9215C123.974 62.9202 123.955 62.8447 123.917 62.7054C123.874 62.556 123.816 62.3557 123.744 62.1083C123.588 61.5905 123.373 60.8782 123.123 60.0451C123.39 59.5401 123.683 58.9883 123.99 58.4088C124.149 58.1063 124.304 57.811 124.454 57.5262L124.463 57.5102L124.457 57.4934C124.435 57.4236 124.414 57.3557 124.392 57.2871C124.365 57.2931 124.337 57.2986 124.31 57.3048C124.33 57.3704 124.35 57.4351 124.37 57.5019C124.222 57.7817 124.069 58.0712 123.912 58.368C123.604 58.9536 123.311 59.5118 123.043 60.0215Z" fill="white"/>
<path d="M124.454 59.6782C124.464 59.6531 124.467 59.6254 124.458 59.5979C124.438 59.5311 124.367 59.4938 124.3 59.5145C124.233 59.5351 124.196 59.606 124.217 59.6727C124.237 59.7395 124.308 59.7768 124.375 59.7561C124.402 59.7476 124.423 59.7293 124.439 59.7074C124.478 59.7316 124.529 59.7617 124.589 59.7964C124.749 59.8885 124.976 60.0146 125.243 60.1593C125.297 60.3367 125.355 60.5264 125.415 60.725C125.551 61.1657 125.68 61.5634 125.776 61.8499C125.873 62.1365 125.939 62.3119 125.951 62.3083C125.962 62.3047 125.917 62.1228 125.836 61.8316C125.754 61.5404 125.635 61.1399 125.499 60.6992C125.435 60.4955 125.373 60.3007 125.316 60.1195L125.311 60.1031L125.296 60.0955C125.019 59.9528 124.782 59.8338 124.612 59.7523C124.55 59.7223 124.497 59.6974 124.454 59.6782Z" fill="white"/>
<path d="M126.575 62.5827L126.579 62.5961L126.59 62.6042C126.846 62.7799 127.107 62.9593 127.373 63.1426L127.39 63.1541L127.409 63.1482C128.572 62.7892 129.815 62.4056 131.106 62.0073C131.759 61.8053 132.4 61.6068 133.012 61.4174L133.03 61.4118L133.038 61.3948C133.412 60.615 133.773 59.8624 134.115 59.1488C134.093 59.1337 134.07 59.1181 134.047 59.103C133.705 59.8139 133.343 60.5635 132.968 61.3403C132.361 61.5279 131.727 61.7239 131.08 61.9236C129.797 62.3211 128.561 62.7041 127.404 63.0626C127.146 62.8865 126.894 62.7143 126.647 62.5455C125.968 60.3699 125.389 58.5163 124.978 57.2008C124.976 57.1925 124.973 57.1851 124.971 57.1768C124.954 57.1795 124.938 57.1819 124.922 57.1846C124.925 57.1951 124.928 57.2049 124.931 57.2153C125.336 58.5357 125.906 60.3974 126.575 62.5827Z" fill="white"/>
<path d="M128.429 63.5999C128.211 63.664 127.913 63.7511 127.549 63.858C126.804 64.0845 125.791 64.393 124.652 64.7391C124.614 64.6135 124.573 64.4824 124.532 64.3489L124.522 64.3182L124.516 64.2963L124.494 64.2893C124.043 64.1441 123.609 64.0038 123.207 63.8741L123.194 63.8701L123.181 63.8741C122.251 64.1684 121.447 64.4226 120.862 64.6076C120.585 64.6987 120.36 64.7723 120.193 64.8273C120.122 64.852 120.063 64.8724 120.015 64.8894C119.975 64.9043 119.954 64.9133 119.955 64.9156C119.956 64.918 119.978 64.9137 120.019 64.9033C120.069 64.8899 120.129 64.8739 120.201 64.8543C120.37 64.8053 120.597 64.7393 120.878 64.6578C121.462 64.4811 122.265 64.2386 123.193 63.958C123.585 64.0855 124.008 64.2231 124.445 64.3657L124.448 64.3747C124.494 64.5224 124.539 64.6687 124.582 64.8062L124.595 64.8481L124.637 64.8349C125.789 64.4728 126.815 64.1505 127.567 63.914C127.928 63.7964 128.223 63.7006 128.439 63.6304C128.534 63.5978 128.611 63.5712 128.673 63.5497C128.726 63.5305 128.754 63.519 128.753 63.5163C128.752 63.5135 128.723 63.5197 128.668 63.5337C128.604 63.5516 128.526 63.5733 128.429 63.5999Z" fill="white"/>
<path d="M116.852 62.1692C117.18 62.3849 117.501 62.5952 117.802 62.7928L117.819 62.8039L117.838 62.7979C118.629 62.5493 119.342 62.3251 119.926 62.1416C120.07 62.5899 120.189 62.9584 120.276 63.2271C120.31 63.3272 120.338 63.4113 120.362 63.4813C120.356 63.4853 120.352 63.4892 120.353 63.4913C120.353 63.4947 120.358 63.496 120.367 63.4966C120.371 63.5077 120.375 63.5194 120.378 63.5298C120.403 63.5988 120.417 63.6346 120.42 63.6335C120.423 63.6327 120.415 63.595 120.396 63.5243C120.393 63.5162 120.391 63.5066 120.388 63.4979C120.42 63.5 120.468 63.5069 120.518 63.5462C120.557 63.5777 120.588 63.635 120.583 63.6989C120.579 63.7619 120.533 63.8277 120.463 63.8485C120.394 63.8707 120.319 63.8422 120.28 63.7923C120.24 63.7427 120.233 63.6778 120.248 63.6297C120.278 63.5286 120.36 63.5039 120.353 63.4913C120.351 63.4862 120.331 63.4841 120.297 63.4979C120.264 63.5115 120.217 63.5452 120.189 63.6084C120.161 63.6699 120.16 63.764 120.216 63.8413C120.268 63.9186 120.383 63.9667 120.489 63.9324C120.596 63.9005 120.663 63.7964 120.663 63.7029C120.666 63.6075 120.612 63.5305 120.554 63.4958C120.495 63.4592 120.437 63.4581 120.402 63.4653C120.392 63.4675 120.388 63.4702 120.381 63.4728C120.361 63.4019 120.337 63.3172 120.309 63.2165C120.227 62.9395 120.114 62.558 119.976 62.092L119.967 62.0615L119.937 62.0709C119.35 62.2491 118.631 62.4679 117.832 62.7106C117.538 62.5165 117.225 62.3104 116.904 62.0988C116.886 62.1224 116.869 62.1456 116.852 62.1692Z" fill="white"/>
</g>
<path d="M10.5215 80.3478L19.1939 74.6087L20.7244 83.2174L28.8867 66L31.9476 74.6087H41.6403L50.8229 77.4783L56.4345 74.6087L64.0867 66L68.678 71.7391L70.7186 83.2174L74.2896 74.6087H79.9012L83.9824 67.4348L91.6345 74.6087L98.2664 77.4783H105.408L110 71.7391" stroke="white"/>
<rect opacity="0.9" x="8.60938" y="88.9561" width="136.783" height="39.2174" rx="1" fill="#4D748D"/>
<rect x="15.3047" y="105.218" width="4.78261" height="3.82609" fill="#4AC46A"/>
<rect x="21.043" y="104.261" width="4.78261" height="4.78261" fill="#4AC46A"/>
<rect x="26.7812" y="107.131" width="4.78261" height="1.91304" fill="#4AC46A"/>
<rect x="32.5215" y="99.4785" width="4.78261" height="9.56522" fill="#4AC46A"/>
<rect x="38.2617" y="96.6084" width="4.78261" height="12.4348" fill="#4AC46A"/>
<rect x="44" y="106.174" width="4.78261" height="2.86957" fill="#4AC46A"/>
<rect width="4.78261" height="8.6087" transform="matrix(1 0 0 -1 49.7383 117.652)" fill="#D74B44"/>
<rect width="4.78261" height="13.3913" transform="matrix(1 0 0 -1 55.4785 122.435)" fill="#D74B44"/>
<rect width="4.78261" height="15.3043" transform="matrix(1 0 0 -1 61.2188 124.348)" fill="#D74B44"/>
<rect width="4.78261" height="3.82609" transform="matrix(1 0 0 -1 66.957 112.869)" fill="#D74B44"/>
<rect x="72.6953" y="98.5215" width="4.78261" height="10.5217" fill="#4AC46A"/>
<rect x="78.4355" y="100.435" width="4.78261" height="8.6087" fill="#4AC46A"/>
<rect x="84.1738" y="96.6084" width="4.78261" height="12.4348" fill="#4AC46A"/>
<rect x="89.9141" y="101.392" width="4.78261" height="7.65217" fill="#4AC46A"/>
<rect x="95.6523" y="104.261" width="4.78261" height="4.78261" fill="#4AC46A"/>
<rect width="4.78261" height="12.4348" transform="matrix(1 0 0 -1 101.391 121.479)" fill="#D74B44"/>
<rect width="4.78261" height="9.56522" transform="matrix(1 0 0 -1 107.131 118.608)" fill="#D74B44"/>
<rect width="4.78261" height="1.91304" transform="matrix(1 0 0 -1 112.869 110.956)" fill="#D74B44"/>
<rect x="118.609" y="97.5654" width="4.78261" height="11.4783" fill="#4AC46A"/>
<rect x="124.348" y="99.4785" width="4.78261" height="9.56522" fill="#4AC46A"/>
<rect width="4.78261" height="2.86957" transform="matrix(1 0 0 -1 130.088 111.913)" fill="#D74B44"/>
<rect width="4.78261" height="8.6087" transform="matrix(1 0 0 -1 135.826 117.652)" fill="#D74B44"/>
</svg>
