<svg width="220" height="220" viewBox="0 0 220 220" fill="none" xmlns="http://www.w3.org/2000/svg">
<path d="M152.793 110.394H77.9629V27.0273H159.177V104.038C159.176 107.549 156.318 110.394 152.793 110.394Z" fill="#EBEBEB"/>
<path d="M152.469 51.8383C152.469 52.0071 137.79 52.1443 119.687 52.1443C101.578 52.1443 86.9023 52.0071 86.9023 51.8383C86.9023 51.6694 101.578 51.5322 119.687 51.5322C137.79 51.5322 152.469 51.6694 152.469 51.8383Z" fill="#455A64"/>
<path d="M120.075 57.4857C120.075 57.655 112.823 57.7917 103.879 57.7917C94.9321 57.7917 87.6816 57.6546 87.6816 57.4857C87.6816 57.3168 94.9321 57.1797 103.879 57.1797C112.823 57.1797 120.075 57.3168 120.075 57.4857Z" fill="#455A64"/>
<path d="M133.033 56.9624C133.033 57.1317 131.112 57.2684 128.743 57.2684C126.374 57.2684 124.453 57.1313 124.453 56.9624C124.453 56.7935 126.374 56.6564 128.743 56.6564C131.112 56.6564 133.033 56.7935 133.033 56.9624Z" fill="#455A64"/>
<path d="M154.22 56.6138C154.22 56.783 150.417 56.9198 145.727 56.9198C141.036 56.9198 137.234 56.7827 137.234 56.6138C137.234 56.4449 141.036 56.3077 145.727 56.3077C150.417 56.3077 154.22 56.4445 154.22 56.6138Z" fill="#455A64"/>
<path d="M117.37 62.89C117.37 63.0593 110.549 63.196 102.137 63.196C93.7219 63.196 86.9023 63.0589 86.9023 62.89C86.9023 62.7211 93.7219 62.584 102.137 62.584C110.549 62.584 117.37 62.7207 117.37 62.89Z" fill="#455A64"/>
<path d="M154.218 62.7347C154.218 62.904 146.77 63.0408 137.584 63.0408C128.396 63.0408 120.949 62.9036 120.949 62.7347C120.949 62.5659 128.396 62.4287 137.584 62.4287C146.77 62.4287 154.218 62.5659 154.218 62.7347Z" fill="#455A64"/>
<path d="M154.219 68.1732C154.219 68.3425 150.903 68.4792 146.813 68.4792C142.722 68.4792 139.406 68.3421 139.406 68.1732C139.406 68.0043 142.722 67.8672 146.813 67.8672C150.902 67.8672 154.219 68.0043 154.219 68.1732Z" fill="#455A64"/>
<path d="M123.578 45.7865C123.578 45.9558 115.542 46.0925 105.632 46.0925C95.7177 46.0925 87.6836 45.9554 87.6836 45.7865C87.6836 45.6176 95.7177 45.4805 105.632 45.4805C115.542 45.4805 123.578 45.6176 123.578 45.7865Z" fill="#A5E1D3"/>
<path d="M173.504 184.799H16.2661C13.1 184.799 10.5332 182.243 10.5332 179.091V79.4306C10.5332 76.2782 13.1 73.7227 16.2661 73.7227H173.504C176.671 73.7227 179.237 76.2782 179.237 79.4306V179.091C179.237 182.243 176.671 184.799 173.504 184.799Z" fill="#333333"/>
<path d="M179.488 186.302H10.7194C6.8511 186.302 3.71484 183.18 3.71484 179.328V176.583H186.493V179.328C186.493 183.18 183.357 186.302 179.488 186.302Z" fill="#333333"/>
<path d="M174.473 78.1348H15.2969V171.937H174.473V78.1348Z" fill="#35586E"/>
<path d="M78.4904 176.583C78.4872 176.581 78.5466 176.579 78.6659 176.578C78.7957 176.577 78.9729 176.575 79.2007 176.572C79.6856 176.57 80.3838 176.566 81.2795 176.561C83.1064 176.553 85.7361 176.543 88.992 176.529C95.5566 176.515 104.643 176.496 114.779 176.474L114.97 176.474L114.874 176.637C114.549 177.191 114.201 177.786 113.85 178.383C113.482 179.01 113.117 179.633 112.767 180.229L112.735 180.283H112.673C98.6472 180.257 86.6697 180.235 80.7572 180.224H80.7297L80.7155 180.201C79.9882 179.023 79.4282 178.117 79.0441 177.495C78.8627 177.199 78.7233 176.971 78.6238 176.809C78.5321 176.657 78.4904 176.583 78.4904 176.583C78.4904 176.583 78.5474 176.665 78.6486 176.821C78.754 176.983 78.9024 177.211 79.0952 177.508C79.4868 178.115 80.0583 178.999 80.8001 180.149L80.7584 180.126C86.6704 180.115 98.6483 180.092 112.674 180.066L112.58 180.12C112.929 179.523 113.295 178.9 113.662 178.274C114.013 177.676 114.361 177.081 114.686 176.528L114.78 176.691C104.685 176.67 95.6357 176.65 89.0979 176.636C85.8266 176.623 83.1843 176.612 81.3492 176.605C80.4396 176.599 79.7308 176.595 79.2381 176.593C79.0024 176.59 78.8194 176.589 78.6852 176.588C78.5596 176.586 78.4904 176.583 78.4904 176.583Z" fill="#455A64"/>
<path d="M179.239 176.584C179.239 176.641 141.47 176.686 94.8913 176.686C48.2958 176.686 10.5352 176.64 10.5352 176.584C10.5352 176.528 48.2958 176.482 94.8913 176.482C141.47 176.482 179.239 176.528 179.239 176.584Z" fill="#455A64"/>
<path d="M136.184 59.4027C138.787 59.4027 140.896 61.5034 140.896 64.0946V73.7226H126.805V64.8403C126.805 61.8372 129.25 59.4023 132.266 59.4023L136.184 59.4027Z" fill="#333333"/>
<path d="M136.182 59.403C136.182 59.4594 122.886 59.4935 106.489 59.479C90.0857 59.4645 76.7926 59.4073 76.793 59.3508C76.793 59.2944 90.0861 59.2603 106.489 59.2748C122.886 59.2893 136.182 59.3465 136.182 59.403Z" fill="#333333"/>
<path d="M136.059 59.3909L130.183 59.3506L121.646 59.4023H58.9367C53.6115 59.4023 49.2949 63.7004 49.2949 69.002V170.39V172.163H130.508V64.6659C130.746 59.4027 136.059 59.3909 136.059 59.3909Z" fill="#FAFAFA"/>
<path d="M136.058 59.3903L87.0897 59.4968L62.6049 59.5152L59.5442 59.5172C59.0314 59.5074 58.5292 59.5372 58.0263 59.5638C57.5284 59.634 57.0251 59.6888 56.5414 59.8334C54.5807 60.317 52.8227 61.4878 51.544 63.0332C50.9064 63.8114 50.4113 64.6981 50.0489 65.6315C49.9698 65.8689 49.8604 66.0974 49.8053 66.3427L49.6175 67.0711C49.5408 67.5664 49.446 68.0601 49.4424 68.5629C49.3991 70.5816 49.4326 72.6223 49.4239 74.6509L49.4896 172.162L49.294 171.967L130.507 172.02L130.364 172.162L130.404 114.168L130.451 85.1718L130.479 70.6741L130.486 67.0496L130.49 65.2373C130.491 64.9352 130.48 64.6331 130.528 64.3321C130.565 64.032 130.577 63.7271 130.671 63.4368C130.939 62.2621 131.615 61.1551 132.637 60.4847C133.134 60.1379 133.689 59.873 134.27 59.6994C134.85 59.5235 135.452 59.4095 136.058 59.3903ZM136.058 59.3903C135.452 59.4114 134.851 59.5282 134.272 59.7065C133.692 59.882 133.139 60.1489 132.645 60.4968C131.629 61.1696 130.961 62.2738 130.698 63.4438C130.606 63.733 130.596 64.0363 130.56 64.3353C130.514 64.6339 130.525 64.9368 130.525 65.2385L130.529 67.0507L130.536 70.6753L130.564 85.1738L130.611 114.17L130.65 172.162V172.304H130.507L49.2936 172.357H49.0977V172.162L49.1634 74.6505C49.1748 72.6168 49.1433 70.5926 49.1901 68.5507C49.1953 68.035 49.2925 67.528 49.3724 67.0202L49.566 66.2729C49.6231 66.0214 49.7348 65.7871 49.8167 65.5433C50.1898 64.5861 50.6994 63.677 51.3543 62.88C52.6672 61.2969 54.4717 60.0999 56.4816 59.6062C56.9774 59.4588 57.4934 59.4028 58.0035 59.3323C58.5194 59.3048 59.0358 59.2758 59.5434 59.2864L62.6041 59.2884L87.0885 59.3068L136.058 59.3903Z" fill="#333333"/>
<path d="M61.5295 77.9639H75.7015L75.7243 82.6903H75.0462C74.8238 80.9995 74.1878 79.8557 73.1382 79.2585C72.5479 78.9294 71.6671 78.7499 70.4943 78.7189V91.0651C70.4943 91.9279 70.6458 92.5004 70.9485 92.7829C71.2511 93.0658 71.8812 93.2069 72.8391 93.2069V93.8017H64.4489V93.2069C65.3682 93.2069 65.9794 93.0638 66.2821 92.7774C66.5843 92.491 66.7358 91.9201 66.7358 91.0651V78.7189C65.5866 78.7499 64.7055 78.9294 64.0923 79.2585C62.966 79.871 62.3296 81.0143 62.1844 82.6903H61.5059L61.5295 77.9639Z" fill="#35586E"/>
<path d="M119.365 79.0287C119.365 79.1976 111.547 79.3347 101.906 79.3347C92.2614 79.3347 84.4453 79.1976 84.4453 79.0287C84.4453 78.8598 92.2614 78.7227 101.906 78.7227C111.547 78.7227 119.365 78.8598 119.365 79.0287Z" fill="#A5E1D3"/>
<path d="M98.6459 84.5853C98.6459 84.7546 95.6234 84.8914 91.8956 84.8914C88.1667 84.8914 85.1445 84.7542 85.1445 84.5853C85.1445 84.4164 88.1667 84.2793 91.8956 84.2793C95.6234 84.2793 98.6459 84.4164 98.6459 84.5853Z" fill="#455A64"/>
<path d="M81.6293 101.529C81.6293 101.698 75.8889 101.835 68.8096 101.835C61.7275 101.835 55.9883 101.698 55.9883 101.529C55.9883 101.36 61.7275 101.223 68.8096 101.223C75.8889 101.223 81.6293 101.359 81.6293 101.529Z" fill="#455A64"/>
<path d="M110.664 101.529C110.664 101.698 104.924 101.835 97.8447 101.835C90.7627 101.835 85.0234 101.698 85.0234 101.529C85.0234 101.36 90.7627 101.223 97.8447 101.223C104.924 101.223 110.664 101.359 110.664 101.529Z" fill="#A5E1D3"/>
<path d="M81.6293 106.054C81.6293 106.224 75.8889 106.36 68.8096 106.36C61.7275 106.36 55.9883 106.223 55.9883 106.054C55.9883 105.885 61.7275 105.748 68.8096 105.748C75.8889 105.748 81.6293 105.885 81.6293 106.054Z" fill="#455A64"/>
<path d="M81.6293 110.579C81.6293 110.749 75.8889 110.885 68.8096 110.885C61.7275 110.885 55.9883 110.748 55.9883 110.579C55.9883 110.411 61.7275 110.273 68.8096 110.273C75.8889 110.273 81.6293 110.41 81.6293 110.579Z" fill="#A5E1D3"/>
<path d="M98.6459 93.8011C98.6459 93.9704 95.6234 94.1072 91.8956 94.1072C88.1667 94.1072 85.1445 93.97 85.1445 93.8011C85.1445 93.6323 88.1667 93.4951 91.8956 93.4951C95.6234 93.4951 98.6459 93.6323 98.6459 93.8011Z" fill="#455A64"/>
<path d="M122.064 101.529C122.064 101.698 120.049 101.835 117.563 101.835C115.077 101.835 113.062 101.698 113.062 101.529C113.062 101.36 115.077 101.223 117.563 101.223C120.049 101.223 122.064 101.359 122.064 101.529Z" fill="#455A64"/>
<path d="M124.471 84.5853C124.471 84.7546 119.285 84.8914 112.889 84.8914C106.49 84.8914 101.305 84.7542 101.305 84.5853C101.305 84.4164 106.49 84.2793 112.889 84.2793C119.285 84.2793 124.471 84.4164 124.471 84.5853Z" fill="#455A64"/>
<path d="M123.425 88.9974C123.425 89.1667 114.855 89.3035 104.286 89.3035C93.7127 89.3035 85.1445 89.1663 85.1445 88.9974C85.1445 88.8285 93.7127 88.6914 104.286 88.6914C114.855 88.6914 123.425 88.8285 123.425 88.9974Z" fill="#455A64"/>
<path d="M122.062 106.054C122.062 106.223 113.77 106.36 103.543 106.36C93.3137 106.36 85.0234 106.223 85.0234 106.054C85.0234 105.885 93.3137 105.748 103.543 105.748C113.77 105.748 122.062 105.885 122.062 106.054Z" fill="#455A64"/>
<path d="M122.062 119.155C122.062 119.324 114.281 119.461 104.685 119.461C95.0861 119.461 87.3066 119.324 87.3066 119.155C87.3066 118.986 95.0857 118.849 104.685 118.849C114.281 118.848 122.062 118.985 122.062 119.155Z" fill="#A5E1D3"/>
<path d="M122.062 123.558C122.062 123.727 114.281 123.864 104.685 123.864C95.0861 123.864 87.3066 123.727 87.3066 123.558C87.3066 123.389 95.0857 123.252 104.685 123.252C114.281 123.252 122.062 123.389 122.062 123.558Z" fill="#455A64"/>
<path d="M122.062 127.962C122.062 128.132 114.281 128.268 104.685 128.268C95.0861 128.268 87.3066 128.131 87.3066 127.962C87.3066 127.793 95.0857 127.656 104.685 127.656C114.281 127.656 122.062 127.793 122.062 127.962Z" fill="#455A64"/>
<path d="M122.062 132.366C122.062 132.534 114.281 132.672 104.685 132.672C95.0861 132.672 87.3066 132.534 87.3066 132.366C87.3066 132.197 95.0857 132.06 104.685 132.06C114.281 132.06 122.062 132.197 122.062 132.366Z" fill="#455A64"/>
<path d="M107.315 136.772C107.315 136.856 106.195 136.933 104.385 136.989C102.574 137.044 100.073 137.078 97.3112 137.078C94.5481 137.078 92.047 137.044 90.2367 136.989C88.4263 136.933 87.3066 136.856 87.3066 136.772C87.3066 136.687 88.4263 136.611 90.2367 136.556C92.047 136.5 94.5481 136.466 97.3112 136.466C100.073 136.466 102.574 136.5 104.385 136.556C106.195 136.611 107.315 136.687 107.315 136.772Z" fill="#455A64"/>
<path d="M115.764 110.815C115.764 110.984 109.062 111.121 100.797 111.121C92.5284 111.121 85.8281 110.984 85.8281 110.815C85.8281 110.646 92.5284 110.509 100.797 110.509C109.062 110.509 115.764 110.646 115.764 110.815Z" fill="#455A64"/>
<path d="M81.0223 119.652L82.8665 153.647L49.4811 157.81L49.4551 119.363L81.0223 119.652Z" fill="#E0E0E0"/>
<path d="M37.7924 117.29L37.5605 153.354L82.8676 153.642L83.0994 117.578L37.7924 117.29Z" fill="#F5F5F5"/>
<path d="M39.3394 119.572L39.1367 151.095L81.2607 151.363L81.4633 119.84L39.3394 119.572Z" fill="#A5E1D3"/>
<g opacity="0.2">
<path d="M39.1367 151.098L53.9758 131.598L63.0103 143.915L69.234 137.401L81.2599 151.367L39.1367 151.098Z" fill="black"/>
</g>
<g opacity="0.2">
<path d="M66.9733 129.28C66.9615 131.103 65.4672 132.572 63.6352 132.561C61.8035 132.549 60.3281 131.061 60.3399 129.237C60.3517 127.413 61.8461 125.944 63.6781 125.956C65.5101 125.968 66.9851 127.456 66.9733 129.28Z" fill="black"/>
</g>
<path d="M87.2292 162.157C87.2292 162.543 86.9155 162.855 86.5287 162.855C86.1418 162.855 85.8281 162.543 85.8281 162.157C85.8281 161.772 86.1418 161.46 86.5287 161.46C86.9159 161.46 87.2292 161.772 87.2292 162.157Z" fill="#333333"/>
<path d="M91.3874 162.157C91.3874 162.543 91.0737 162.855 90.6869 162.855C90.3 162.855 89.9863 162.543 89.9863 162.157C89.9863 161.772 90.3 161.46 90.6869 161.46C91.0737 161.46 91.3874 161.772 91.3874 162.157Z" fill="#333333"/>
<path d="M95.5436 162.157C95.5436 162.543 95.23 162.855 94.8431 162.855C94.4562 162.855 94.1426 162.543 94.1426 162.157C94.1426 161.772 94.4562 161.46 94.8431 161.46C95.23 161.46 95.5436 161.772 95.5436 162.157Z" fill="#333333"/>
<path d="M110.86 145.949C110.86 146.117 105.119 146.255 98.04 146.255C90.958 146.255 85.2188 146.117 85.2188 145.949C85.2188 145.78 90.958 145.643 98.04 145.643C105.119 145.643 110.86 145.78 110.86 145.949Z" fill="#A5E1D3"/>
<path d="M122.257 150.475C122.257 150.644 113.965 150.781 103.739 150.781C93.509 150.781 85.2188 150.644 85.2188 150.475C85.2188 150.306 93.509 150.169 103.739 150.169C113.965 150.169 122.257 150.306 122.257 150.475Z" fill="#455A64"/>
<path d="M177.47 158.003L177.33 179.727L204.621 179.9L204.761 158.177L177.47 158.003Z" fill="#F5F5F5"/>
<path d="M178.401 159.376L178.279 178.364L203.653 178.526L203.775 159.538L178.401 159.376Z" fill="#A5E1D3"/>
<path opacity="0.2" d="M178.281 178.372L187.219 166.626L192.661 174.045L196.41 170.122L203.654 178.534L178.281 178.372Z" fill="black"/>
<g opacity="0.2">
<path d="M195.05 165.231C195.043 166.33 194.143 167.215 193.04 167.208C191.936 167.201 191.048 166.305 191.055 165.206C191.062 164.107 191.962 163.222 193.065 163.23C194.169 163.237 195.058 164.133 195.05 165.231Z" fill="black"/>
</g>
<path d="M173.468 155.736L173.328 177.459L200.619 177.633L200.759 155.91L173.468 155.736Z" fill="#F5F5F5"/>
<path d="M174.399 157.109L174.277 176.097L199.651 176.258L199.773 157.27L174.399 157.109Z" fill="#A5E1D3"/>
<path opacity="0.2" d="M174.281 176.104L183.219 164.359L188.661 171.778L192.41 167.854L199.654 176.267L174.281 176.104Z" fill="black"/>
<g opacity="0.2">
<path d="M191.049 162.964C191.041 164.063 190.141 164.947 189.038 164.94C187.934 164.933 187.046 164.037 187.053 162.939C187.06 161.84 187.96 160.955 189.063 160.962C190.167 160.969 191.056 161.866 191.049 162.964Z" fill="black"/>
</g>
<path d="M169.903 153.861L169.764 175.584L197.055 175.758L197.195 154.035L169.903 153.861Z" fill="#F5F5F5"/>
<path d="M170.835 155.233L170.713 174.222L196.087 174.383L196.209 155.395L170.835 155.233Z" fill="#A5E1D3"/>
<path opacity="0.2" d="M170.715 174.229L179.653 162.483L185.095 169.903L188.844 165.979L196.088 174.391L170.715 174.229Z" fill="black"/>
<g opacity="0.2">
<path d="M187.484 161.089C187.477 162.188 186.577 163.072 185.473 163.065C184.37 163.058 183.481 162.162 183.488 161.063C183.495 159.965 184.395 159.08 185.499 159.087C186.603 159.094 187.491 159.991 187.484 161.089Z" fill="black"/>
</g>
<path d="M165.903 156.195L165.764 177.918L193.055 178.092L193.195 156.369L165.903 156.195Z" fill="#F5F5F5"/>
<path d="M166.835 157.567L166.713 176.556L192.087 176.717L192.209 157.729L166.835 157.567Z" fill="#455A64"/>
<path opacity="0.2" d="M166.715 176.564L175.653 164.817L181.095 172.237L184.844 168.313L192.088 176.726L166.715 176.564Z" fill="black"/>
<g opacity="0.2">
<path d="M183.484 163.423C183.477 164.522 182.577 165.406 181.473 165.399C180.37 165.392 179.481 164.496 179.488 163.397C179.495 162.299 180.395 161.414 181.499 161.421C182.603 161.428 183.491 162.324 183.484 163.423Z" fill="black"/>
</g>
<path d="M208.951 164.279H193.195V185.254H208.951V164.279Z" fill="#333333"/>
<path d="M163.02 164.279V185.254H194.532V164.279H163.02ZM182.126 169.243H175.426C174.625 169.243 173.976 168.597 173.976 167.8C173.976 167.002 174.626 166.356 175.426 166.356H182.126C182.926 166.356 183.575 167.002 183.575 167.8C183.575 168.597 182.926 169.243 182.126 169.243Z" fill="#A5E1D3"/>
<path d="M155.36 123.106C154.216 123.465 153.72 125.088 154.47 126.02C155.219 126.953 156.919 126.827 157.521 125.794C158.124 124.762 157.392 123.229 156.208 123.043" fill="#EBEBEB"/>
<path d="M160.68 115.406C159.368 115.818 158.799 117.68 159.659 118.75C160.519 119.819 162.468 119.675 163.16 118.49C163.851 117.306 163.012 115.548 161.652 115.334" fill="#EBEBEB"/>
<path d="M172.045 81.4715C168.484 81.1721 164.883 81.9636 162.442 84.5607C160.001 87.1582 158.837 90.8941 159.373 94.4108C155.586 95.9774 153.521 100.772 154.992 104.583C156.464 108.394 161.222 110.578 165.088 109.216C166.825 113.6 170.997 116.935 175.672 117.675C180.346 118.416 185.352 116.536 188.37 112.906C192.084 113.742 196.253 113.687 199.373 111.515C202.493 109.342 203.905 104.561 201.527 101.6C205.806 100.563 207.98 95.2427 206.711 91.0445C205.443 86.8463 201.645 83.8335 197.588 82.1278C194.907 81.0001 191.565 80.4115 189.278 82.203C187.447 79.3986 184.207 77.5581 180.851 77.4151C177.494 77.2737 174.109 78.8328 172.045 81.4715Z" fill="#F5F5F5"/>
<path d="M172.044 81.471C172.044 81.471 172.114 81.3766 172.26 81.1971C172.401 81.0145 172.632 80.759 172.95 80.4381C173.593 79.8104 174.64 78.9311 176.238 78.2414C177.035 77.9005 177.965 77.6071 179.017 77.4589C180.067 77.3194 181.24 77.3089 182.461 77.564C183.682 77.8022 184.945 78.2947 186.145 79.0479C187.336 79.8104 188.465 80.8452 189.335 82.1657L189.234 82.1493C190.155 81.4373 191.355 81.0294 192.603 80.9984C193.852 80.953 195.139 81.1865 196.397 81.6011C197.657 82.0188 198.902 82.5932 200.114 83.2981C201.324 84.005 202.505 84.8502 203.56 85.8863C204.624 86.9094 205.548 88.1382 206.222 89.5312C206.544 90.2345 206.813 90.9712 206.98 91.747C207.12 92.524 207.204 93.325 207.139 94.1298C207.035 95.7336 206.539 97.3594 205.601 98.75C205.126 99.4353 204.569 100.089 203.872 100.589C203.182 101.094 202.394 101.475 201.551 101.695L201.604 101.538C202.116 102.187 202.48 102.958 202.661 103.776C202.845 104.594 202.855 105.452 202.723 106.291C202.456 107.971 201.615 109.574 200.371 110.808C199.111 112.043 197.431 112.808 195.687 113.191C193.933 113.573 192.097 113.58 190.294 113.349C189.635 113.269 188.986 113.141 188.348 113.006L188.45 112.971C185.181 116.873 179.835 118.625 175.151 117.676C172.807 117.207 170.657 116.105 168.911 114.627C167.163 113.147 165.81 111.281 165 109.25L165.119 109.304C162.88 110.074 160.433 109.68 158.513 108.616C156.573 107.563 155.12 105.752 154.648 103.739C154.165 101.726 154.558 99.6548 155.447 97.989C156.339 96.3139 157.748 95.0162 159.346 94.3453L159.303 94.4209C159.062 92.7893 159.193 91.2008 159.548 89.7674C159.921 88.3357 160.515 87.0543 161.246 85.9772C161.605 85.4333 162.014 84.9537 162.422 84.5074C162.848 84.0783 163.279 83.6829 163.739 83.3667C164.643 82.7096 165.587 82.2954 166.453 82.009C168.199 81.4471 169.638 81.3989 170.59 81.393C171.546 81.4028 172.044 81.471 172.044 81.471C172.044 81.471 171.918 81.4698 171.674 81.4573C171.43 81.4412 171.066 81.4322 170.589 81.4334C169.64 81.4522 168.207 81.5133 166.477 82.0831C165.619 82.373 164.685 82.7891 163.794 83.4443C163.34 83.7597 162.917 84.1528 162.497 84.5791C162.095 85.023 161.692 85.4999 161.338 86.0403C160.619 87.11 160.035 88.3811 159.671 89.7992C159.323 91.2188 159.199 92.7901 159.442 94.4006L159.45 94.4546L159.399 94.4762C157.836 95.1376 156.456 96.4142 155.583 98.0619C154.713 99.7002 154.334 101.735 154.81 103.7C155.274 105.663 156.696 107.432 158.599 108.461C160.482 109.501 162.878 109.88 165.056 109.128L165.141 109.099L165.174 109.182C165.974 111.182 167.311 113.022 169.037 114.479C170.76 115.936 172.881 117.021 175.19 117.481C179.8 118.414 185.077 116.683 188.291 112.842L188.331 112.794L188.393 112.807C189.025 112.941 189.667 113.068 190.319 113.147C192.105 113.377 193.918 113.368 195.642 112.993C197.356 112.618 199.006 111.863 200.229 110.664C201.441 109.464 202.264 107.896 202.525 106.26C202.796 104.632 202.453 102.914 201.45 101.662L201.356 101.544L201.504 101.505C202.321 101.292 203.085 100.924 203.755 100.435C204.432 99.9494 204.976 99.3123 205.441 98.6434C206.359 97.2861 206.849 95.6909 206.952 94.1184C207.017 93.3293 206.935 92.5444 206.799 91.7839C206.637 91.0268 206.374 90.3 206.058 89.6084C205.396 88.2369 204.488 87.0234 203.438 86.0101C202.397 84.9842 201.229 84.1445 200.03 83.4408C198.829 82.7394 197.592 82.1657 196.348 81.75C195.104 81.337 193.834 81.1046 192.609 81.1458C191.384 81.1736 190.218 81.5686 189.32 82.2574L189.26 82.3033L189.219 82.2406C188.365 80.9357 187.253 79.9095 186.078 79.1517C184.894 78.4029 183.646 77.9107 182.439 77.6697C181.232 77.4123 180.071 77.4174 179.03 77.5498C177.987 77.6913 177.062 77.977 176.268 78.3104C174.676 78.9844 173.627 79.8492 172.977 80.4659C172.656 80.781 172.421 81.0313 172.275 81.2096C172.125 81.3848 172.044 81.471 172.044 81.471Z" fill="#333333"/>
<path d="M196.379 93.6859C196.379 93.8552 189.4 93.9919 180.793 93.9919C172.182 93.9919 165.205 93.8548 165.205 93.6859C165.205 93.517 172.183 93.3799 180.793 93.3799C189.4 93.3799 196.379 93.517 196.379 93.6859Z" fill="#455A64"/>
<path d="M196.379 97.0521C196.379 97.2214 189.4 97.3581 180.793 97.3581C172.182 97.3581 165.205 97.221 165.205 97.0521C165.205 96.8832 172.183 96.7461 180.793 96.7461C189.4 96.7461 196.379 96.8828 196.379 97.0521Z" fill="#455A64"/>
<path d="M196.379 100.419C196.379 100.589 189.4 100.725 180.793 100.725C172.182 100.725 165.205 100.588 165.205 100.419C165.205 100.251 172.183 100.113 180.793 100.113C189.4 100.113 196.379 100.251 196.379 100.419Z" fill="#455A64"/>
<path d="M196.379 103.789C196.379 103.957 189.4 104.095 180.793 104.095C172.182 104.095 165.205 103.957 165.205 103.789C165.205 103.62 172.183 103.483 180.793 103.483C189.4 103.483 196.379 103.62 196.379 103.789Z" fill="#455A64"/>
</svg>
