<svg width="40" height="40" viewBox="0 0 40 40" fill="none" xmlns="http://www.w3.org/2000/svg">
<g clip-path="url(#clip0_475_19)">
<path d="M36 0H4C1.79086 0 0 1.79086 0 4V36C0 38.2091 1.79086 40 4 40H36C38.2091 40 40 38.2091 40 36V4C40 1.79086 38.2091 0 36 0Z" fill="transparent"/>
<path d="M12 10C12 11.1046 11.1046 12 10 12C8.89543 12 8 11.1046 8 10C8 8.89543 8.89543 8 10 8C11.1046 8 12 8.89543 12 10Z" fill="#35586E"/>
<path d="M12 20C12 21.1046 11.1046 22 10 22C8.89543 22 8 21.1046 8 20C8 18.8954 8.89543 18 10 18C11.1046 18 12 18.8954 12 20Z" fill="#35586E"/>
<path d="M12 30C12 31.1046 11.1046 32 10 32C8.89543 32 8 31.1046 8 30C8 28.8954 8.89543 28 10 28C11.1046 28 12 28.8954 12 30Z" fill="#35586E"/>
<path d="M16 10C16 8.89543 16.8954 8 18 8H31C32.1046 8 33 8.89543 33 10C33 11.1046 32.1046 12 31 12H18C16.8954 12 16 11.1046 16 10Z" fill="#35586E"/>
<path d="M16 20C16 18.8954 16.8954 18 18 18H31C32.1046 18 33 18.8954 33 20C33 21.1046 32.1046 22 31 22H18C16.8954 22 16 21.1046 16 20Z" fill="#35586E"/>
<path d="M16 30C16 28.8954 16.8954 28 18 28H31C32.1046 28 33 28.8954 33 30C33 31.1046 32.1046 32 31 32H18C16.8954 32 16 31.1046 16 30Z" fill="#35586E"/>
</g>
<defs>
<clipPath id="clip0_475_19">
<rect width="40" height="40" fill="transparent"/>
</clipPath>
</defs>
</svg>
