<svg width="40" height="40" viewBox="0 0 40 40" fill="none" xmlns="http://www.w3.org/2000/svg">
<path d="M28.334 29.9997C28.334 29.0792 29.0802 28.333 30.0007 28.333C30.9211 28.333 31.6673 29.0792 31.6673 29.9997C31.6673 30.9201 30.9211 31.6663 30.0007 31.6663C29.0802 31.6663 28.334 30.9201 28.334 29.9997Z" fill="#35586E"/>
<path fill-rule="evenodd" clip-rule="evenodd" d="M27.4336 29.9998C27.4336 28.5822 28.5827 27.4331 30.0003 27.4331C31.4178 27.4331 32.5669 28.5822 32.5669 29.9998C32.5669 31.4173 31.4178 32.5664 30.0003 32.5664C28.5827 32.5664 27.4336 31.4173 27.4336 29.9998ZM30.0003 29.2331C29.5768 29.2331 29.2336 29.5764 29.2336 29.9998C29.2336 30.4232 29.5768 30.7664 30.0003 30.7664C30.4237 30.7664 30.7669 30.4232 30.7669 29.9998C30.7669 29.5764 30.4237 29.2331 30.0003 29.2331Z" fill="#35586E"/>
<path d="M18.334 29.9997C18.334 29.0792 19.0802 28.333 20.0007 28.333C20.9211 28.333 21.6673 29.0792 21.6673 29.9997C21.6673 30.9201 20.9211 31.6663 20.0007 31.6663C19.0802 31.6663 18.334 30.9201 18.334 29.9997Z" fill="#35586E"/>
<path fill-rule="evenodd" clip-rule="evenodd" d="M17.4336 29.9998C17.4336 28.5822 18.5827 27.4331 20.0003 27.4331C21.4178 27.4331 22.5669 28.5822 22.5669 29.9998C22.5669 31.4173 21.4178 32.5664 20.0003 32.5664C18.5827 32.5664 17.4336 31.4173 17.4336 29.9998ZM20.0003 29.2331C19.5768 29.2331 19.2336 29.5764 19.2336 29.9998C19.2336 30.4232 19.5768 30.7664 20.0003 30.7664C20.4237 30.7664 20.7669 30.4232 20.7669 29.9998C20.7669 29.5764 20.4237 29.2331 20.0003 29.2331Z" fill="#35586E"/>
<path d="M8.33398 29.9997C8.33398 29.0792 9.08018 28.333 10.0007 28.333C10.9211 28.333 11.6673 29.0792 11.6673 29.9997C11.6673 30.9201 10.9211 31.6663 10.0007 31.6663C9.08018 31.6663 8.33398 30.9201 8.33398 29.9997Z" fill="#35586E"/>
<path fill-rule="evenodd" clip-rule="evenodd" d="M7.43359 29.9998C7.43359 28.5822 8.58273 27.4331 10.0003 27.4331C11.4178 27.4331 12.5669 28.5822 12.5669 29.9998C12.5669 31.4173 11.4178 32.5664 10.0003 32.5664C8.58273 32.5664 7.43359 31.4173 7.43359 29.9998ZM10.0003 29.2331C9.57684 29.2331 9.23359 29.5764 9.23359 29.9998C9.23359 30.4232 9.57684 30.7664 10.0003 30.7664C10.4237 30.7664 10.7669 30.4232 10.7669 29.9998C10.7669 29.5764 10.4237 29.2331 10.0003 29.2331Z" fill="#35586E"/>
<path d="M28.334 19.9997C28.334 19.0792 29.0802 18.333 30.0007 18.333C30.9211 18.333 31.6673 19.0792 31.6673 19.9997C31.6673 20.9201 30.9211 21.6663 30.0007 21.6663C29.0802 21.6663 28.334 20.9201 28.334 19.9997Z" fill="#35586E"/>
<path fill-rule="evenodd" clip-rule="evenodd" d="M27.4336 19.9998C27.4336 18.5822 28.5827 17.4331 30.0003 17.4331C31.4178 17.4331 32.5669 18.5822 32.5669 19.9998C32.5669 21.4173 31.4178 22.5664 30.0003 22.5664C28.5827 22.5664 27.4336 21.4173 27.4336 19.9998ZM30.0003 19.2331C29.5768 19.2331 29.2336 19.5764 29.2336 19.9998C29.2336 20.4232 29.5768 20.7664 30.0003 20.7664C30.4237 20.7664 30.7669 20.4232 30.7669 19.9998C30.7669 19.5764 30.4237 19.2331 30.0003 19.2331Z" fill="#35586E"/>
<path d="M18.334 19.9997C18.334 19.0792 19.0802 18.333 20.0007 18.333C20.9211 18.333 21.6673 19.0792 21.6673 19.9997C21.6673 20.9201 20.9211 21.6663 20.0007 21.6663C19.0802 21.6663 18.334 20.9201 18.334 19.9997Z" fill="#35586E"/>
<path fill-rule="evenodd" clip-rule="evenodd" d="M17.4336 19.9998C17.4336 18.5822 18.5827 17.4331 20.0003 17.4331C21.4178 17.4331 22.5669 18.5822 22.5669 19.9998C22.5669 21.4173 21.4178 22.5664 20.0003 22.5664C18.5827 22.5664 17.4336 21.4173 17.4336 19.9998ZM20.0003 19.2331C19.5768 19.2331 19.2336 19.5764 19.2336 19.9998C19.2336 20.4232 19.5768 20.7664 20.0003 20.7664C20.4237 20.7664 20.7669 20.4232 20.7669 19.9998C20.7669 19.5764 20.4237 19.2331 20.0003 19.2331Z" fill="#35586E"/>
<path d="M8.33398 19.9997C8.33398 19.0792 9.08018 18.333 10.0007 18.333C10.9211 18.333 11.6673 19.0792 11.6673 19.9997C11.6673 20.9201 10.9211 21.6663 10.0007 21.6663C9.08018 21.6663 8.33398 20.9201 8.33398 19.9997Z" fill="#35586E"/>
<path fill-rule="evenodd" clip-rule="evenodd" d="M7.43359 19.9998C7.43359 18.5822 8.58273 17.4331 10.0003 17.4331C11.4178 17.4331 12.5669 18.5822 12.5669 19.9998C12.5669 21.4173 11.4178 22.5664 10.0003 22.5664C8.58273 22.5664 7.43359 21.4173 7.43359 19.9998ZM10.0003 19.2331C9.57684 19.2331 9.23359 19.5764 9.23359 19.9998C9.23359 20.4232 9.57684 20.7664 10.0003 20.7664C10.4237 20.7664 10.7669 20.4232 10.7669 19.9998C10.7669 19.5764 10.4237 19.2331 10.0003 19.2331Z" fill="#35586E"/>
<path d="M28.334 9.99967C28.334 9.0792 29.0802 8.33301 30.0007 8.33301C30.9211 8.33301 31.6673 9.0792 31.6673 9.99967C31.6673 10.9201 30.9211 11.6663 30.0007 11.6663C29.0802 11.6663 28.334 10.9201 28.334 9.99967Z" fill="#35586E"/>
<path fill-rule="evenodd" clip-rule="evenodd" d="M27.4336 9.99977C27.4336 8.58224 28.5827 7.43311 30.0003 7.43311C31.4178 7.43311 32.5669 8.58224 32.5669 9.99977C32.5669 11.4173 31.4178 12.5664 30.0003 12.5664C28.5827 12.5664 27.4336 11.4173 27.4336 9.99977ZM30.0003 9.23311C29.5768 9.23311 29.2336 9.57635 29.2336 9.99977C29.2336 10.4232 29.5768 10.7664 30.0003 10.7664C30.4237 10.7664 30.7669 10.4232 30.7669 9.99977C30.7669 9.57635 30.4237 9.23311 30.0003 9.23311Z" fill="#35586E"/>
<path d="M18.334 9.99967C18.334 9.0792 19.0802 8.33301 20.0007 8.33301C20.9211 8.33301 21.6673 9.0792 21.6673 9.99967C21.6673 10.9201 20.9211 11.6663 20.0007 11.6663C19.0802 11.6663 18.334 10.9201 18.334 9.99967Z" fill="#35586E"/>
<path fill-rule="evenodd" clip-rule="evenodd" d="M17.4336 9.99977C17.4336 8.58224 18.5827 7.43311 20.0003 7.43311C21.4178 7.43311 22.5669 8.58224 22.5669 9.99977C22.5669 11.4173 21.4178 12.5664 20.0003 12.5664C18.5827 12.5664 17.4336 11.4173 17.4336 9.99977ZM20.0003 9.23311C19.5768 9.23311 19.2336 9.57635 19.2336 9.99977C19.2336 10.4232 19.5768 10.7664 20.0003 10.7664C20.4237 10.7664 20.7669 10.4232 20.7669 9.99977C20.7669 9.57635 20.4237 9.23311 20.0003 9.23311Z" fill="#35586E"/>
<path d="M8.33398 9.99967C8.33398 9.0792 9.08018 8.33301 10.0007 8.33301C10.9211 8.33301 11.6673 9.0792 11.6673 9.99967C11.6673 10.9201 10.9211 11.6663 10.0007 11.6663C9.08018 11.6663 8.33398 10.9201 8.33398 9.99967Z" fill="#35586E"/>
<path fill-rule="evenodd" clip-rule="evenodd" d="M7.43359 9.99977C7.43359 8.58224 8.58273 7.43311 10.0003 7.43311C11.4178 7.43311 12.5669 8.58224 12.5669 9.99977C12.5669 11.4173 11.4178 12.5664 10.0003 12.5664C8.58273 12.5664 7.43359 11.4173 7.43359 9.99977ZM10.0003 9.23311C9.57684 9.23311 9.23359 9.57635 9.23359 9.99977C9.23359 10.4232 9.57684 10.7664 10.0003 10.7664C10.4237 10.7664 10.7669 10.4232 10.7669 9.99977C10.7669 9.57635 10.4237 9.23311 10.0003 9.23311Z" fill="#35586E"/>
</svg>
