<svg width="18" height="18" viewBox="0 0 18 18" fill="none" xmlns="http://www.w3.org/2000/svg">
<path fill-rule="evenodd" clip-rule="evenodd" d="M4.29289 4.29289C4.68342 3.90237 5.31658 3.90237 5.70711 4.29289L13.7071 12.2929C14.0976 12.6834 14.0976 13.3166 13.7071 13.7071C13.3166 14.0976 12.6834 14.0976 12.2929 13.7071L4.29289 5.70711C3.90237 5.31658 3.90237 4.68342 4.29289 4.29289Z" fill="#333333"/>
<path fill-rule="evenodd" clip-rule="evenodd" d="M13.7071 4.29289C14.0977 4.68342 14.0977 5.31658 13.7071 5.70711L5.70711 13.7071C5.31658 14.0977 4.68342 14.0977 4.29289 13.7071C3.90237 13.3166 3.90237 12.6834 4.29289 12.2929L12.2929 4.29289C12.6834 3.90237 13.3166 3.90237 13.7071 4.29289Z" fill="#333333"/>
</svg>
