<svg width="500" height="500" viewBox="0 0 500 500" fill="none" xmlns="http://www.w3.org/2000/svg">
<path d="M389.609 241.18L375.568 276.891L428.549 297.722L442.59 262.011L389.609 241.18Z" fill="#EBEBEB"/>
<path d="M442.619 262.502C442.625 262.519 442.39 262.615 441.939 262.783C441.439 262.963 440.78 263.2 439.956 263.495C438.173 264.111 435.682 264.971 432.624 266.027C426.367 268.135 417.802 271.021 408.316 274.217L408.116 274.285L408.01 274.101C407.929 273.961 407.842 273.809 407.754 273.657C402.726 264.864 398.176 256.907 394.849 251.089C393.24 248.226 391.929 245.892 390.99 244.221C390.563 243.44 390.222 242.814 389.963 242.341C389.733 241.908 389.62 241.677 389.636 241.668C389.651 241.659 389.795 241.873 390.054 242.289C390.334 242.751 390.703 243.36 391.165 244.121C392.139 245.772 393.499 248.078 395.167 250.907C398.528 256.705 403.124 264.636 408.203 273.399C408.29 273.551 408.378 273.703 408.458 273.843L408.152 273.727C417.657 270.588 426.239 267.753 432.508 265.683C435.587 264.692 438.095 263.884 439.891 263.306C440.728 263.048 441.397 262.841 441.905 262.685C442.368 262.549 442.613 262.485 442.619 262.502Z" fill="#E0E0E0"/>
<path d="M375.594 277.381C375.526 277.255 381.435 273.927 388.791 269.947C396.149 265.966 402.167 262.842 402.235 262.967C402.303 263.092 396.395 266.42 389.037 270.402C381.681 274.381 375.662 277.506 375.594 277.381Z" fill="#E0E0E0"/>
<path d="M420.023 269.446C420.16 269.405 422.186 275.813 424.548 283.756C426.911 291.702 428.715 298.174 428.578 298.215C428.441 298.256 426.416 291.849 424.053 283.904C421.69 275.96 419.886 269.486 420.023 269.446Z" fill="#E0E0E0"/>
<path d="M214.521 391.454L163.584 416.88L180.722 451.213L231.659 425.787L214.521 391.454Z" fill="#EBEBEB"/>
<path d="M214.906 391.788C214.922 391.795 214.837 392.034 214.66 392.482C214.459 392.974 214.194 393.622 213.862 394.433C213.126 396.17 212.099 398.597 210.837 401.575C208.216 407.635 204.629 415.93 200.656 425.118L200.572 425.312L200.365 425.268C200.207 425.234 200.036 425.198 199.864 425.161C189.965 423.013 181.008 421.069 174.458 419.648C171.254 418.927 168.642 418.34 166.772 417.919C165.906 417.713 165.213 417.548 164.688 417.423C164.213 417.304 163.965 417.233 163.969 417.216C163.973 417.199 164.228 417.235 164.71 417.321C165.24 417.422 165.94 417.555 166.815 417.722C168.693 418.104 171.317 418.636 174.536 419.29C181.093 420.673 190.063 422.565 199.973 424.655C200.145 424.692 200.316 424.728 200.474 424.762L200.183 424.911C204.211 415.747 207.848 407.473 210.505 401.429C211.829 398.478 212.908 396.074 213.68 394.352C214.048 393.558 214.343 392.922 214.566 392.44C214.773 392.005 214.889 391.78 214.906 391.788Z" fill="#A5E1D3"/>
<path d="M181.105 451.549C180.966 451.515 182.447 444.897 184.413 436.768C186.379 428.636 188.085 422.074 188.224 422.107C188.363 422.14 186.882 428.758 184.916 436.889C182.95 445.019 181.244 451.583 181.105 451.549Z" fill="#A5E1D3"/>
<path d="M204.942 413.226C205.003 413.097 211.121 415.88 218.604 419.44C226.089 423.002 232.106 425.993 232.045 426.122C231.984 426.251 225.868 423.469 218.382 419.907C210.899 416.346 204.881 413.354 204.942 413.226Z" fill="#A5E1D3"/>
<path d="M131.817 86.559H75.3935C71.5065 86.559 68.3555 83.408 68.3555 79.521V51.643C68.3555 47.756 71.5065 44.605 75.3935 44.605H131.817C135.704 44.605 138.855 47.756 138.855 51.643V79.521C138.855 83.408 135.704 86.559 131.817 86.559Z" fill="#BCCFD3"/>
<path d="M111.244 85.2188L127.912 100.021L129.28 85.4808" fill="#BCCFD3"/>
<path d="M94.4366 66.1758C94.4366 68.4428 92.5986 70.2808 90.3316 70.2808C88.0646 70.2808 86.2266 68.4428 86.2266 66.1758C86.2266 63.9088 88.0646 62.0708 90.3316 62.0708C92.5986 62.0708 94.4366 63.9088 94.4366 66.1758Z" fill="white"/>
<path d="M108.564 66.1758C108.564 68.4428 106.726 70.2808 104.459 70.2808C102.192 70.2808 100.354 68.4428 100.354 66.1758C100.354 63.9088 102.192 62.0708 104.459 62.0708C106.726 62.0708 108.564 63.9088 108.564 66.1758Z" fill="white"/>
<path d="M122.692 66.1758C122.692 68.4428 120.854 70.2808 118.587 70.2808C116.32 70.2808 114.482 68.4428 114.482 66.1758C114.482 63.9088 116.32 62.0708 118.587 62.0708C120.854 62.0708 122.692 63.9088 122.692 66.1758Z" fill="white"/>
<path d="M335.982 89.586L321.941 125.297L374.922 146.128L388.963 110.417L335.982 89.586Z" fill="#EBEBEB"/>
<path d="M388.985 110.904C388.991 110.921 388.756 111.017 388.305 111.185C387.805 111.365 387.146 111.602 386.322 111.898C384.539 112.514 382.048 113.374 378.991 114.43C372.734 116.538 364.169 119.424 354.683 122.62L354.483 122.687L354.377 122.503C354.296 122.363 354.209 122.211 354.121 122.059C349.093 113.266 344.543 105.309 341.216 99.4911C339.607 96.6281 338.296 94.2941 337.357 92.6231C336.93 91.8421 336.589 91.2161 336.33 90.7431C336.1 90.3101 335.987 90.0791 336.003 90.0701C336.019 90.0611 336.162 90.2751 336.421 90.6911C336.701 91.1531 337.07 91.7621 337.532 92.5231C338.506 94.1741 339.866 96.4801 341.534 99.3091C344.895 105.107 349.491 113.038 354.57 121.801C354.658 121.953 354.745 122.105 354.825 122.245L354.52 122.129C364.025 118.99 372.607 116.155 378.876 114.084C381.955 113.093 384.463 112.285 386.259 111.707C387.096 111.449 387.765 111.242 388.273 111.086C388.734 110.951 388.979 110.888 388.985 110.904Z" fill="#E0E0E0"/>
<path d="M321.96 125.783C321.892 125.657 327.801 122.329 335.157 118.349C342.515 114.368 348.533 111.243 348.601 111.369C348.669 111.494 342.761 114.822 335.403 118.804C328.047 122.784 322.028 125.909 321.96 125.783Z" fill="#E0E0E0"/>
<path d="M366.386 117.848C366.523 117.807 368.549 124.215 370.911 132.158C373.274 140.104 375.078 146.576 374.941 146.617C374.804 146.658 372.778 140.251 370.416 132.305C368.054 124.362 366.249 117.889 366.386 117.848Z" fill="#E0E0E0"/>
<path d="M257.899 258.917C265.024 258.917 270.8 253.141 270.8 246.016C270.8 238.891 265.024 233.115 257.899 233.115C250.774 233.115 244.998 238.891 244.998 246.016C244.998 253.141 250.774 258.917 257.899 258.917Z" fill="#8D8D8D"/>
<path d="M302.299 258.917C309.424 258.917 315.2 253.141 315.2 246.016C315.2 238.891 309.424 233.115 302.299 233.115C295.174 233.115 289.398 238.891 289.398 246.016C289.398 253.141 295.174 258.917 302.299 258.917Z" fill="#8D8D8D"/>
<path d="M388.162 179.27C388.162 179.242 388.415 179.226 388.919 179.224C389.422 179.209 390.177 179.27 391.153 179.469C392.135 179.649 393.319 180.069 394.621 180.772C395.914 181.488 397.302 182.566 398.501 184.117C399.704 185.653 400.705 187.686 401.052 190.092C401.178 190.686 401.159 191.313 401.21 191.941C401.216 192.555 401.222 193.182 401.229 193.822C401.241 195.103 401.253 196.437 401.266 197.823C401.308 203.368 401.356 209.746 401.41 216.899C401.481 231.207 401.566 248.613 401.665 268.639C401.683 273.646 401.702 278.817 401.721 284.144C401.73 286.808 401.739 289.51 401.748 292.251C401.752 293.621 401.757 295.001 401.761 296.391C401.763 297.086 401.765 297.783 401.768 298.482C401.737 299.232 401.718 299.99 401.576 300.738C401.101 303.736 399.563 306.611 397.218 308.676C394.901 310.751 391.805 312.072 388.593 312.138C382.66 312.159 376.585 312.182 370.375 312.204L371.452 311.223C370.273 324.032 369.029 337.558 367.737 351.6L367.535 353.791L365.834 352.389C350.46 339.721 334.023 326.177 316.924 312.087L317.722 312.374C286.335 312.39 252.488 312.406 217.503 312.423C211.147 312.422 204.829 312.422 198.552 312.421C196.983 312.421 195.416 312.42 193.852 312.42C193.055 312.412 192.323 312.437 191.474 312.402C190.613 312.386 189.759 312.268 188.916 312.103C185.539 311.4 182.503 309.357 180.531 306.578C179.54 305.19 178.81 303.62 178.388 301.974C177.942 300.353 177.91 298.531 177.936 297.071C177.938 293.999 177.939 290.939 177.941 287.892C177.945 281.797 177.949 275.751 177.952 269.757C177.978 245.785 178.004 222.662 178.028 200.635C178.032 197.882 178.036 195.145 178.041 192.427C178.047 191.044 178.145 189.477 178.592 188.083C179.009 186.666 179.644 185.321 180.466 184.106C182.144 181.71 184.544 179.821 187.292 178.899C188.657 178.441 190.087 178.135 191.522 178.134C192.89 178.105 194.16 178.13 195.476 178.126C205.911 178.148 216.041 178.17 225.836 178.191C245.425 178.248 263.671 178.301 280.329 178.35C313.64 178.525 340.597 178.666 359.234 178.764C368.545 178.87 375.776 178.952 380.687 179.008C383.134 179.065 385.002 179.108 386.266 179.137C387.518 179.181 388.162 179.225 388.162 179.27C388.162 179.315 387.518 179.359 386.261 179.403C384.997 179.432 383.13 179.475 380.682 179.532C375.771 179.588 368.54 179.67 359.229 179.776C340.592 179.874 313.635 180.015 280.324 180.19C263.666 180.239 245.419 180.292 225.831 180.349C216.036 180.37 205.906 180.392 195.471 180.414C194.179 180.423 192.83 180.404 191.572 180.436C190.373 180.437 189.189 180.703 188.056 181.085C185.776 181.854 183.789 183.44 182.399 185.431C181.033 187.472 180.328 189.855 180.412 192.425C180.416 195.144 180.42 197.88 180.425 200.633C180.449 222.66 180.475 245.783 180.501 269.755C180.505 275.748 180.509 281.794 180.512 287.89C180.514 290.938 180.515 293.998 180.517 297.069C180.497 298.674 180.53 299.962 180.891 301.327C181.235 302.665 181.829 303.94 182.636 305.07C184.245 307.332 186.717 308.997 189.459 309.563C190.145 309.694 190.839 309.792 191.542 309.803C192.252 309.836 193.084 309.812 193.851 309.819C195.415 309.819 196.982 309.818 198.551 309.818C204.828 309.817 211.146 309.817 217.502 309.816C252.487 309.833 286.334 309.85 317.721 309.865H318.173L318.519 310.152C335.579 324.289 351.979 337.878 367.318 350.589L365.416 351.378C366.766 337.341 368.066 323.82 369.297 311.016L369.392 310.034L370.375 310.035C376.562 310.044 382.616 310.053 388.528 310.061C391.257 310.023 393.883 308.915 395.871 307.159C397.883 305.412 399.207 302.968 399.628 300.41C399.756 299.772 399.771 299.124 399.807 298.477C399.809 297.778 399.811 297.08 399.814 296.386C399.818 294.997 399.823 293.617 399.827 292.246C399.836 289.505 399.845 286.802 399.854 284.139C399.873 278.812 399.892 273.641 399.91 268.634C400.009 248.608 400.095 231.203 400.165 216.894C400.219 209.742 400.267 203.363 400.309 197.818C400.322 196.432 400.334 195.098 400.346 193.817C400.353 193.177 400.359 192.55 400.365 191.936C400.327 191.342 400.361 190.758 400.253 190.198C399.977 187.935 399.083 185.995 397.98 184.505C396.882 183.002 395.59 181.928 394.373 181.195C393.147 180.475 392.02 180.015 391.076 179.788C389.191 179.312 388.156 179.367 388.162 179.27Z" fill="#8D8D8D"/>
<path d="M305.426 375.322H110.655C103.257 375.322 97.2598 369.325 97.2598 361.927V256.867C97.2598 249.469 103.257 243.472 110.655 243.472H305.426C312.824 243.472 318.821 249.469 318.821 256.867V361.927C318.821 369.325 312.824 375.322 305.426 375.322Z" fill="#2A495D"/>
<path d="M232.043 371.112L284.427 417.629L288.726 371.936" fill="#2A495D"/>
<path d="M166.323 324.166C173.448 324.166 179.224 318.39 179.224 311.265C179.224 304.14 173.448 298.364 166.323 298.364C159.198 298.364 153.422 304.14 153.422 311.265C153.422 318.39 159.198 324.166 166.323 324.166Z" fill="white"/>
<path d="M210.723 324.166C217.848 324.166 223.624 318.39 223.624 311.265C223.624 304.14 217.848 298.364 210.723 298.364C203.598 298.364 197.822 304.14 197.822 311.265C197.822 318.39 203.598 324.166 210.723 324.166Z" fill="white"/>
<path d="M255.124 324.166C262.249 324.166 268.025 318.39 268.025 311.265C268.025 304.14 262.249 298.364 255.124 298.364C247.999 298.364 242.223 304.14 242.223 311.265C242.223 318.39 247.999 324.166 255.124 324.166Z" fill="white"/>
<path d="M346.7 258.917C353.825 258.917 359.601 253.141 359.601 246.016C359.601 238.891 353.825 233.115 346.7 233.115C339.575 233.115 333.799 238.891 333.799 246.016C333.799 253.141 339.575 258.917 346.7 258.917Z" fill="#8D8D8D"/>
<path d="M440.723 401.705C441.608 398.638 443.504 395.672 446.436 394.409C449.486 393.095 453.018 393.843 456.139 394.977C459.26 396.111 462.325 397.628 465.64 397.833C468.955 398.038 472.696 396.465 473.688 393.296C474.621 390.317 472.825 387.14 470.575 384.975C465.849 380.426 458.748 378.497 452.37 380.028C445.992 381.559 440.541 386.502 438.395 392.7" fill="#35586E"/>
<path d="M414.462 415.02C409.599 410.4 409.842 402.358 412.268 396.105C414.694 389.852 419.988 385.05 425.902 381.885C437.366 375.75 451.696 375.286 463.532 380.665C457.716 380.858 452.093 384.159 449.091 389.145C446.426 393.571 445.834 398.942 443.632 403.616C441.179 408.823 436.678 413.03 431.317 415.126C425.957 417.221 419.795 417.182 414.462 415.02Z" fill="#A5E1D3"/>
<path d="M412.123 387.265C406.739 380.91 406.022 370.708 406.815 362.416C407.608 354.125 409.53 345.78 408.222 337.554C407.447 332.681 405.557 328.028 404.918 323.135C404.279 318.242 405.185 312.709 408.976 309.55C413.334 305.92 420.195 306.776 424.728 310.185C429.261 313.594 431.888 318.948 433.807 324.285C438.024 336.01 439.572 349.012 436.108 360.981C432.644 372.95 424.516 383.652 412.591 387.265" fill="#A5E1D3"/>
<path d="M409.54 439.409C409.522 439.409 409.513 439.156 409.512 438.676C409.516 438.196 409.507 437.487 409.545 436.576C409.609 434.753 409.781 432.115 410.186 428.876C410.593 425.638 411.231 421.798 412.247 417.6C413.248 413.391 414.964 408.905 417.392 404.539C419.827 400.172 422.799 396.402 425.805 393.297C428.819 390.189 431.903 387.773 434.627 385.971C435.973 385.042 437.276 384.338 438.397 383.685C439.547 383.084 440.551 382.591 441.373 382.196C442.178 381.861 442.823 381.592 443.313 381.388C443.759 381.209 443.995 381.123 444.002 381.139C444.009 381.156 443.785 381.274 443.354 381.484C442.875 381.71 442.245 382.008 441.459 382.379C440.653 382.8 439.668 383.317 438.538 383.939C437.437 384.612 436.156 385.334 434.832 386.276C432.153 388.104 429.119 390.531 426.15 393.63C423.189 396.727 420.258 400.469 417.846 404.794C412.9 413.446 411.541 422.545 410.551 428.925C410.101 432.146 409.874 434.771 409.748 436.587C409.694 437.455 409.651 438.15 409.618 438.68C409.584 439.158 409.558 439.409 409.54 439.409Z" fill="#35586E"/>
<path d="M363.102 362.193C353.141 368.204 353.172 373.674 354.835 378.838C356.498 384.001 362.612 387.589 367.681 385.655C370.546 384.562 372.622 382.072 374.395 379.569C376.168 377.067 377.833 374.388 380.318 372.591C382.802 370.794 386.404 370.106 388.9 371.888" fill="#35586E"/>
<path d="M355.645 368.783C358.249 365.184 364.684 364.142 368.747 365.938C372.81 367.734 375.787 371.296 378.45 374.85C381.114 378.405 383.707 382.159 387.397 384.632C391.087 387.105 396.242 388.001 399.919 385.51C402.334 383.873 403.735 381.029 404.173 378.144C404.611 375.259 404.189 372.314 403.588 369.459C402.709 365.282 401.274 360.918 397.931 358.264C394.205 355.306 389.035 355.166 384.28 355.321C378.824 355.499 373.286 355.909 368.165 357.8C363.044 359.691 357.819 363.776 355.645 368.783Z" fill="#A5E1D3"/>
<path d="M401.261 431.431C401.243 431.431 401.22 431.135 401.193 430.57C401.17 429.959 401.139 429.135 401.1 428.098C401.034 425.901 400.941 422.807 400.827 419.006C400.703 415.168 400.544 410.599 400.265 405.532C399.979 400.467 399.602 394.895 398.834 389.099C398.443 386.205 397.986 383.375 397.186 380.757C396.38 378.137 395.306 375.694 394.138 373.458C391.804 368.97 388.89 365.395 386.094 362.799C383.272 360.215 380.572 358.635 378.65 357.71C377.692 357.23 376.916 356.931 376.388 356.73C375.864 356.521 375.59 356.402 375.596 356.385C375.601 356.368 375.886 356.453 376.424 356.631C376.965 356.801 377.757 357.071 378.736 357.526C380.698 358.401 383.457 359.949 386.343 362.527C389.202 365.116 392.18 368.71 394.563 373.234C395.756 375.49 396.848 377.947 397.674 380.606C398.497 383.277 398.958 386.12 399.351 389.029C400.123 394.853 400.485 400.433 400.745 405.507C400.998 410.582 401.119 415.156 401.196 418.997C401.271 422.838 401.297 425.947 401.304 428.095C401.302 429.133 401.3 429.957 401.299 430.569C401.291 431.134 401.279 431.431 401.261 431.431Z" fill="#35586E"/>
<path d="M404.845 435.932C404.845 435.932 404.278 434.456 403.74 431.656C403.217 428.861 402.822 424.716 403.272 419.633C403.694 414.551 404.992 408.588 407.062 402.188C409.105 395.777 411.879 388.923 414.249 381.558C415.425 377.873 416.424 374.228 417.109 370.648C417.803 367.07 418.243 363.577 418.523 360.238C419.083 353.557 419.007 347.503 418.848 342.433C418.68 337.36 418.414 333.258 418.25 330.423C418.171 329.034 418.109 327.942 418.065 327.157C418.05 326.808 418.038 326.528 418.029 326.307C418.024 326.115 418.025 326.017 418.034 326.016C418.043 326.015 418.059 326.113 418.082 326.303C418.105 326.523 418.134 326.802 418.17 327.149C418.238 327.932 418.333 329.022 418.453 330.408C418.679 333.24 419.001 337.339 419.217 342.418C419.423 347.494 419.538 353.563 419.002 360.276C418.734 363.63 418.302 367.143 417.61 370.744C416.927 374.347 415.925 378.017 414.745 381.715C412.366 389.107 409.579 395.952 407.518 402.334C405.431 408.703 404.105 414.621 403.639 419.665C403.146 424.71 403.481 428.828 403.94 431.62C404.182 433.015 404.404 434.095 404.598 434.816C404.679 435.156 404.744 435.428 404.796 435.643C404.837 435.832 404.854 435.93 404.845 435.932Z" fill="#35586E"/>
<path d="M429.541 440.434H382.769L381.701 431.431H429.541V440.434Z" fill="#35586E"/>
<path d="M387.789 439.409L393.637 466.416H419.052L424.523 439.409H387.789Z" fill="#35586E"/>
<path d="M429.54 440.434C429.54 440.578 419.256 440.666 406.574 440.63C393.888 440.594 383.607 440.449 383.607 440.305C383.607 440.161 393.889 440.073 406.575 440.109C419.257 440.145 429.54 440.29 429.54 440.434Z" fill="#A5E1D3"/>
<path d="M421.514 453.764C421.448 453.862 420.122 452.509 417.385 451.428C416.027 450.892 414.311 450.475 412.385 450.432C410.455 450.371 408.362 450.833 406.24 451.563C404.11 452.283 402.118 453.122 400.174 453.583C398.22 454.002 396.404 453.968 394.924 453.734C393.44 453.498 392.29 453.054 391.554 452.655C391.191 452.444 390.914 452.275 390.744 452.132C390.57 451.998 390.484 451.921 390.495 451.906C390.534 451.813 392.038 453.017 394.976 453.37C396.422 453.553 398.192 453.546 400.068 453.116C401.935 452.648 403.925 451.799 406.075 451.07C408.219 450.331 410.4 449.862 412.399 449.953C414.392 450.023 416.151 450.493 417.525 451.087C418.912 451.666 419.916 452.367 420.572 452.878C420.901 453.136 421.141 453.353 421.295 453.511C421.45 453.664 421.525 453.751 421.514 453.764Z" fill="#A5E1D3"/>
<path d="M421.16 455.568C421.092 455.667 419.815 454.355 417.194 453.263C415.89 452.727 414.235 452.312 412.374 452.278C410.51 452.229 408.482 452.652 406.429 453.351C404.37 454.039 402.436 454.838 400.585 455.333C398.737 455.836 396.991 456.01 395.539 455.891C394.083 455.786 392.949 455.371 392.234 454.995C391.881 454.793 391.613 454.629 391.45 454.49C391.281 454.36 391.199 454.285 391.21 454.27C391.238 454.229 391.602 454.486 392.323 454.812C393.046 455.123 394.153 455.468 395.563 455.523C396.969 455.592 398.659 455.386 400.457 454.87C402.262 454.36 404.179 453.553 406.265 452.855C408.341 452.147 410.454 451.718 412.385 451.797C414.313 451.859 416.016 452.328 417.337 452.923C418.668 453.507 419.628 454.2 420.255 454.702C420.57 454.954 420.799 455.167 420.948 455.319C421.099 455.47 421.171 455.554 421.16 455.568Z" fill="white"/>
<path d="M421.977 451.974C421.913 452.066 420.535 450.696 417.737 449.506C416.348 448.919 414.597 448.398 412.612 448.282C410.626 448.144 408.461 448.653 406.272 449.403C404.069 450.141 402.024 451.037 399.99 451.451C397.957 451.818 396.092 451.701 394.569 451.452C393.044 451.184 391.855 450.745 391.092 450.339C390.714 450.126 390.426 449.955 390.25 449.808C390.069 449.67 389.98 449.592 389.991 449.577C390.019 449.537 390.408 449.809 391.18 450.156C391.954 450.497 393.129 450.872 394.627 451.088C396.12 451.286 397.949 451.358 399.9 450.979C401.834 450.562 403.888 449.655 406.106 448.909C408.316 448.151 410.572 447.632 412.643 447.802C414.701 447.95 416.486 448.525 417.888 449.168C419.3 449.803 420.33 450.529 421.006 451.059C421.344 451.327 421.593 451.549 421.752 451.712C421.91 451.871 421.989 451.96 421.977 451.974Z" fill="white"/>
<path d="M95.0326 423.236C93.0166 426.116 89.0976 425.162 87.2806 423.405C85.4636 421.647 84.6956 419.1 83.9966 416.67C82.3996 411.12 80.7896 405.297 81.9766 399.645C82.3316 397.955 82.9636 396.27 84.1506 395.016C85.3376 393.762 87.1636 393.016 88.8336 393.457C90.8096 393.979 92.0376 395.914 92.9246 397.755C95.5336 403.166 96.9146 409.165 96.9346 415.172C96.9456 417.977 96.6146 420.919 95.0326 423.236Z" fill="#F6CDC1"/>
<g opacity="0.2">
<path d="M95.0326 423.236C93.0166 426.116 89.0976 425.162 87.2806 423.405C85.4636 421.647 84.6956 419.1 83.9966 416.67C82.3996 411.12 80.7896 405.297 81.9766 399.645C82.3316 397.955 82.9636 396.27 84.1506 395.016C85.3376 393.762 87.1636 393.016 88.8336 393.457C90.8096 393.979 92.0376 395.914 92.9246 397.755C95.5336 403.166 96.9146 409.165 96.9346 415.172C96.9456 417.977 96.6146 420.919 95.0326 423.236Z" fill="black"/>
</g>
<path d="M87.4776 437.818C84.1806 436.117 80.2976 435.896 76.6376 436.501C74.6716 436.826 72.6206 437.415 71.2826 438.892C69.9446 440.369 69.6906 442.969 71.2276 444.238C72.1426 444.993 73.4176 445.108 74.6036 445.095C77.4696 445.061 80.6486 444.557 82.9386 446.281C84.2446 447.265 85.1146 448.9 86.6756 449.384C88.2036 449.857 89.9276 448.956 90.7376 447.577C91.5476 446.198 91.5746 444.474 91.1966 442.921C91.1966 442.919 90.7996 439.532 87.4776 437.818Z" fill="#F6CDC1"/>
<path d="M100.568 427.367C98.3792 424.769 97.9642 420.98 98.9382 417.725C99.9122 414.47 102.113 411.702 104.649 409.441C107.623 406.791 111.118 404.728 114.876 403.407C116.355 402.887 117.915 402.477 119.475 402.625C121.035 402.774 122.607 403.572 123.335 404.96C124.411 407.013 123.379 409.502 122.263 411.534C120.297 415.113 118.049 418.536 115.546 421.763C113.532 424.359 111.227 426.919 108.158 428.092C105.09 429.265 101.902 429.127 100.276 426.999" fill="#F6CDC1"/>
<path d="M95.1681 466.674C95.1301 466.676 95.0691 466.21 94.9861 465.365C94.8931 464.413 94.7771 463.217 94.6381 461.794C94.4721 460.291 94.2521 458.503 93.8351 456.556C93.4191 454.614 92.7681 452.509 91.9311 450.374C91.0651 448.252 90.0081 446.323 88.7741 444.78C87.5481 443.23 86.1231 442.109 84.7831 441.462C83.4481 440.802 82.2501 440.534 81.4221 440.415C80.5871 440.33 80.1201 440.264 80.1191 440.226C80.1191 440.189 80.5871 440.183 81.4451 440.206C82.2951 440.263 83.5421 440.478 84.9501 441.118C86.3621 441.744 87.8741 442.883 89.1601 444.465C90.4561 446.04 91.5511 448.011 92.4321 450.171C93.2831 452.343 93.9251 454.47 94.3221 456.454C94.7181 458.435 94.9001 460.243 95.0181 461.758C95.1311 463.274 95.1741 464.502 95.1951 465.351C95.2151 466.202 95.2051 466.672 95.1681 466.674Z" fill="#263238"/>
<path d="M94.9219 463.926C94.9029 463.925 94.8919 463.716 94.8869 463.319C94.8879 462.863 94.8899 462.288 94.8919 461.583C94.8959 460.076 94.8959 457.896 94.8149 455.203C94.6819 449.818 94.2179 442.384 93.3219 434.213C92.4199 426.04 91.2239 418.687 90.1339 413.413C89.8759 412.091 89.6169 410.901 89.3729 409.859C89.1399 408.815 88.9409 407.915 88.7489 407.186C88.5839 406.5 88.4499 405.942 88.3429 405.498C88.2559 405.11 88.2189 404.904 88.2369 404.899C88.2549 404.894 88.3269 405.09 88.4479 405.468C88.5799 405.905 88.7469 406.455 88.9519 407.132C89.1759 407.854 89.4049 408.748 89.6659 409.788C89.9389 410.825 90.2249 412.013 90.5069 413.333C91.6959 418.601 92.9539 425.963 93.8579 434.153C94.7559 442.341 95.1599 449.796 95.1959 455.195C95.2279 457.894 95.1709 460.079 95.1019 461.587C95.0589 462.292 95.0239 462.866 94.9959 463.322C94.9649 463.72 94.9409 463.927 94.9219 463.926Z" fill="#263238"/>
<path d="M94.8856 449.547C94.8486 449.546 94.8546 448.901 94.8986 447.733C94.9656 446.568 95.1256 444.883 95.4536 442.819C95.8016 440.76 96.2876 438.316 97.0516 435.66C97.7776 432.994 98.7766 430.116 100.046 427.189C102.529 421.298 105.903 416.482 108.838 413.499C109.526 412.707 110.293 412.136 110.906 411.576C111.223 411.308 111.504 411.04 111.79 410.828C112.077 410.63 112.344 410.446 112.592 410.275C113.558 409.614 114.099 409.266 114.119 409.297C114.206 409.415 111.955 410.739 109.114 413.762C106.284 416.778 103.005 421.561 100.542 427.403C99.2836 430.305 98.2786 433.156 97.5306 435.796C96.7456 438.426 96.2236 440.846 95.8296 442.884C95.4556 444.927 95.2386 446.594 95.1076 447.749C95.0006 448.907 94.9226 449.548 94.8856 449.547Z" fill="#263238"/>
</svg>
