<svg width="187" height="39" viewBox="0 0 187 39" fill="none" xmlns="http://www.w3.org/2000/svg">
<path d="M16.3924 12.798H13.2564C13.167 12.2838 13.0021 11.8282 12.7617 11.4313C12.5214 11.0288 12.2223 10.6879 11.8646 10.4084C11.5068 10.1289 11.0987 9.91924 10.6404 9.7795C10.1876 9.63416 9.69847 9.56149 9.17302 9.56149C8.23951 9.56149 7.4122 9.79627 6.6911 10.2658C5.97001 10.7298 5.40543 11.4117 4.99737 12.3117C4.5893 13.2061 4.38527 14.2989 4.38527 15.5902C4.38527 16.9038 4.5893 18.0106 4.99737 18.9106C5.41102 19.805 5.9756 20.4813 6.6911 20.9397C7.4122 21.3925 8.23671 21.6189 9.16463 21.6189C9.6789 21.6189 10.1596 21.5518 10.6068 21.4177C11.0596 21.2779 11.4649 21.0739 11.8226 20.8056C12.186 20.5372 12.4906 20.2074 12.7366 19.8162C12.9881 19.4249 13.1614 18.9777 13.2564 18.4746L16.3924 18.4913C16.275 19.3075 16.0206 20.0733 15.6293 20.7888C15.2436 21.5043 14.7378 22.136 14.1117 22.6838C13.4856 23.226 12.7533 23.6508 11.9149 23.9583C11.0764 24.2601 10.1457 24.411 9.12271 24.411C7.61344 24.411 6.26627 24.0617 5.08121 23.3629C3.89616 22.6642 2.96264 21.6552 2.28068 20.336C1.59871 19.0168 1.25773 17.4349 1.25773 15.5902C1.25773 13.7399 1.6015 12.158 2.28906 10.8444C2.97662 9.52516 3.91293 8.51618 5.09798 7.81744C6.28304 7.11871 7.62462 6.76934 9.12271 6.76934C10.0786 6.76934 10.9674 6.90349 11.7891 7.17181C12.6108 7.44012 13.3431 7.83421 13.9859 8.35407C14.6288 8.86834 15.157 9.5 15.5707 10.249C15.9899 10.9925 16.2638 11.8422 16.3924 12.798ZM19.107 24.1763V11.2972H22.05V13.4437H22.1842C22.419 12.7002 22.8214 12.1273 23.3916 11.7248C23.9674 11.3167 24.6242 11.1127 25.3621 11.1127C25.5297 11.1127 25.717 11.1211 25.9238 11.1378C26.1363 11.149 26.3123 11.1686 26.4521 11.1965V13.9887C26.3235 13.944 26.1195 13.9048 25.84 13.8713C25.5661 13.8322 25.3006 13.8126 25.0434 13.8126C24.49 13.8126 23.9925 13.9328 23.5509 14.1732C23.1149 14.4079 22.7711 14.7349 22.5196 15.1542C22.268 15.5734 22.1423 16.0569 22.1423 16.6048V24.1763H19.107ZM30.7472 29.0059C30.3336 29.0059 29.9507 28.9724 29.5985 28.9053C29.2519 28.8438 28.9752 28.7712 28.7684 28.6873L29.4727 26.3228C29.9143 26.4514 30.3084 26.5128 30.655 26.5073C31.0016 26.5017 31.3062 26.3927 31.5689 26.1802C31.8372 25.9734 32.0636 25.6268 32.2481 25.1405L32.508 24.4446L27.8377 11.2972H31.0575L34.0257 21.0236H34.1598L37.1365 11.2972H40.3646L35.208 25.7359C34.9676 26.4178 34.649 27.002 34.2521 27.4883C33.8552 27.9802 33.3689 28.3547 32.7931 28.6119C32.2229 28.8746 31.541 29.0059 30.7472 29.0059ZM42.465 29.0059V11.2972H45.45V13.4269H45.6261C45.7826 13.1139 46.0034 12.7813 46.2885 12.4291C46.5736 12.0714 46.9593 11.7667 47.4456 11.5152C47.932 11.258 48.5524 11.1295 49.3071 11.1295C50.3021 11.1295 51.1992 11.3838 51.9986 11.8925C52.8035 12.3956 53.4408 13.1418 53.9103 14.1312C54.3855 15.115 54.6231 16.3225 54.6231 17.7535C54.6231 19.1677 54.3911 20.3696 53.9271 21.359C53.4632 22.3484 52.8315 23.103 52.0321 23.6229C51.2328 24.1427 50.3272 24.4027 49.3154 24.4027C48.5776 24.4027 47.9655 24.2797 47.4792 24.0337C46.9928 23.7878 46.6016 23.4915 46.3053 23.1449C46.0146 22.7928 45.7882 22.4602 45.6261 22.1471H45.5003V29.0059H42.465ZM45.4417 17.7367C45.4417 18.5696 45.559 19.2991 45.7938 19.9252C46.0342 20.5512 46.378 21.0403 46.8252 21.3925C47.2779 21.7391 47.8257 21.9124 48.4686 21.9124C49.1394 21.9124 49.7012 21.7335 50.1539 21.3757C50.6067 21.0124 50.9477 20.5177 51.1769 19.8916C51.4117 19.26 51.529 18.5417 51.529 17.7367C51.529 16.9374 51.4145 16.2274 51.1853 15.607C50.9561 14.9865 50.6151 14.5002 50.1623 14.148C49.7095 13.7958 49.145 13.6198 48.4686 13.6198C47.8202 13.6198 47.2695 13.7902 46.8168 14.1312C46.364 14.4722 46.0202 14.9501 45.7854 15.565C45.5562 16.1799 45.4417 16.9038 45.4417 17.7367ZM63.6535 11.2972V13.6449H56.2497V11.2972H63.6535ZM58.0776 8.21153H61.1129V20.3025C61.1129 20.7105 61.1744 21.0236 61.2974 21.2416C61.426 21.454 61.5937 21.5993 61.8005 21.6776C62.0073 21.7558 62.2365 21.795 62.488 21.795C62.6781 21.795 62.8514 21.781 63.0079 21.7531C63.17 21.7251 63.293 21.6999 63.3768 21.6776L63.8883 24.0505C63.7262 24.1064 63.4942 24.1679 63.1924 24.235C62.8961 24.302 62.5328 24.3412 62.1023 24.3524C61.3421 24.3747 60.6573 24.2601 60.048 24.0086C59.4387 23.7514 58.9552 23.3546 58.5975 22.8179C58.2453 22.2813 58.072 21.6105 58.0776 20.8056V8.21153ZM71.6715 24.4278C70.4138 24.4278 69.3238 24.1511 68.4014 23.5977C67.4791 23.0443 66.7636 22.2701 66.2549 21.2751C65.7518 20.2801 65.5003 19.1174 65.5003 17.787C65.5003 16.4566 65.7518 15.2911 66.2549 14.2905C66.7636 13.2899 67.4791 12.513 68.4014 11.9596C69.3238 11.4062 70.4138 11.1295 71.6715 11.1295C72.9293 11.1295 74.0193 11.4062 74.9416 11.9596C75.864 12.513 76.5767 13.2899 77.0798 14.2905C77.5884 15.2911 77.8428 16.4566 77.8428 17.787C77.8428 19.1174 77.5884 20.2801 77.0798 21.2751C76.5767 22.2701 75.864 23.0443 74.9416 23.5977C74.0193 24.1511 72.9293 24.4278 71.6715 24.4278ZM71.6883 21.9962C72.3703 21.9962 72.9404 21.8089 73.3988 21.4344C73.8572 21.0543 74.1982 20.5456 74.4218 19.9084C74.6509 19.2711 74.7655 18.5612 74.7655 17.7786C74.7655 16.9905 74.6509 16.2777 74.4218 15.6405C74.1982 14.9977 73.8572 14.4862 73.3988 14.1061C72.9404 13.726 72.3703 13.5359 71.6883 13.5359C70.9896 13.5359 70.4082 13.726 69.9443 14.1061C69.4859 14.4862 69.1421 14.9977 68.9129 15.6405C68.6893 16.2777 68.5775 16.9905 68.5775 17.7786C68.5775 18.5612 68.6893 19.2711 68.9129 19.9084C69.1421 20.5456 69.4859 21.0543 69.9443 21.4344C70.4082 21.8089 70.9896 21.9962 71.6883 21.9962Z" fill="#333333"/>
<path d="M95.2518 12.798H92.1159C92.0264 12.2838 91.8615 11.8282 91.6212 11.4313C91.3808 11.0288 91.0817 10.6879 90.724 10.4084C90.3662 10.1289 89.9582 9.91924 89.4998 9.7795C89.047 9.63416 88.5579 9.56149 88.0325 9.56149C87.0989 9.56149 86.2716 9.79627 85.5505 10.2658C84.8295 10.7298 84.2649 11.4117 83.8568 12.3117C83.4487 13.2061 83.2447 14.2989 83.2447 15.5902C83.2447 16.9038 83.4487 18.0106 83.8568 18.9106C84.2705 19.805 84.835 20.4813 85.5505 20.9397C86.2716 21.3925 87.0962 21.6189 88.0241 21.6189C88.5383 21.6189 89.0191 21.5518 89.4663 21.4177C89.9191 21.2779 90.3243 21.0739 90.6821 20.8056C91.0454 20.5372 91.3501 20.2074 91.596 19.8162C91.8476 19.4249 92.0209 18.9777 92.1159 18.4746L95.2518 18.4913C95.1344 19.3075 94.8801 20.0733 94.4888 20.7888C94.1031 21.5043 93.5972 22.136 92.9711 22.6838C92.3451 23.226 91.6128 23.6508 90.7743 23.9583C89.9358 24.2601 89.0051 24.411 87.9822 24.411C86.4729 24.411 85.1257 24.0617 83.9407 23.3629C82.7556 22.6642 81.8221 21.6552 81.1401 20.336C80.4582 19.0168 80.1172 17.4349 80.1172 15.5902C80.1172 13.7399 80.4609 12.158 81.1485 10.8444C81.8361 9.52516 82.7724 8.51618 83.9574 7.81744C85.1425 7.11871 86.4841 6.76934 87.9822 6.76934C88.938 6.76934 89.8268 6.90349 90.6485 7.17181C91.4702 7.44012 92.2025 7.83421 92.8454 8.35407C93.4882 8.86834 94.0164 9.5 94.4301 10.249C94.8493 10.9925 95.1232 11.8422 95.2518 12.798ZM103.584 24.4278C102.327 24.4278 101.236 24.1511 100.314 23.5977C99.3918 23.0443 98.6763 22.2701 98.1676 21.2751C97.6645 20.2801 97.413 19.1174 97.413 17.787C97.413 16.4566 97.6645 15.2911 98.1676 14.2905C98.6763 13.2899 99.3918 12.513 100.314 11.9596C101.236 11.4062 102.327 11.1295 103.584 11.1295C104.842 11.1295 105.932 11.4062 106.854 11.9596C107.777 12.513 108.489 13.2899 108.992 14.2905C109.501 15.2911 109.755 16.4566 109.755 17.787C109.755 19.1174 109.501 20.2801 108.992 21.2751C108.489 22.2701 107.777 23.0443 106.854 23.5977C105.932 24.1511 104.842 24.4278 103.584 24.4278ZM103.601 21.9962C104.283 21.9962 104.853 21.8089 105.312 21.4344C105.77 21.0543 106.111 20.5456 106.334 19.9084C106.564 19.2711 106.678 18.5612 106.678 17.7786C106.678 16.9905 106.564 16.2777 106.334 15.6405C106.111 14.9977 105.77 14.4862 105.312 14.1061C104.853 13.726 104.283 13.5359 103.601 13.5359C102.902 13.5359 102.321 13.726 101.857 14.1061C101.399 14.4862 101.055 14.9977 100.826 15.6405C100.602 16.2777 100.49 16.9905 100.49 17.7786C100.49 18.5612 100.602 19.2711 100.826 19.9084C101.055 20.5456 101.399 21.0543 101.857 21.4344C102.321 21.8089 102.902 21.9962 103.601 21.9962ZM112.332 24.1763V11.2972H115.233V13.4856H115.384C115.652 12.7477 116.097 12.172 116.717 11.7583C117.337 11.3391 118.078 11.1295 118.939 11.1295C119.811 11.1295 120.546 11.3419 121.144 11.7667C121.748 12.1859 122.173 12.7589 122.419 13.4856H122.553C122.838 12.7701 123.319 12.1999 123.995 11.7751C124.677 11.3447 125.485 11.1295 126.418 11.1295C127.603 11.1295 128.57 11.504 129.319 12.253C130.068 13.0021 130.443 14.0949 130.443 15.5315V24.1763H127.399V16.001C127.399 15.2017 127.187 14.6175 126.762 14.2486C126.337 13.8741 125.817 13.6868 125.202 13.6868C124.47 13.6868 123.897 13.916 123.484 14.3744C123.076 14.8272 122.871 15.4169 122.871 16.1436V24.1763H119.895V15.8753C119.895 15.2101 119.694 14.679 119.291 14.2822C118.894 13.8853 118.374 13.6868 117.732 13.6868C117.296 13.6868 116.899 13.7986 116.541 14.0222C116.183 14.2402 115.898 14.5505 115.686 14.9529C115.473 15.3498 115.367 15.8138 115.367 16.3448V24.1763H112.332ZM133.522 29.0059V11.2972H136.507V13.4269H136.683C136.84 13.1139 137.061 12.7813 137.346 12.4291C137.631 12.0714 138.017 11.7667 138.503 11.5152C138.989 11.258 139.61 11.1295 140.364 11.1295C141.359 11.1295 142.257 11.3838 143.056 11.8925C143.861 12.3956 144.498 13.1418 144.968 14.1312C145.443 15.115 145.68 16.3225 145.68 17.7535C145.68 19.1677 145.448 20.3696 144.984 21.359C144.52 22.3484 143.889 23.103 143.089 23.6229C142.29 24.1427 141.385 24.4027 140.373 24.4027C139.635 24.4027 139.023 24.2797 138.536 24.0337C138.05 23.7878 137.659 23.4915 137.363 23.1449C137.072 22.7928 136.846 22.4602 136.683 22.1471H136.558V29.0059H133.522ZM136.499 17.7367C136.499 18.5696 136.616 19.2991 136.851 19.9252C137.091 20.5512 137.435 21.0403 137.882 21.3925C138.335 21.7391 138.883 21.9124 139.526 21.9124C140.197 21.9124 140.758 21.7335 141.211 21.3757C141.664 21.0124 142.005 20.5177 142.234 19.8916C142.469 19.26 142.586 18.5417 142.586 17.7367C142.586 16.9374 142.472 16.2274 142.243 15.607C142.013 14.9865 141.672 14.5002 141.22 14.148C140.767 13.7958 140.202 13.6198 139.526 13.6198C138.877 13.6198 138.327 13.7902 137.874 14.1312C137.421 14.4722 137.077 14.9501 136.843 15.565C136.614 16.1799 136.499 16.9038 136.499 17.7367ZM151.986 24.4362C151.17 24.4362 150.435 24.2909 149.781 24.0002C149.132 23.7039 148.618 23.2679 148.238 22.6922C147.863 22.1164 147.676 21.4065 147.676 20.5624C147.676 19.8357 147.81 19.2348 148.078 18.7597C148.347 18.2845 148.713 17.9044 149.177 17.6193C149.641 17.3342 150.163 17.119 150.745 16.9737C151.332 16.8228 151.938 16.7138 152.564 16.6467C153.319 16.5684 153.931 16.4985 154.401 16.4371C154.87 16.37 155.211 16.2694 155.424 16.1352C155.642 15.9955 155.751 15.7802 155.751 15.4896V15.4393C155.751 14.8076 155.563 14.3185 155.189 13.9719C154.814 13.6253 154.275 13.4521 153.57 13.4521C152.827 13.4521 152.237 13.6142 151.801 13.9384C151.371 14.2626 151.08 14.6455 150.929 15.0871L148.095 14.6846C148.319 13.902 148.688 13.248 149.202 12.7226C149.716 12.1915 150.345 11.7947 151.089 11.5319C151.832 11.2636 152.654 11.1295 153.554 11.1295C154.174 11.1295 154.792 11.2021 155.407 11.3475C156.022 11.4928 156.583 11.7332 157.092 12.0686C157.601 12.3984 158.009 12.8483 158.316 13.4185C158.629 13.9887 158.786 14.7014 158.786 15.5567V24.1763H155.868V22.4071H155.767C155.583 22.7648 155.323 23.1002 154.988 23.4132C154.658 23.7207 154.241 23.9694 153.738 24.1595C153.241 24.344 152.657 24.4362 151.986 24.4362ZM152.774 22.2058C153.383 22.2058 153.911 22.0856 154.359 21.8453C154.806 21.5993 155.15 21.2751 155.39 20.8726C155.636 20.4702 155.759 20.0314 155.759 19.5562V18.0386C155.664 18.1168 155.502 18.1895 155.273 18.2566C155.049 18.3236 154.797 18.3823 154.518 18.4327C154.238 18.483 153.962 18.5277 153.688 18.5668C153.414 18.6059 153.176 18.6395 152.975 18.6674C152.522 18.7289 152.117 18.8295 151.759 18.9693C151.402 19.109 151.119 19.3047 150.912 19.5562C150.706 19.8022 150.602 20.1208 150.602 20.5121C150.602 21.0711 150.806 21.4931 151.214 21.7782C151.622 22.0633 152.142 22.2058 152.774 22.2058ZM172.017 14.7014L169.25 15.0033C169.172 14.7238 169.035 14.461 168.839 14.2151C168.649 13.9691 168.392 13.7707 168.068 13.6198C167.744 13.4688 167.347 13.3934 166.877 13.3934C166.246 13.3934 165.715 13.5303 165.284 13.8042C164.859 14.0781 164.65 14.4331 164.655 14.8691C164.65 15.2436 164.787 15.5483 165.066 15.783C165.351 16.0178 165.821 16.2107 166.475 16.3616L168.672 16.8311C169.89 17.0939 170.796 17.5103 171.388 18.0805C171.986 18.6507 172.288 19.3969 172.294 20.3192C172.288 21.1298 172.051 21.8453 171.581 22.4658C171.117 23.0807 170.472 23.5614 169.644 23.908C168.817 24.2545 167.867 24.4278 166.793 24.4278C165.217 24.4278 163.948 24.098 162.987 23.4384C162.025 22.7732 161.452 21.8481 161.268 20.663L164.228 20.3779C164.362 20.9593 164.647 21.3981 165.083 21.6944C165.519 21.9906 166.086 22.1388 166.785 22.1388C167.506 22.1388 168.085 21.9906 168.521 21.6944C168.962 21.3981 169.183 21.032 169.183 20.5959C169.183 20.227 169.041 19.9224 168.755 19.682C168.476 19.4416 168.04 19.2572 167.447 19.1286L165.251 18.6674C164.015 18.4103 163.101 17.9771 162.509 17.3678C161.916 16.7529 161.623 15.9759 161.628 15.0368C161.623 14.243 161.838 13.5555 162.274 12.9741C162.716 12.3872 163.328 11.9344 164.11 11.6158C164.898 11.2916 165.807 11.1295 166.835 11.1295C168.345 11.1295 169.532 11.4509 170.399 12.0937C171.271 12.7365 171.81 13.6058 172.017 14.7014ZM184.976 14.7014L182.209 15.0033C182.131 14.7238 181.994 14.461 181.798 14.2151C181.608 13.9691 181.351 13.7707 181.027 13.6198C180.702 13.4688 180.306 13.3934 179.836 13.3934C179.204 13.3934 178.673 13.5303 178.243 13.8042C177.818 14.0781 177.608 14.4331 177.614 14.8691C177.608 15.2436 177.745 15.5483 178.025 15.783C178.31 16.0178 178.78 16.2107 179.434 16.3616L181.63 16.8311C182.849 17.0939 183.755 17.5103 184.347 18.0805C184.945 18.6507 185.247 19.3969 185.253 20.3192C185.247 21.1298 185.009 21.8453 184.54 22.4658C184.076 23.0807 183.43 23.5614 182.603 23.908C181.776 24.2545 180.825 24.4278 179.752 24.4278C178.176 24.4278 176.907 24.098 175.945 23.4384C174.984 22.7732 174.411 21.8481 174.227 20.663L177.186 20.3779C177.321 20.9593 177.606 21.3981 178.042 21.6944C178.478 21.9906 179.045 22.1388 179.744 22.1388C180.465 22.1388 181.043 21.9906 181.479 21.6944C181.921 21.3981 182.142 21.032 182.142 20.5959C182.142 20.227 181.999 19.9224 181.714 19.682C181.435 19.4416 180.999 19.2572 180.406 19.1286L178.209 18.6674C176.974 18.4103 176.06 17.9771 175.467 17.3678C174.875 16.7529 174.581 15.9759 174.587 15.0368C174.581 14.243 174.797 13.5555 175.233 12.9741C175.674 12.3872 176.286 11.9344 177.069 11.6158C177.857 11.2916 178.766 11.1295 179.794 11.1295C181.303 11.1295 182.491 11.4509 183.358 12.0937C184.23 12.7365 184.769 13.6058 184.976 14.7014Z" fill="#35586E"/>
<rect y="36.3809" width="78.7057" height="2.36117" fill="#35586E"/>
</svg>
