<svg width="187" height="39" viewBox="0 0 187 39" fill="none" xmlns="http://www.w3.org/2000/svg">
<path d="M16.3924 12.7979H13.2564C13.167 12.2836 13.0021 11.8281 12.7617 11.4312C12.5214 11.0287 12.2223 10.6877 11.8646 10.4082C11.5068 10.1287 11.0987 9.91912 10.6404 9.77937C10.1876 9.63404 9.69847 9.56137 9.17302 9.56137C8.23951 9.56137 7.4122 9.79614 6.6911 10.2657C5.97001 10.7297 5.40543 11.4116 4.99737 12.3116C4.5893 13.206 4.38527 14.2988 4.38527 15.5901C4.38527 16.9037 4.5893 18.0105 4.99737 18.9105C5.41102 19.8048 5.9756 20.4812 6.6911 20.9396C7.4122 21.3924 8.23671 21.6188 9.16463 21.6188C9.6789 21.6188 10.1596 21.5517 10.6068 21.4175C11.0596 21.2778 11.4649 21.0738 11.8226 20.8054C12.186 20.5371 12.4906 20.2073 12.7366 19.816C12.9881 19.4247 13.1614 18.9775 13.2564 18.4745L16.3924 18.4912C16.275 19.3073 16.0206 20.0732 15.6293 20.7887C15.2436 21.5042 14.7378 22.1358 14.1117 22.6836C13.4856 23.2259 12.7533 23.6507 11.9149 23.9581C11.0764 24.26 10.1457 24.4109 9.12271 24.4109C7.61344 24.4109 6.26627 24.0616 5.08121 23.3628C3.89616 22.6641 2.96264 21.6551 2.28068 20.3359C1.59871 19.0167 1.25773 17.4347 1.25773 15.5901C1.25773 13.7398 1.6015 12.1579 2.28906 10.8442C2.97662 9.52503 3.91293 8.51606 5.09798 7.81732C6.28304 7.11858 7.62462 6.76921 9.12271 6.76921C10.0786 6.76921 10.9674 6.90337 11.7891 7.17169C12.6108 7.44 13.3431 7.83409 13.9859 8.35395C14.6288 8.86822 15.157 9.49988 15.5707 10.2489C15.9899 10.9924 16.2638 11.842 16.3924 12.7979ZM19.107 24.1761V11.297H22.05V13.4435H22.1842C22.419 12.7001 22.8214 12.1271 23.3916 11.7247C23.9674 11.3166 24.6242 11.1126 25.3621 11.1126C25.5297 11.1126 25.717 11.1209 25.9238 11.1377C26.1363 11.1489 26.3123 11.1685 26.4521 11.1964V13.9886C26.3235 13.9438 26.1195 13.9047 25.84 13.8712C25.5661 13.832 25.3006 13.8125 25.0434 13.8125C24.49 13.8125 23.9925 13.9327 23.5509 14.173C23.1149 14.4078 22.7711 14.7348 22.5196 15.1541C22.268 15.5733 22.1423 16.0568 22.1423 16.6046V24.1761H19.107ZM30.7472 29.0058C30.3336 29.0058 29.9507 28.9723 29.5985 28.9052C29.2519 28.8437 28.9752 28.771 28.7684 28.6872L29.4727 26.3227C29.9143 26.4512 30.3084 26.5127 30.655 26.5071C31.0016 26.5015 31.3062 26.3925 31.5689 26.1801C31.8372 25.9733 32.0636 25.6267 32.2481 25.1404L32.508 24.4445L27.8377 11.297H31.0575L34.0257 21.0234H34.1598L37.1365 11.297H40.3646L35.208 25.7357C34.9676 26.4177 34.649 27.0018 34.2521 27.4882C33.8552 27.9801 33.3689 28.3546 32.7931 28.6117C32.2229 28.8745 31.541 29.0058 30.7472 29.0058ZM42.465 29.0058V11.297H45.45V13.4268H45.6261C45.7826 13.1137 46.0034 12.7811 46.2885 12.429C46.5736 12.0712 46.9593 11.7666 47.4456 11.515C47.932 11.2579 48.5524 11.1293 49.3071 11.1293C50.3021 11.1293 51.1992 11.3837 51.9986 11.8924C52.8035 12.3954 53.4408 13.1417 53.9103 14.1311C54.3855 15.1149 54.6231 16.3223 54.6231 17.7534C54.6231 19.1676 54.3911 20.3694 53.9271 21.3588C53.4632 22.3483 52.8315 23.1029 52.0321 23.6227C51.2328 24.1426 50.3272 24.4025 49.3154 24.4025C48.5776 24.4025 47.9655 24.2796 47.4792 24.0336C46.9928 23.7876 46.6016 23.4914 46.3053 23.1448C46.0146 22.7926 45.7882 22.46 45.6261 22.147H45.5003V29.0058H42.465ZM45.4417 17.7366C45.4417 18.5695 45.559 19.299 45.7938 19.925C46.0342 20.5511 46.378 21.0402 46.8252 21.3924C47.2779 21.739 47.8257 21.9122 48.4686 21.9122C49.1394 21.9122 49.7012 21.7334 50.1539 21.3756C50.6067 21.0123 50.9477 20.5176 51.1769 19.8915C51.4117 19.2598 51.529 18.5415 51.529 17.7366C51.529 16.9372 51.4145 16.2273 51.1853 15.6068C50.9561 14.9864 50.6151 14.5 50.1623 14.1479C49.7095 13.7957 49.145 13.6196 48.4686 13.6196C47.8202 13.6196 47.2695 13.7901 46.8168 14.1311C46.364 14.4721 46.0202 14.95 45.7854 15.5649C45.5562 16.1798 45.4417 16.9037 45.4417 17.7366ZM63.6535 11.297V13.6448H56.2497V11.297H63.6535ZM58.0776 8.21141H61.1129V20.3024C61.1129 20.7104 61.1744 21.0234 61.2974 21.2415C61.426 21.4539 61.5937 21.5992 61.8005 21.6775C62.0073 21.7557 62.2365 21.7949 62.488 21.7949C62.6781 21.7949 62.8514 21.7809 63.0079 21.7529C63.17 21.725 63.293 21.6998 63.3768 21.6775L63.8883 24.0504C63.7262 24.1063 63.4942 24.1678 63.1924 24.2348C62.8961 24.3019 62.5328 24.341 62.1023 24.3522C61.3421 24.3746 60.6573 24.26 60.048 24.0085C59.4387 23.7513 58.9552 23.3544 58.5975 22.8178C58.2453 22.2812 58.072 21.6104 58.0776 20.8054V8.21141ZM71.6715 24.4277C70.4138 24.4277 69.3238 24.151 68.4014 23.5976C67.4791 23.0442 66.7636 22.27 66.2549 21.275C65.7518 20.28 65.5003 19.1173 65.5003 17.7869C65.5003 16.4565 65.7518 15.291 66.2549 14.2904C66.7636 13.2898 67.4791 12.5128 68.4014 11.9594C69.3238 11.406 70.4138 11.1293 71.6715 11.1293C72.9293 11.1293 74.0193 11.406 74.9416 11.9594C75.864 12.5128 76.5767 13.2898 77.0798 14.2904C77.5884 15.291 77.8428 16.4565 77.8428 17.7869C77.8428 19.1173 77.5884 20.28 77.0798 21.275C76.5767 22.27 75.864 23.0442 74.9416 23.5976C74.0193 24.151 72.9293 24.4277 71.6715 24.4277ZM71.6883 21.9961C72.3703 21.9961 72.9404 21.8088 73.3988 21.4343C73.8572 21.0542 74.1982 20.5455 74.4218 19.9083C74.6509 19.271 74.7655 18.5611 74.7655 17.7785C74.7655 16.9903 74.6509 16.2776 74.4218 15.6404C74.1982 14.9975 73.8572 14.4861 73.3988 14.106C72.9404 13.7258 72.3703 13.5358 71.6883 13.5358C70.9896 13.5358 70.4082 13.7258 69.9443 14.106C69.4859 14.4861 69.1421 14.9975 68.9129 15.6404C68.6893 16.2776 68.5775 16.9903 68.5775 17.7785C68.5775 18.5611 68.6893 19.271 68.9129 19.9083C69.1421 20.5455 69.4859 21.0542 69.9443 21.4343C70.4082 21.8088 70.9896 21.9961 71.6883 21.9961Z" fill="#333333"/>
<path d="M95.2518 12.7979H92.1159C92.0264 12.2836 91.8615 11.8281 91.6212 11.4312C91.3808 11.0287 91.0817 10.6877 90.724 10.4082C90.3662 10.1287 89.9582 9.91912 89.4998 9.77937C89.047 9.63404 88.5579 9.56137 88.0325 9.56137C87.0989 9.56137 86.2716 9.79614 85.5505 10.2657C84.8295 10.7297 84.2649 11.4116 83.8568 12.3116C83.4487 13.206 83.2447 14.2988 83.2447 15.5901C83.2447 16.9037 83.4487 18.0105 83.8568 18.9105C84.2705 19.8048 84.835 20.4812 85.5505 20.9396C86.2716 21.3924 87.0962 21.6188 88.0241 21.6188C88.5383 21.6188 89.0191 21.5517 89.4663 21.4175C89.9191 21.2778 90.3243 21.0738 90.6821 20.8054C91.0454 20.5371 91.3501 20.2073 91.596 19.816C91.8476 19.4247 92.0209 18.9775 92.1159 18.4745L95.2518 18.4912C95.1344 19.3073 94.8801 20.0732 94.4888 20.7887C94.1031 21.5042 93.5972 22.1358 92.9711 22.6836C92.3451 23.2259 91.6128 23.6507 90.7743 23.9581C89.9358 24.26 89.0051 24.4109 87.9822 24.4109C86.4729 24.4109 85.1257 24.0616 83.9407 23.3628C82.7556 22.6641 81.8221 21.6551 81.1401 20.3359C80.4582 19.0167 80.1172 17.4347 80.1172 15.5901C80.1172 13.7398 80.4609 12.1579 81.1485 10.8442C81.8361 9.52503 82.7724 8.51606 83.9574 7.81732C85.1425 7.11858 86.4841 6.76921 87.9822 6.76921C88.938 6.76921 89.8268 6.90337 90.6485 7.17169C91.4702 7.44 92.2025 7.83409 92.8454 8.35395C93.4882 8.86822 94.0164 9.49988 94.4301 10.2489C94.8493 10.9924 95.1232 11.842 95.2518 12.7979ZM103.584 24.4277C102.327 24.4277 101.236 24.151 100.314 23.5976C99.3918 23.0442 98.6763 22.27 98.1676 21.275C97.6645 20.28 97.413 19.1173 97.413 17.7869C97.413 16.4565 97.6645 15.291 98.1676 14.2904C98.6763 13.2898 99.3918 12.5128 100.314 11.9594C101.236 11.406 102.327 11.1293 103.584 11.1293C104.842 11.1293 105.932 11.406 106.854 11.9594C107.777 12.5128 108.489 13.2898 108.992 14.2904C109.501 15.291 109.755 16.4565 109.755 17.7869C109.755 19.1173 109.501 20.28 108.992 21.275C108.489 22.27 107.777 23.0442 106.854 23.5976C105.932 24.151 104.842 24.4277 103.584 24.4277ZM103.601 21.9961C104.283 21.9961 104.853 21.8088 105.312 21.4343C105.77 21.0542 106.111 20.5455 106.334 19.9083C106.564 19.271 106.678 18.5611 106.678 17.7785C106.678 16.9903 106.564 16.2776 106.334 15.6404C106.111 14.9975 105.77 14.4861 105.312 14.106C104.853 13.7258 104.283 13.5358 103.601 13.5358C102.902 13.5358 102.321 13.7258 101.857 14.106C101.399 14.4861 101.055 14.9975 100.826 15.6404C100.602 16.2776 100.49 16.9903 100.49 17.7785C100.49 18.5611 100.602 19.271 100.826 19.9083C101.055 20.5455 101.399 21.0542 101.857 21.4343C102.321 21.8088 102.902 21.9961 103.601 21.9961ZM112.332 24.1761V11.297H115.233V13.4855H115.384C115.652 12.7476 116.097 12.1718 116.717 11.7582C117.337 11.339 118.078 11.1293 118.939 11.1293C119.811 11.1293 120.546 11.3417 121.144 11.7666C121.748 12.1858 122.173 12.7588 122.419 13.4855H122.553C122.838 12.77 123.319 12.1998 123.995 11.775C124.677 11.3445 125.485 11.1293 126.418 11.1293C127.603 11.1293 128.57 11.5039 129.319 12.2529C130.068 13.0019 130.443 14.0948 130.443 15.5314V24.1761H127.399V16.0009C127.399 15.2016 127.187 14.6174 126.762 14.2485C126.337 13.874 125.817 13.6867 125.202 13.6867C124.47 13.6867 123.897 13.9159 123.484 14.3743C123.076 14.827 122.871 15.4168 122.871 16.1435V24.1761H119.895V15.8752C119.895 15.21 119.694 14.6789 119.291 14.282C118.894 13.8852 118.374 13.6867 117.732 13.6867C117.296 13.6867 116.899 13.7985 116.541 14.0221C116.183 14.2401 115.898 14.5503 115.686 14.9528C115.473 15.3497 115.367 15.8137 115.367 16.3447V24.1761H112.332ZM133.522 29.0058V11.297H136.507V13.4268H136.683C136.84 13.1137 137.061 12.7811 137.346 12.429C137.631 12.0712 138.017 11.7666 138.503 11.515C138.989 11.2579 139.61 11.1293 140.364 11.1293C141.359 11.1293 142.257 11.3837 143.056 11.8924C143.861 12.3954 144.498 13.1417 144.968 14.1311C145.443 15.1149 145.68 16.3223 145.68 17.7534C145.68 19.1676 145.448 20.3694 144.984 21.3588C144.52 22.3483 143.889 23.1029 143.089 23.6227C142.29 24.1426 141.385 24.4025 140.373 24.4025C139.635 24.4025 139.023 24.2796 138.536 24.0336C138.05 23.7876 137.659 23.4914 137.363 23.1448C137.072 22.7926 136.846 22.46 136.683 22.147H136.558V29.0058H133.522ZM136.499 17.7366C136.499 18.5695 136.616 19.299 136.851 19.925C137.091 20.5511 137.435 21.0402 137.882 21.3924C138.335 21.739 138.883 21.9122 139.526 21.9122C140.197 21.9122 140.758 21.7334 141.211 21.3756C141.664 21.0123 142.005 20.5176 142.234 19.8915C142.469 19.2598 142.586 18.5415 142.586 17.7366C142.586 16.9372 142.472 16.2273 142.243 15.6068C142.013 14.9864 141.672 14.5 141.22 14.1479C140.767 13.7957 140.202 13.6196 139.526 13.6196C138.877 13.6196 138.327 13.7901 137.874 14.1311C137.421 14.4721 137.077 14.95 136.843 15.5649C136.614 16.1798 136.499 16.9037 136.499 17.7366ZM151.986 24.4361C151.17 24.4361 150.435 24.2907 149.781 24.0001C149.132 23.7038 148.618 23.2678 148.238 22.692C147.863 22.1163 147.676 21.4064 147.676 20.5623C147.676 19.8356 147.81 19.2347 148.078 18.7595C148.347 18.2844 148.713 17.9043 149.177 17.6192C149.641 17.3341 150.163 17.1189 150.745 16.9736C151.332 16.8226 151.938 16.7136 152.564 16.6466C153.319 16.5683 153.931 16.4984 154.401 16.4369C154.87 16.3699 155.211 16.2692 155.424 16.1351C155.642 15.9953 155.751 15.7801 155.751 15.4895V15.4391C155.751 14.8075 155.563 14.3184 155.189 13.9718C154.814 13.6252 154.275 13.4519 153.57 13.4519C152.827 13.4519 152.237 13.614 151.801 13.9383C151.371 14.2625 151.08 14.6454 150.929 15.087L148.095 14.6845C148.319 13.9019 148.688 13.2479 149.202 12.7225C149.716 12.1914 150.345 11.7945 151.089 11.5318C151.832 11.2635 152.654 11.1293 153.554 11.1293C154.174 11.1293 154.792 11.202 155.407 11.3473C156.022 11.4927 156.583 11.733 157.092 12.0684C157.601 12.3982 158.009 12.8482 158.316 13.4184C158.629 13.9886 158.786 14.7013 158.786 15.5565V24.1761H155.868V22.4069H155.767C155.583 22.7647 155.323 23.1001 154.988 23.4131C154.658 23.7206 154.241 23.9693 153.738 24.1594C153.241 24.3438 152.657 24.4361 151.986 24.4361ZM152.774 22.2057C153.383 22.2057 153.911 22.0855 154.359 21.8452C154.806 21.5992 155.15 21.275 155.39 20.8725C155.636 20.47 155.759 20.0312 155.759 19.5561V18.0384C155.664 18.1167 155.502 18.1894 155.273 18.2564C155.049 18.3235 154.797 18.3822 154.518 18.4325C154.238 18.4828 153.962 18.5276 153.688 18.5667C153.414 18.6058 153.176 18.6394 152.975 18.6673C152.522 18.7288 152.117 18.8294 151.759 18.9692C151.402 19.1089 151.119 19.3046 150.912 19.5561C150.706 19.8021 150.602 20.1207 150.602 20.512C150.602 21.071 150.806 21.493 151.214 21.7781C151.622 22.0632 152.142 22.2057 152.774 22.2057ZM172.017 14.7013L169.25 15.0031C169.172 14.7236 169.035 14.4609 168.839 14.215C168.649 13.969 168.392 13.7706 168.068 13.6196C167.744 13.4687 167.347 13.3932 166.877 13.3932C166.246 13.3932 165.715 13.5302 165.284 13.8041C164.859 14.078 164.65 14.433 164.655 14.869C164.65 15.2435 164.787 15.5481 165.066 15.7829C165.351 16.0177 165.821 16.2105 166.475 16.3615L168.672 16.831C169.89 17.0938 170.796 17.5102 171.388 18.0804C171.986 18.6505 172.288 19.3968 172.294 20.3191C172.288 21.1297 172.051 21.8452 171.581 22.4656C171.117 23.0805 170.472 23.5613 169.644 23.9078C168.817 24.2544 167.867 24.4277 166.793 24.4277C165.217 24.4277 163.948 24.0979 162.987 23.4383C162.025 22.7731 161.452 21.848 161.268 20.6629L164.228 20.3778C164.362 20.9592 164.647 21.398 165.083 21.6942C165.519 21.9905 166.086 22.1386 166.785 22.1386C167.506 22.1386 168.085 21.9905 168.521 21.6942C168.962 21.398 169.183 21.0318 169.183 20.5958C169.183 20.2269 169.041 19.9222 168.755 19.6819C168.476 19.4415 168.04 19.257 167.447 19.1285L165.251 18.6673C164.015 18.4102 163.101 17.977 162.509 17.3677C161.916 16.7528 161.623 15.9758 161.628 15.0367C161.623 14.2429 161.838 13.5553 162.274 12.974C162.716 12.3871 163.328 11.9343 164.11 11.6157C164.898 11.2914 165.807 11.1293 166.835 11.1293C168.345 11.1293 169.532 11.4508 170.399 12.0936C171.271 12.7364 171.81 13.6057 172.017 14.7013ZM184.976 14.7013L182.209 15.0031C182.131 14.7236 181.994 14.4609 181.798 14.215C181.608 13.969 181.351 13.7706 181.027 13.6196C180.702 13.4687 180.306 13.3932 179.836 13.3932C179.204 13.3932 178.673 13.5302 178.243 13.8041C177.818 14.078 177.608 14.433 177.614 14.869C177.608 15.2435 177.745 15.5481 178.025 15.7829C178.31 16.0177 178.78 16.2105 179.434 16.3615L181.63 16.831C182.849 17.0938 183.755 17.5102 184.347 18.0804C184.945 18.6505 185.247 19.3968 185.253 20.3191C185.247 21.1297 185.009 21.8452 184.54 22.4656C184.076 23.0805 183.43 23.5613 182.603 23.9078C181.776 24.2544 180.825 24.4277 179.752 24.4277C178.176 24.4277 176.907 24.0979 175.945 23.4383C174.984 22.7731 174.411 21.848 174.227 20.6629L177.186 20.3778C177.321 20.9592 177.606 21.398 178.042 21.6942C178.478 21.9905 179.045 22.1386 179.744 22.1386C180.465 22.1386 181.043 21.9905 181.479 21.6942C181.921 21.398 182.142 21.0318 182.142 20.5958C182.142 20.2269 181.999 19.9222 181.714 19.6819C181.435 19.4415 180.999 19.257 180.406 19.1285L178.209 18.6673C176.974 18.4102 176.06 17.977 175.467 17.3677C174.875 16.7528 174.581 15.9758 174.587 15.0367C174.581 14.2429 174.797 13.5553 175.233 12.974C175.674 12.3871 176.286 11.9343 177.069 11.6157C177.857 11.2914 178.766 11.1293 179.794 11.1293C181.303 11.1293 182.491 11.4508 183.358 12.0936C184.23 12.7364 184.769 13.6057 184.976 14.7013Z" fill="#35586E"/>
<rect y="36.3807" width="78.7057" height="2.36117" fill="#35586E"/>
</svg>
